%TF.GenerationSoftware,KiCad,Pcbnew,9.0.1*%
%TF.CreationDate,2025-05-06T14:46:56+03:00*%
%TF.ProjectId,plata_zmk,706c6174-615f-47a6-9d6b-2e6b69636164,rev?*%
%TF.SameCoordinates,Original*%
%TF.FileFunction,Legend,Top*%
%TF.FilePolarity,Positive*%
%FSLAX46Y46*%
G04 Gerber Fmt 4.6, Leading zero omitted, Abs format (unit mm)*
G04 Created by KiCad (PCBNEW 9.0.1) date 2025-05-06 14:46:56*
%MOMM*%
%LPD*%
G01*
G04 APERTURE LIST*
%ADD10C,0.150000*%
%ADD11C,0.120000*%
G04 APERTURE END LIST*
D10*
X255166666Y-57374819D02*
X254833333Y-56898628D01*
X254595238Y-57374819D02*
X254595238Y-56374819D01*
X254595238Y-56374819D02*
X254976190Y-56374819D01*
X254976190Y-56374819D02*
X255071428Y-56422438D01*
X255071428Y-56422438D02*
X255119047Y-56470057D01*
X255119047Y-56470057D02*
X255166666Y-56565295D01*
X255166666Y-56565295D02*
X255166666Y-56708152D01*
X255166666Y-56708152D02*
X255119047Y-56803390D01*
X255119047Y-56803390D02*
X255071428Y-56851009D01*
X255071428Y-56851009D02*
X254976190Y-56898628D01*
X254976190Y-56898628D02*
X254595238Y-56898628D01*
X255595238Y-56851009D02*
X255928571Y-56851009D01*
X256071428Y-57374819D02*
X255595238Y-57374819D01*
X255595238Y-57374819D02*
X255595238Y-56374819D01*
X255595238Y-56374819D02*
X256071428Y-56374819D01*
X256833333Y-56851009D02*
X256500000Y-56851009D01*
X256500000Y-57374819D02*
X256500000Y-56374819D01*
X256500000Y-56374819D02*
X256976190Y-56374819D01*
X257500000Y-56374819D02*
X257500000Y-56612914D01*
X257261905Y-56517676D02*
X257500000Y-56612914D01*
X257500000Y-56612914D02*
X257738095Y-56517676D01*
X257357143Y-56803390D02*
X257500000Y-56612914D01*
X257500000Y-56612914D02*
X257642857Y-56803390D01*
X258261905Y-56374819D02*
X258261905Y-56612914D01*
X258023810Y-56517676D02*
X258261905Y-56612914D01*
X258261905Y-56612914D02*
X258500000Y-56517676D01*
X258119048Y-56803390D02*
X258261905Y-56612914D01*
X258261905Y-56612914D02*
X258404762Y-56803390D01*
X242966666Y-57374819D02*
X242633333Y-56898628D01*
X242395238Y-57374819D02*
X242395238Y-56374819D01*
X242395238Y-56374819D02*
X242776190Y-56374819D01*
X242776190Y-56374819D02*
X242871428Y-56422438D01*
X242871428Y-56422438D02*
X242919047Y-56470057D01*
X242919047Y-56470057D02*
X242966666Y-56565295D01*
X242966666Y-56565295D02*
X242966666Y-56708152D01*
X242966666Y-56708152D02*
X242919047Y-56803390D01*
X242919047Y-56803390D02*
X242871428Y-56851009D01*
X242871428Y-56851009D02*
X242776190Y-56898628D01*
X242776190Y-56898628D02*
X242395238Y-56898628D01*
X243395238Y-56851009D02*
X243728571Y-56851009D01*
X243871428Y-57374819D02*
X243395238Y-57374819D01*
X243395238Y-57374819D02*
X243395238Y-56374819D01*
X243395238Y-56374819D02*
X243871428Y-56374819D01*
X244633333Y-56851009D02*
X244300000Y-56851009D01*
X244300000Y-57374819D02*
X244300000Y-56374819D01*
X244300000Y-56374819D02*
X244776190Y-56374819D01*
X245300000Y-56374819D02*
X245300000Y-56612914D01*
X245061905Y-56517676D02*
X245300000Y-56612914D01*
X245300000Y-56612914D02*
X245538095Y-56517676D01*
X245157143Y-56803390D02*
X245300000Y-56612914D01*
X245300000Y-56612914D02*
X245442857Y-56803390D01*
X246061905Y-56374819D02*
X246061905Y-56612914D01*
X245823810Y-56517676D02*
X246061905Y-56612914D01*
X246061905Y-56612914D02*
X246300000Y-56517676D01*
X245919048Y-56803390D02*
X246061905Y-56612914D01*
X246061905Y-56612914D02*
X246204762Y-56803390D01*
X250266666Y-64674819D02*
X249933333Y-64198628D01*
X249695238Y-64674819D02*
X249695238Y-63674819D01*
X249695238Y-63674819D02*
X250076190Y-63674819D01*
X250076190Y-63674819D02*
X250171428Y-63722438D01*
X250171428Y-63722438D02*
X250219047Y-63770057D01*
X250219047Y-63770057D02*
X250266666Y-63865295D01*
X250266666Y-63865295D02*
X250266666Y-64008152D01*
X250266666Y-64008152D02*
X250219047Y-64103390D01*
X250219047Y-64103390D02*
X250171428Y-64151009D01*
X250171428Y-64151009D02*
X250076190Y-64198628D01*
X250076190Y-64198628D02*
X249695238Y-64198628D01*
X250695238Y-64151009D02*
X251028571Y-64151009D01*
X251171428Y-64674819D02*
X250695238Y-64674819D01*
X250695238Y-64674819D02*
X250695238Y-63674819D01*
X250695238Y-63674819D02*
X251171428Y-63674819D01*
X251933333Y-64151009D02*
X251600000Y-64151009D01*
X251600000Y-64674819D02*
X251600000Y-63674819D01*
X251600000Y-63674819D02*
X252076190Y-63674819D01*
X252600000Y-63674819D02*
X252600000Y-63912914D01*
X252361905Y-63817676D02*
X252600000Y-63912914D01*
X252600000Y-63912914D02*
X252838095Y-63817676D01*
X252457143Y-64103390D02*
X252600000Y-63912914D01*
X252600000Y-63912914D02*
X252742857Y-64103390D01*
X253361905Y-63674819D02*
X253361905Y-63912914D01*
X253123810Y-63817676D02*
X253361905Y-63912914D01*
X253361905Y-63912914D02*
X253600000Y-63817676D01*
X253219048Y-64103390D02*
X253361905Y-63912914D01*
X253361905Y-63912914D02*
X253504762Y-64103390D01*
X255466666Y-69174819D02*
X255133333Y-68698628D01*
X254895238Y-69174819D02*
X254895238Y-68174819D01*
X254895238Y-68174819D02*
X255276190Y-68174819D01*
X255276190Y-68174819D02*
X255371428Y-68222438D01*
X255371428Y-68222438D02*
X255419047Y-68270057D01*
X255419047Y-68270057D02*
X255466666Y-68365295D01*
X255466666Y-68365295D02*
X255466666Y-68508152D01*
X255466666Y-68508152D02*
X255419047Y-68603390D01*
X255419047Y-68603390D02*
X255371428Y-68651009D01*
X255371428Y-68651009D02*
X255276190Y-68698628D01*
X255276190Y-68698628D02*
X254895238Y-68698628D01*
X255895238Y-68651009D02*
X256228571Y-68651009D01*
X256371428Y-69174819D02*
X255895238Y-69174819D01*
X255895238Y-69174819D02*
X255895238Y-68174819D01*
X255895238Y-68174819D02*
X256371428Y-68174819D01*
X257133333Y-68651009D02*
X256800000Y-68651009D01*
X256800000Y-69174819D02*
X256800000Y-68174819D01*
X256800000Y-68174819D02*
X257276190Y-68174819D01*
X257800000Y-68174819D02*
X257800000Y-68412914D01*
X257561905Y-68317676D02*
X257800000Y-68412914D01*
X257800000Y-68412914D02*
X258038095Y-68317676D01*
X257657143Y-68603390D02*
X257800000Y-68412914D01*
X257800000Y-68412914D02*
X257942857Y-68603390D01*
X258561905Y-68174819D02*
X258561905Y-68412914D01*
X258323810Y-68317676D02*
X258561905Y-68412914D01*
X258561905Y-68412914D02*
X258800000Y-68317676D01*
X258419048Y-68603390D02*
X258561905Y-68412914D01*
X258561905Y-68412914D02*
X258704762Y-68603390D01*
X250266666Y-69174819D02*
X249933333Y-68698628D01*
X249695238Y-69174819D02*
X249695238Y-68174819D01*
X249695238Y-68174819D02*
X250076190Y-68174819D01*
X250076190Y-68174819D02*
X250171428Y-68222438D01*
X250171428Y-68222438D02*
X250219047Y-68270057D01*
X250219047Y-68270057D02*
X250266666Y-68365295D01*
X250266666Y-68365295D02*
X250266666Y-68508152D01*
X250266666Y-68508152D02*
X250219047Y-68603390D01*
X250219047Y-68603390D02*
X250171428Y-68651009D01*
X250171428Y-68651009D02*
X250076190Y-68698628D01*
X250076190Y-68698628D02*
X249695238Y-68698628D01*
X250695238Y-68651009D02*
X251028571Y-68651009D01*
X251171428Y-69174819D02*
X250695238Y-69174819D01*
X250695238Y-69174819D02*
X250695238Y-68174819D01*
X250695238Y-68174819D02*
X251171428Y-68174819D01*
X251933333Y-68651009D02*
X251600000Y-68651009D01*
X251600000Y-69174819D02*
X251600000Y-68174819D01*
X251600000Y-68174819D02*
X252076190Y-68174819D01*
X252600000Y-68174819D02*
X252600000Y-68412914D01*
X252361905Y-68317676D02*
X252600000Y-68412914D01*
X252600000Y-68412914D02*
X252838095Y-68317676D01*
X252457143Y-68603390D02*
X252600000Y-68412914D01*
X252600000Y-68412914D02*
X252742857Y-68603390D01*
X253361905Y-68174819D02*
X253361905Y-68412914D01*
X253123810Y-68317676D02*
X253361905Y-68412914D01*
X253361905Y-68412914D02*
X253600000Y-68317676D01*
X253219048Y-68603390D02*
X253361905Y-68412914D01*
X253361905Y-68412914D02*
X253504762Y-68603390D01*
X255166666Y-60974819D02*
X254833333Y-60498628D01*
X254595238Y-60974819D02*
X254595238Y-59974819D01*
X254595238Y-59974819D02*
X254976190Y-59974819D01*
X254976190Y-59974819D02*
X255071428Y-60022438D01*
X255071428Y-60022438D02*
X255119047Y-60070057D01*
X255119047Y-60070057D02*
X255166666Y-60165295D01*
X255166666Y-60165295D02*
X255166666Y-60308152D01*
X255166666Y-60308152D02*
X255119047Y-60403390D01*
X255119047Y-60403390D02*
X255071428Y-60451009D01*
X255071428Y-60451009D02*
X254976190Y-60498628D01*
X254976190Y-60498628D02*
X254595238Y-60498628D01*
X255595238Y-60451009D02*
X255928571Y-60451009D01*
X256071428Y-60974819D02*
X255595238Y-60974819D01*
X255595238Y-60974819D02*
X255595238Y-59974819D01*
X255595238Y-59974819D02*
X256071428Y-59974819D01*
X256833333Y-60451009D02*
X256500000Y-60451009D01*
X256500000Y-60974819D02*
X256500000Y-59974819D01*
X256500000Y-59974819D02*
X256976190Y-59974819D01*
X257500000Y-59974819D02*
X257500000Y-60212914D01*
X257261905Y-60117676D02*
X257500000Y-60212914D01*
X257500000Y-60212914D02*
X257738095Y-60117676D01*
X257357143Y-60403390D02*
X257500000Y-60212914D01*
X257500000Y-60212914D02*
X257642857Y-60403390D01*
X258261905Y-59974819D02*
X258261905Y-60212914D01*
X258023810Y-60117676D02*
X258261905Y-60212914D01*
X258261905Y-60212914D02*
X258500000Y-60117676D01*
X258119048Y-60403390D02*
X258261905Y-60212914D01*
X258261905Y-60212914D02*
X258404762Y-60403390D01*
X255166666Y-64574819D02*
X254833333Y-64098628D01*
X254595238Y-64574819D02*
X254595238Y-63574819D01*
X254595238Y-63574819D02*
X254976190Y-63574819D01*
X254976190Y-63574819D02*
X255071428Y-63622438D01*
X255071428Y-63622438D02*
X255119047Y-63670057D01*
X255119047Y-63670057D02*
X255166666Y-63765295D01*
X255166666Y-63765295D02*
X255166666Y-63908152D01*
X255166666Y-63908152D02*
X255119047Y-64003390D01*
X255119047Y-64003390D02*
X255071428Y-64051009D01*
X255071428Y-64051009D02*
X254976190Y-64098628D01*
X254976190Y-64098628D02*
X254595238Y-64098628D01*
X255595238Y-64051009D02*
X255928571Y-64051009D01*
X256071428Y-64574819D02*
X255595238Y-64574819D01*
X255595238Y-64574819D02*
X255595238Y-63574819D01*
X255595238Y-63574819D02*
X256071428Y-63574819D01*
X256833333Y-64051009D02*
X256500000Y-64051009D01*
X256500000Y-64574819D02*
X256500000Y-63574819D01*
X256500000Y-63574819D02*
X256976190Y-63574819D01*
X257500000Y-63574819D02*
X257500000Y-63812914D01*
X257261905Y-63717676D02*
X257500000Y-63812914D01*
X257500000Y-63812914D02*
X257738095Y-63717676D01*
X257357143Y-64003390D02*
X257500000Y-63812914D01*
X257500000Y-63812914D02*
X257642857Y-64003390D01*
X258261905Y-63574819D02*
X258261905Y-63812914D01*
X258023810Y-63717676D02*
X258261905Y-63812914D01*
X258261905Y-63812914D02*
X258500000Y-63717676D01*
X258119048Y-64003390D02*
X258261905Y-63812914D01*
X258261905Y-63812914D02*
X258404762Y-64003390D01*
D11*
%TO.C,REF\u002A\u002A*%
X257880000Y-60570000D02*
X257880000Y-60680000D01*
X255120000Y-60680000D02*
X257880000Y-60680000D01*
X255120000Y-60570000D02*
X257880000Y-60570000D01*
X255120000Y-60570000D02*
X255120000Y-60680000D01*
X255120000Y-59300000D02*
X255120000Y-57920000D01*
X255120000Y-57920000D02*
X256500000Y-57920000D01*
X242920000Y-57920000D02*
X244300000Y-57920000D01*
X242920000Y-59300000D02*
X242920000Y-57920000D01*
X242920000Y-60570000D02*
X242920000Y-68300000D01*
X242920000Y-60570000D02*
X245680000Y-60570000D01*
X242920000Y-68300000D02*
X245680000Y-68300000D01*
X245680000Y-60570000D02*
X245680000Y-68300000D01*
X250220000Y-65220000D02*
X251600000Y-65220000D01*
X250220000Y-66600000D02*
X250220000Y-65220000D01*
X250220000Y-67870000D02*
X250220000Y-67980000D01*
X250220000Y-67870000D02*
X252980000Y-67870000D01*
X250220000Y-67980000D02*
X252980000Y-67980000D01*
X252980000Y-67870000D02*
X252980000Y-67980000D01*
X255420000Y-69720000D02*
X256800000Y-69720000D01*
X255420000Y-71100000D02*
X255420000Y-69720000D01*
X255420000Y-72370000D02*
X255420000Y-72480000D01*
X255420000Y-72370000D02*
X258180000Y-72370000D01*
X255420000Y-72480000D02*
X258180000Y-72480000D01*
X258180000Y-72370000D02*
X258180000Y-72480000D01*
X250220000Y-69720000D02*
X251600000Y-69720000D01*
X250220000Y-71100000D02*
X250220000Y-69720000D01*
X250220000Y-72370000D02*
X250220000Y-72480000D01*
X250220000Y-72370000D02*
X252980000Y-72370000D01*
X250220000Y-72480000D02*
X252980000Y-72480000D01*
X252980000Y-72370000D02*
X252980000Y-72480000D01*
X255120000Y-61520000D02*
X256500000Y-61520000D01*
X255120000Y-62900000D02*
X255120000Y-61520000D01*
X255120000Y-64170000D02*
X255120000Y-64280000D01*
X255120000Y-64170000D02*
X257880000Y-64170000D01*
X255120000Y-64280000D02*
X257880000Y-64280000D01*
X257880000Y-64170000D02*
X257880000Y-64280000D01*
X255120000Y-65120000D02*
X256500000Y-65120000D01*
X255120000Y-66500000D02*
X255120000Y-65120000D01*
X255120000Y-67770000D02*
X255120000Y-67880000D01*
X255120000Y-67770000D02*
X257880000Y-67770000D01*
X255120000Y-67880000D02*
X257880000Y-67880000D01*
X257880000Y-67770000D02*
X257880000Y-67880000D01*
%TD*%
M02*
