%TF.GenerationSoftware,KiCad,Pcbnew,9.0.1*%
%TF.CreationDate,2025-04-22T17:47:58+03:00*%
%TF.ProjectId,plata,706c6174-612e-46b6-9963-61645f706362,rev?*%
%TF.SameCoordinates,Original*%
%TF.FileFunction,Soldermask,Top*%
%TF.FilePolarity,Negative*%
%FSLAX46Y46*%
G04 Gerber Fmt 4.6, Leading zero omitted, Abs format (unit mm)*
G04 Created by KiCad (PCBNEW 9.0.1) date 2025-04-22 17:47:58*
%MOMM*%
%LPD*%
G01*
G04 APERTURE LIST*
%ADD10R,1.700000X1.700000*%
%ADD11C,1.700000*%
%ADD12R,1.500000X1.500000*%
%ADD13C,1.500000*%
%ADD14C,2.400000*%
%ADD15O,2.400000X2.400000*%
%ADD16R,1.800000X1.800000*%
%ADD17C,1.800000*%
G04 APERTURE END LIST*
D10*
%TO.C,REF\u002A\u002A*%
X194560000Y-150800000D03*
D11*
X197100000Y-150800000D03*
X199640000Y-150800000D03*
X202180000Y-150800000D03*
%TD*%
D10*
%TO.C,REF\u002A\u002A*%
X221200000Y-139300000D03*
%TD*%
%TO.C,REF\u002A\u002A*%
X161700000Y-151400000D03*
%TD*%
%TO.C,REF\u002A\u002A*%
X149500000Y-151450000D03*
%TD*%
%TO.C,REF\u002A\u002A*%
X147300000Y-147500000D03*
%TD*%
%TO.C,REF\u002A\u002A*%
X177940000Y-147500000D03*
D11*
X175400000Y-147500000D03*
%TD*%
D10*
%TO.C,REF\u002A\u002A*%
X162200000Y-118100000D03*
%TD*%
%TO.C,REF\u002A\u002A*%
X154050000Y-151350000D03*
%TD*%
%TO.C,REF\u002A\u002A*%
X204600000Y-137300000D03*
%TD*%
%TO.C,REF\u002A\u002A*%
X151100000Y-147500000D03*
%TD*%
%TO.C,REF\u002A\u002A*%
X165900000Y-118100000D03*
%TD*%
%TO.C,REF\u002A\u002A*%
X225100000Y-139500000D03*
D11*
X225100000Y-142040000D03*
X225100000Y-144580000D03*
%TD*%
D10*
%TO.C,REF\u002A\u002A*%
X169600000Y-118100000D03*
%TD*%
%TO.C,REF\u002A\u002A*%
X207475000Y-140800000D03*
D11*
X204935000Y-140800000D03*
%TD*%
D12*
%TO.C,U1*%
X182880000Y-121400000D03*
D13*
X180340000Y-121400000D03*
X177800000Y-121400000D03*
X175260000Y-121400000D03*
X172720000Y-121400000D03*
X170180000Y-121400000D03*
X167640000Y-121400000D03*
X165100000Y-121400000D03*
X162560000Y-121400000D03*
X160020000Y-121400000D03*
X157480000Y-121400000D03*
X154940000Y-121400000D03*
X152400000Y-121400000D03*
X149860000Y-121400000D03*
X147320000Y-121400000D03*
X147320000Y-144260000D03*
X149860000Y-144260000D03*
X152400000Y-144260000D03*
X154940000Y-144260000D03*
X157480000Y-144260000D03*
X160020000Y-144260000D03*
X162560000Y-144260000D03*
X165100000Y-144260000D03*
X167640000Y-144260000D03*
X170180000Y-144260000D03*
X172720000Y-144260000D03*
X175260000Y-144260000D03*
X177800000Y-144260000D03*
X180340000Y-144260000D03*
X182880000Y-144260000D03*
%TD*%
D10*
%TO.C,REF\u002A\u002A*%
X158100000Y-151400000D03*
%TD*%
%TO.C,REF\u002A\u002A*%
X145450000Y-151400000D03*
%TD*%
D14*
%TO.C,REF\u002A\u002A*%
X200670000Y-126000000D03*
D15*
X205750000Y-126000000D03*
%TD*%
D16*
%TO.C,REF\u002A\u002A*%
X210500000Y-126250000D03*
D17*
X213040000Y-126250000D03*
%TD*%
D10*
%TO.C,REF\u002A\u002A*%
X155000000Y-147500000D03*
%TD*%
M02*
