%TF.GenerationSoftware,KiCad,Pcbnew,9.0.1*%
%TF.CreationDate,2025-04-22T17:47:58+03:00*%
%TF.ProjectId,plata,706c6174-612e-46b6-9963-61645f706362,rev?*%
%TF.SameCoordinates,Original*%
%TF.FileFunction,Copper,L1,Top*%
%TF.FilePolarity,Positive*%
%FSLAX46Y46*%
G04 Gerber Fmt 4.6, Leading zero omitted, Abs format (unit mm)*
G04 Created by KiCad (PCBNEW 9.0.1) date 2025-04-22 17:47:58*
%MOMM*%
%LPD*%
G01*
G04 APERTURE LIST*
%TA.AperFunction,ComponentPad*%
%ADD10R,1.700000X1.700000*%
%TD*%
%TA.AperFunction,ComponentPad*%
%ADD11C,1.700000*%
%TD*%
%TA.AperFunction,ComponentPad*%
%ADD12R,1.500000X1.500000*%
%TD*%
%TA.AperFunction,ComponentPad*%
%ADD13C,1.500000*%
%TD*%
%TA.AperFunction,ComponentPad*%
%ADD14C,2.400000*%
%TD*%
%TA.AperFunction,ComponentPad*%
%ADD15O,2.400000X2.400000*%
%TD*%
%TA.AperFunction,ComponentPad*%
%ADD16R,1.800000X1.800000*%
%TD*%
%TA.AperFunction,ComponentPad*%
%ADD17C,1.800000*%
%TD*%
%TA.AperFunction,Conductor*%
%ADD18C,0.600000*%
%TD*%
G04 APERTURE END LIST*
D10*
%TO.P,REF\u002A\u002A,1*%
%TO.N,N/C*%
X194560000Y-150800000D03*
D11*
%TO.P,REF\u002A\u002A,2*%
X197100000Y-150800000D03*
%TO.P,REF\u002A\u002A,3*%
X199640000Y-150800000D03*
%TO.P,REF\u002A\u002A,4*%
X202180000Y-150800000D03*
%TD*%
D10*
%TO.P,REF\u002A\u002A,1*%
%TO.N,N/C*%
X221200000Y-139300000D03*
%TD*%
%TO.P,REF\u002A\u002A,1*%
%TO.N,N/C*%
X161700000Y-151400000D03*
%TD*%
%TO.P,REF\u002A\u002A,1*%
%TO.N,N/C*%
X149500000Y-151450000D03*
%TD*%
%TO.P,REF\u002A\u002A,1*%
%TO.N,N/C*%
X147300000Y-147500000D03*
%TD*%
%TO.P,REF\u002A\u002A,1*%
%TO.N,N/C*%
X177940000Y-147500000D03*
D11*
%TO.P,REF\u002A\u002A,2*%
X175400000Y-147500000D03*
%TD*%
D10*
%TO.P,REF\u002A\u002A,1*%
%TO.N,N/C*%
X162200000Y-118100000D03*
%TD*%
%TO.P,REF\u002A\u002A,1*%
%TO.N,N/C*%
X154050000Y-151350000D03*
%TD*%
%TO.P,REF\u002A\u002A,1*%
%TO.N,N/C*%
X204600000Y-137300000D03*
%TD*%
%TO.P,REF\u002A\u002A,1*%
%TO.N,N/C*%
X151100000Y-147500000D03*
%TD*%
%TO.P,REF\u002A\u002A,1*%
%TO.N,N/C*%
X165900000Y-118100000D03*
%TD*%
%TO.P,REF\u002A\u002A,1*%
%TO.N,N/C*%
X225100000Y-139500000D03*
D11*
%TO.P,REF\u002A\u002A,2*%
X225100000Y-142040000D03*
%TO.P,REF\u002A\u002A,3*%
X225100000Y-144580000D03*
%TD*%
D10*
%TO.P,REF\u002A\u002A,1*%
%TO.N,N/C*%
X169600000Y-118100000D03*
%TD*%
%TO.P,REF\u002A\u002A,1*%
%TO.N,N/C*%
X207475000Y-140800000D03*
D11*
%TO.P,REF\u002A\u002A,2*%
X204935000Y-140800000D03*
%TD*%
D12*
%TO.P,U1,1,GND*%
%TO.N,N/C*%
X182880000Y-121400000D03*
D13*
%TO.P,U1,2,3V3*%
X180340000Y-121400000D03*
%TO.P,U1,3,3V3*%
X177800000Y-121400000D03*
%TO.P,U1,4,IO2*%
X175260000Y-121400000D03*
%TO.P,U1,5,IO3*%
X172720000Y-121400000D03*
%TO.P,U1,6,GND*%
X170180000Y-121400000D03*
%TO.P,U1,7,RST*%
X167640000Y-121400000D03*
%TO.P,U1,8,GND*%
X165100000Y-121400000D03*
%TO.P,U1,9,IO0*%
X162560000Y-121400000D03*
%TO.P,U1,10,IO1*%
X160020000Y-121400000D03*
%TO.P,U1,11,IO10*%
X157480000Y-121400000D03*
%TO.P,U1,12,GND*%
X154940000Y-121400000D03*
%TO.P,U1,13,5V*%
X152400000Y-121400000D03*
%TO.P,U1,14,5V*%
X149860000Y-121400000D03*
%TO.P,U1,15,GND*%
X147320000Y-121400000D03*
%TO.P,U1,16,GND*%
X147320000Y-144260000D03*
%TO.P,U1,17,IO19*%
X149860000Y-144260000D03*
%TO.P,U1,18,IO18*%
X152400000Y-144260000D03*
%TO.P,U1,19,GND*%
X154940000Y-144260000D03*
%TO.P,U1,20,IO4*%
X157480000Y-144260000D03*
%TO.P,U1,21,IO5*%
X160020000Y-144260000D03*
%TO.P,U1,22,IO6*%
X162560000Y-144260000D03*
%TO.P,U1,23,IO7*%
X165100000Y-144260000D03*
%TO.P,U1,24,GND*%
X167640000Y-144260000D03*
%TO.P,U1,25,IO8*%
X170180000Y-144260000D03*
%TO.P,U1,26,IO9*%
X172720000Y-144260000D03*
%TO.P,U1,27,GND*%
X175260000Y-144260000D03*
%TO.P,U1,28,RX*%
X177800000Y-144260000D03*
%TO.P,U1,29,TX*%
X180340000Y-144260000D03*
%TO.P,U1,30,GND*%
X182880000Y-144260000D03*
%TD*%
D10*
%TO.P,REF\u002A\u002A,1*%
%TO.N,N/C*%
X158100000Y-151400000D03*
%TD*%
%TO.P,REF\u002A\u002A,1*%
%TO.N,N/C*%
X145450000Y-151400000D03*
%TD*%
D14*
%TO.P,REF\u002A\u002A,1*%
%TO.N,N/C*%
X200670000Y-126000000D03*
D15*
%TO.P,REF\u002A\u002A,2*%
X205750000Y-126000000D03*
%TD*%
D16*
%TO.P,REF\u002A\u002A,1*%
%TO.N,N/C*%
X210500000Y-126250000D03*
D17*
%TO.P,REF\u002A\u002A,2*%
X213040000Y-126250000D03*
%TD*%
D10*
%TO.P,REF\u002A\u002A,1*%
%TO.N,N/C*%
X155000000Y-147500000D03*
%TD*%
D18*
%TO.N,*%
X204400000Y-151300000D02*
X204400000Y-153500000D01*
X203900000Y-150800000D02*
X204400000Y-151300000D01*
X203900000Y-150800000D02*
X202180000Y-150800000D01*
X161700000Y-153500000D02*
X204400000Y-153500000D01*
X167300000Y-152200000D02*
X193160000Y-152200000D01*
X193160000Y-152200000D02*
X194560000Y-150800000D01*
X155100000Y-149300000D02*
X164400000Y-149300000D01*
X164400000Y-149300000D02*
X167300000Y-152200000D01*
X196900000Y-148900000D02*
X197100000Y-149100000D01*
X192400000Y-149300000D02*
X192800000Y-148900000D01*
X197100000Y-149100000D02*
X197100000Y-150800000D01*
X192800000Y-148900000D02*
X196900000Y-148900000D01*
X192400000Y-150100000D02*
X192400000Y-149300000D01*
X199640000Y-148440000D02*
X199640000Y-150800000D01*
X198900000Y-147700000D02*
X199640000Y-148440000D01*
X190000000Y-147900000D02*
X190200000Y-147700000D01*
X189100000Y-149600000D02*
X190000000Y-148700000D01*
X190200000Y-147700000D02*
X198900000Y-147700000D01*
X173100000Y-149600000D02*
X189100000Y-149600000D01*
X170180000Y-146680000D02*
X173100000Y-149600000D01*
X190000000Y-148700000D02*
X190000000Y-147900000D01*
X170180000Y-144260000D02*
X170180000Y-146680000D01*
X191700000Y-150800000D02*
X192400000Y-150100000D01*
X171000000Y-150800000D02*
X191700000Y-150800000D01*
X167640000Y-144260000D02*
X167640000Y-147440000D01*
X167640000Y-147440000D02*
X171000000Y-150800000D01*
X228200000Y-126550000D02*
X228200000Y-146800000D01*
X222200000Y-146800000D02*
X221750000Y-146350000D01*
X182880000Y-145730000D02*
X182880000Y-144260000D01*
X227900000Y-126250000D02*
X228200000Y-126550000D01*
X221750000Y-146350000D02*
X183500000Y-146350000D01*
X213040000Y-126250000D02*
X227900000Y-126250000D01*
X228200000Y-146800000D02*
X222200000Y-146800000D01*
X183500000Y-146350000D02*
X182880000Y-145730000D01*
X222720000Y-144580000D02*
X225100000Y-144580000D01*
X147050000Y-141100000D02*
X195600000Y-141100000D01*
X199500000Y-145000000D02*
X222300000Y-145000000D01*
X222300000Y-145000000D02*
X222720000Y-144580000D01*
X147050000Y-139550000D02*
X147050000Y-141100000D01*
X146050000Y-138550000D02*
X147050000Y-139550000D01*
X143700000Y-138550000D02*
X146050000Y-138550000D01*
X195600000Y-141100000D02*
X199500000Y-145000000D01*
X161700000Y-127300000D02*
X157800000Y-127300000D01*
X157800000Y-127300000D02*
X157480000Y-126980000D01*
X170300000Y-135900000D02*
X161700000Y-127300000D01*
X199400000Y-135900000D02*
X170300000Y-135900000D01*
X200800000Y-137300000D02*
X199400000Y-135900000D01*
X204600000Y-137300000D02*
X200800000Y-137300000D01*
X157480000Y-126980000D02*
X157480000Y-121400000D01*
X215040000Y-142040000D02*
X225100000Y-142040000D01*
X207100000Y-134100000D02*
X215040000Y-142040000D01*
X169300000Y-126700000D02*
X169300000Y-128000000D01*
X175400000Y-134100000D02*
X207100000Y-134100000D01*
X168600000Y-126000000D02*
X169300000Y-126700000D01*
X160020000Y-124920000D02*
X161100000Y-126000000D01*
X169300000Y-128000000D02*
X175400000Y-134100000D01*
X160020000Y-121400000D02*
X160020000Y-124920000D01*
X161100000Y-126000000D02*
X168600000Y-126000000D01*
X197500000Y-139300000D02*
X201640000Y-143440000D01*
X153400000Y-139300000D02*
X197500000Y-139300000D01*
X152550000Y-138450000D02*
X153400000Y-139300000D01*
X201640000Y-143440000D02*
X204835000Y-143440000D01*
X152550000Y-138300000D02*
X152550000Y-138450000D01*
X152400000Y-138150000D02*
X152550000Y-138300000D01*
X204835000Y-143440000D02*
X207475000Y-140800000D01*
X152400000Y-121400000D02*
X152400000Y-138150000D01*
X198700000Y-137700000D02*
X201900000Y-140900000D01*
X155150000Y-137700000D02*
X198700000Y-137700000D01*
X201900000Y-140900000D02*
X204600000Y-140900000D01*
X154940000Y-121400000D02*
X154940000Y-137490000D01*
X154940000Y-137490000D02*
X155150000Y-137700000D01*
X149800000Y-119100000D02*
X149860000Y-119040000D01*
X170180000Y-121400000D02*
X170180000Y-125730000D01*
X143700000Y-121900000D02*
X143700000Y-138550000D01*
X149860000Y-119040000D02*
X149860000Y-121400000D01*
X167640000Y-120060000D02*
X169600000Y-118100000D01*
X151100000Y-147500000D02*
X151100000Y-149300000D01*
X188350000Y-126050000D02*
X188350000Y-130550000D01*
X145450000Y-149350000D02*
X145450000Y-151400000D01*
X174200000Y-146300000D02*
X175400000Y-147500000D01*
X170500000Y-126050000D02*
X188350000Y-126050000D01*
X173100000Y-146300000D02*
X174200000Y-146300000D01*
X143700000Y-148900000D02*
X144150000Y-149350000D01*
X151100000Y-149300000D02*
X149500000Y-149300000D01*
X205750000Y-126000000D02*
X210250000Y-126000000D01*
X158000000Y-153500000D02*
X161700000Y-153500000D01*
X158100000Y-151400000D02*
X158100000Y-153400000D01*
X155100000Y-149300000D02*
X151100000Y-149300000D01*
X190300000Y-132500000D02*
X210500000Y-132500000D01*
X219900000Y-130000000D02*
X220100000Y-129800000D01*
X180340000Y-147160000D02*
X180000000Y-147500000D01*
X180340000Y-144260000D02*
X180340000Y-147160000D01*
X162200000Y-121040000D02*
X162560000Y-121400000D01*
X143700000Y-138550000D02*
X143700000Y-148900000D01*
X149500000Y-151450000D02*
X149500000Y-153400000D01*
X155000000Y-147500000D02*
X155000000Y-149200000D01*
X162200000Y-118100000D02*
X162200000Y-121040000D01*
X196400000Y-128400000D02*
X198000000Y-130000000D01*
X199450000Y-116200000D02*
X195300000Y-116200000D01*
X149600000Y-153500000D02*
X143900000Y-153500000D01*
X147300000Y-149300000D02*
X145500000Y-149300000D01*
X191200000Y-116200000D02*
X152700000Y-116200000D01*
X154000000Y-153500000D02*
X158000000Y-153500000D01*
X217300000Y-139300000D02*
X221200000Y-139300000D01*
X172720000Y-145920000D02*
X173100000Y-146300000D01*
X142000000Y-120800000D02*
X143700000Y-119100000D01*
X225100000Y-131600000D02*
X225100000Y-139500000D01*
X142000000Y-151600000D02*
X142000000Y-120800000D01*
X143900000Y-153500000D02*
X142000000Y-151600000D01*
X210500000Y-132500000D02*
X217300000Y-139300000D01*
X220100000Y-129800000D02*
X223300000Y-129800000D01*
X158100000Y-153400000D02*
X158000000Y-153500000D01*
X161700000Y-151400000D02*
X161700000Y-153500000D01*
X143700000Y-119100000D02*
X149800000Y-119100000D01*
X154050000Y-151350000D02*
X154050000Y-153450000D01*
X196400000Y-117300000D02*
X196400000Y-128400000D01*
X188350000Y-130550000D02*
X190300000Y-132500000D01*
X154050000Y-153450000D02*
X154000000Y-153500000D01*
X180000000Y-147500000D02*
X177940000Y-147500000D01*
X195300000Y-116200000D02*
X191200000Y-116200000D01*
X144200000Y-121400000D02*
X147320000Y-121400000D01*
X149500000Y-153400000D02*
X149600000Y-153500000D01*
X200670000Y-126000000D02*
X200670000Y-117420000D01*
X198000000Y-130000000D02*
X219900000Y-130000000D01*
X195300000Y-116200000D02*
X196400000Y-117300000D01*
X145500000Y-149300000D02*
X145450000Y-149350000D01*
X170180000Y-125730000D02*
X170500000Y-126050000D01*
X165100000Y-118900000D02*
X165100000Y-121400000D01*
X223300000Y-129800000D02*
X225100000Y-131600000D01*
X165900000Y-118100000D02*
X165100000Y-118900000D01*
X154000000Y-153500000D02*
X149600000Y-153500000D01*
X200670000Y-117420000D02*
X199450000Y-116200000D01*
X144150000Y-149350000D02*
X145450000Y-149350000D01*
X149500000Y-149300000D02*
X147300000Y-149300000D01*
X155000000Y-149200000D02*
X155100000Y-149300000D01*
X167640000Y-121400000D02*
X167640000Y-120060000D01*
X152700000Y-116200000D02*
X149860000Y-119040000D01*
X172720000Y-144260000D02*
X172720000Y-145920000D01*
X210250000Y-126000000D02*
X210500000Y-126250000D01*
X143700000Y-121900000D02*
X144200000Y-121400000D01*
X147300000Y-147500000D02*
X147300000Y-149300000D01*
%TD*%
M02*
