M48
; DRILL file {KiCad 9.0.1} date 2025-04-22T17:48:12+0300
; FORMAT={-:-/ absolute / metric / decimal}
; #@! TF.CreationDate,2025-04-22T17:48:12+03:00
; #@! TF.GenerationSoftware,Kicad,Pcbnew,9.0.1
; #@! TF.FileFunction,Plated,1,2,PTH
FMAT,2
METRIC
; #@! TA.AperFunction,Plated,PTH,ComponentDrill
T1C0.900
; #@! TA.AperFunction,Plated,PTH,ComponentDrill
T2C1.000
; #@! TA.AperFunction,Plated,PTH,ComponentDrill
T3C1.200
%
G90
G05
T1
X147.32Y-121.4
X147.32Y-144.26
X149.86Y-121.4
X149.86Y-144.26
X152.4Y-121.4
X152.4Y-144.26
X154.94Y-121.4
X154.94Y-144.26
X157.48Y-121.4
X157.48Y-144.26
X160.02Y-121.4
X160.02Y-144.26
X162.56Y-121.4
X162.56Y-144.26
X165.1Y-121.4
X165.1Y-144.26
X167.64Y-121.4
X167.64Y-144.26
X170.18Y-121.4
X170.18Y-144.26
X172.72Y-121.4
X172.72Y-144.26
X175.26Y-121.4
X175.26Y-144.26
X177.8Y-121.4
X177.8Y-144.26
X180.34Y-121.4
X180.34Y-144.26
X182.88Y-121.4
X182.88Y-144.26
X210.5Y-126.25
X213.04Y-126.25
T2
X145.45Y-151.4
X147.3Y-147.5
X149.5Y-151.45
X151.1Y-147.5
X154.05Y-151.35
X155.0Y-147.5
X158.1Y-151.4
X161.7Y-151.4
X162.2Y-118.1
X165.9Y-118.1
X169.6Y-118.1
X175.4Y-147.5
X177.94Y-147.5
X194.56Y-150.8
X197.1Y-150.8
X199.64Y-150.8
X202.18Y-150.8
X204.6Y-137.3
X204.935Y-140.8
X207.475Y-140.8
X221.2Y-139.3
X225.1Y-139.5
X225.1Y-142.04
X225.1Y-144.58
T3
X200.67Y-126.0
X205.75Y-126.0
M30
