%TF.GenerationSoftware,KiCad,Pcbnew,9.0.1*%
%TF.CreationDate,2025-04-22T17:47:58+03:00*%
%TF.ProjectId,plata,706c6174-612e-46b6-9963-61645f706362,rev?*%
%TF.SameCoordinates,Original*%
%TF.FileFunction,Copper,L2,Bot*%
%TF.FilePolarity,Positive*%
%FSLAX46Y46*%
G04 Gerber Fmt 4.6, Leading zero omitted, Abs format (unit mm)*
G04 Created by KiCad (PCBNEW 9.0.1) date 2025-04-22 17:47:58*
%MOMM*%
%LPD*%
G01*
G04 APERTURE LIST*
%TA.AperFunction,ComponentPad*%
%ADD10R,1.700000X1.700000*%
%TD*%
%TA.AperFunction,ComponentPad*%
%ADD11C,1.700000*%
%TD*%
%TA.AperFunction,ComponentPad*%
%ADD12R,1.500000X1.500000*%
%TD*%
%TA.AperFunction,ComponentPad*%
%ADD13C,1.500000*%
%TD*%
%TA.AperFunction,ComponentPad*%
%ADD14C,2.400000*%
%TD*%
%TA.AperFunction,ComponentPad*%
%ADD15O,2.400000X2.400000*%
%TD*%
%TA.AperFunction,ComponentPad*%
%ADD16R,1.800000X1.800000*%
%TD*%
%TA.AperFunction,ComponentPad*%
%ADD17C,1.800000*%
%TD*%
G04 APERTURE END LIST*
D10*
%TO.P,REF\u002A\u002A,1*%
%TO.N,N/C*%
X194560000Y-150800000D03*
D11*
%TO.P,REF\u002A\u002A,2*%
X197100000Y-150800000D03*
%TO.P,REF\u002A\u002A,3*%
X199640000Y-150800000D03*
%TO.P,REF\u002A\u002A,4*%
X202180000Y-150800000D03*
%TD*%
D10*
%TO.P,REF\u002A\u002A,1*%
%TO.N,N/C*%
X221200000Y-139300000D03*
%TD*%
%TO.P,REF\u002A\u002A,1*%
%TO.N,N/C*%
X161700000Y-151400000D03*
%TD*%
%TO.P,REF\u002A\u002A,1*%
%TO.N,N/C*%
X149500000Y-151450000D03*
%TD*%
%TO.P,REF\u002A\u002A,1*%
%TO.N,N/C*%
X147300000Y-147500000D03*
%TD*%
%TO.P,REF\u002A\u002A,1*%
%TO.N,N/C*%
X177940000Y-147500000D03*
D11*
%TO.P,REF\u002A\u002A,2*%
X175400000Y-147500000D03*
%TD*%
D10*
%TO.P,REF\u002A\u002A,1*%
%TO.N,N/C*%
X162200000Y-118100000D03*
%TD*%
%TO.P,REF\u002A\u002A,1*%
%TO.N,N/C*%
X154050000Y-151350000D03*
%TD*%
%TO.P,REF\u002A\u002A,1*%
%TO.N,N/C*%
X204600000Y-137300000D03*
%TD*%
%TO.P,REF\u002A\u002A,1*%
%TO.N,N/C*%
X151100000Y-147500000D03*
%TD*%
%TO.P,REF\u002A\u002A,1*%
%TO.N,N/C*%
X165900000Y-118100000D03*
%TD*%
%TO.P,REF\u002A\u002A,1*%
%TO.N,N/C*%
X225100000Y-139500000D03*
D11*
%TO.P,REF\u002A\u002A,2*%
X225100000Y-142040000D03*
%TO.P,REF\u002A\u002A,3*%
X225100000Y-144580000D03*
%TD*%
D10*
%TO.P,REF\u002A\u002A,1*%
%TO.N,N/C*%
X169600000Y-118100000D03*
%TD*%
%TO.P,REF\u002A\u002A,1*%
%TO.N,N/C*%
X207475000Y-140800000D03*
D11*
%TO.P,REF\u002A\u002A,2*%
X204935000Y-140800000D03*
%TD*%
D12*
%TO.P,U1,1,GND*%
%TO.N,N/C*%
X182880000Y-121400000D03*
D13*
%TO.P,U1,2,3V3*%
X180340000Y-121400000D03*
%TO.P,U1,3,3V3*%
X177800000Y-121400000D03*
%TO.P,U1,4,IO2*%
X175260000Y-121400000D03*
%TO.P,U1,5,IO3*%
X172720000Y-121400000D03*
%TO.P,U1,6,GND*%
X170180000Y-121400000D03*
%TO.P,U1,7,RST*%
X167640000Y-121400000D03*
%TO.P,U1,8,GND*%
X165100000Y-121400000D03*
%TO.P,U1,9,IO0*%
X162560000Y-121400000D03*
%TO.P,U1,10,IO1*%
X160020000Y-121400000D03*
%TO.P,U1,11,IO10*%
X157480000Y-121400000D03*
%TO.P,U1,12,GND*%
X154940000Y-121400000D03*
%TO.P,U1,13,5V*%
X152400000Y-121400000D03*
%TO.P,U1,14,5V*%
X149860000Y-121400000D03*
%TO.P,U1,15,GND*%
X147320000Y-121400000D03*
%TO.P,U1,16,GND*%
X147320000Y-144260000D03*
%TO.P,U1,17,IO19*%
X149860000Y-144260000D03*
%TO.P,U1,18,IO18*%
X152400000Y-144260000D03*
%TO.P,U1,19,GND*%
X154940000Y-144260000D03*
%TO.P,U1,20,IO4*%
X157480000Y-144260000D03*
%TO.P,U1,21,IO5*%
X160020000Y-144260000D03*
%TO.P,U1,22,IO6*%
X162560000Y-144260000D03*
%TO.P,U1,23,IO7*%
X165100000Y-144260000D03*
%TO.P,U1,24,GND*%
X167640000Y-144260000D03*
%TO.P,U1,25,IO8*%
X170180000Y-144260000D03*
%TO.P,U1,26,IO9*%
X172720000Y-144260000D03*
%TO.P,U1,27,GND*%
X175260000Y-144260000D03*
%TO.P,U1,28,RX*%
X177800000Y-144260000D03*
%TO.P,U1,29,TX*%
X180340000Y-144260000D03*
%TO.P,U1,30,GND*%
X182880000Y-144260000D03*
%TD*%
D10*
%TO.P,REF\u002A\u002A,1*%
%TO.N,N/C*%
X158100000Y-151400000D03*
%TD*%
%TO.P,REF\u002A\u002A,1*%
%TO.N,N/C*%
X145450000Y-151400000D03*
%TD*%
D14*
%TO.P,REF\u002A\u002A,1*%
%TO.N,N/C*%
X200670000Y-126000000D03*
D15*
%TO.P,REF\u002A\u002A,2*%
X205750000Y-126000000D03*
%TD*%
D16*
%TO.P,REF\u002A\u002A,1*%
%TO.N,N/C*%
X210500000Y-126250000D03*
D17*
%TO.P,REF\u002A\u002A,2*%
X213040000Y-126250000D03*
%TD*%
D10*
%TO.P,REF\u002A\u002A,1*%
%TO.N,N/C*%
X155000000Y-147500000D03*
%TD*%
M02*
