%TF.GenerationSoftware,KiCad,Pcbnew,9.0.1*%
%TF.CreationDate,2025-05-06T12:48:32+03:00*%
%TF.ProjectId,plata_dat,706c6174-615f-4646-9174-2e6b69636164,rev?*%
%TF.SameCoordinates,Original*%
%TF.FileFunction,Legend,Top*%
%TF.FilePolarity,Positive*%
%FSLAX46Y46*%
G04 Gerber Fmt 4.6, Leading zero omitted, Abs format (unit mm)*
G04 Created by KiCad (PCBNEW 9.0.1) date 2025-05-06 12:48:32*
%MOMM*%
%LPD*%
G01*
G04 APERTURE LIST*
%ADD10C,0.150000*%
%ADD11C,0.120000*%
G04 APERTURE END LIST*
D10*
X187311666Y-87444819D02*
X186978333Y-86968628D01*
X186740238Y-87444819D02*
X186740238Y-86444819D01*
X186740238Y-86444819D02*
X187121190Y-86444819D01*
X187121190Y-86444819D02*
X187216428Y-86492438D01*
X187216428Y-86492438D02*
X187264047Y-86540057D01*
X187264047Y-86540057D02*
X187311666Y-86635295D01*
X187311666Y-86635295D02*
X187311666Y-86778152D01*
X187311666Y-86778152D02*
X187264047Y-86873390D01*
X187264047Y-86873390D02*
X187216428Y-86921009D01*
X187216428Y-86921009D02*
X187121190Y-86968628D01*
X187121190Y-86968628D02*
X186740238Y-86968628D01*
X187740238Y-86921009D02*
X188073571Y-86921009D01*
X188216428Y-87444819D02*
X187740238Y-87444819D01*
X187740238Y-87444819D02*
X187740238Y-86444819D01*
X187740238Y-86444819D02*
X188216428Y-86444819D01*
X188978333Y-86921009D02*
X188645000Y-86921009D01*
X188645000Y-87444819D02*
X188645000Y-86444819D01*
X188645000Y-86444819D02*
X189121190Y-86444819D01*
X189645000Y-86444819D02*
X189645000Y-86682914D01*
X189406905Y-86587676D02*
X189645000Y-86682914D01*
X189645000Y-86682914D02*
X189883095Y-86587676D01*
X189502143Y-86873390D02*
X189645000Y-86682914D01*
X189645000Y-86682914D02*
X189787857Y-86873390D01*
X190406905Y-86444819D02*
X190406905Y-86682914D01*
X190168810Y-86587676D02*
X190406905Y-86682914D01*
X190406905Y-86682914D02*
X190645000Y-86587676D01*
X190264048Y-86873390D02*
X190406905Y-86682914D01*
X190406905Y-86682914D02*
X190549762Y-86873390D01*
X187909819Y-61433333D02*
X187433628Y-61766666D01*
X187909819Y-62004761D02*
X186909819Y-62004761D01*
X186909819Y-62004761D02*
X186909819Y-61623809D01*
X186909819Y-61623809D02*
X186957438Y-61528571D01*
X186957438Y-61528571D02*
X187005057Y-61480952D01*
X187005057Y-61480952D02*
X187100295Y-61433333D01*
X187100295Y-61433333D02*
X187243152Y-61433333D01*
X187243152Y-61433333D02*
X187338390Y-61480952D01*
X187338390Y-61480952D02*
X187386009Y-61528571D01*
X187386009Y-61528571D02*
X187433628Y-61623809D01*
X187433628Y-61623809D02*
X187433628Y-62004761D01*
X187386009Y-61004761D02*
X187386009Y-60671428D01*
X187909819Y-60528571D02*
X187909819Y-61004761D01*
X187909819Y-61004761D02*
X186909819Y-61004761D01*
X186909819Y-61004761D02*
X186909819Y-60528571D01*
X187386009Y-59766666D02*
X187386009Y-60099999D01*
X187909819Y-60099999D02*
X186909819Y-60099999D01*
X186909819Y-60099999D02*
X186909819Y-59623809D01*
X186909819Y-59099999D02*
X187147914Y-59099999D01*
X187052676Y-59338094D02*
X187147914Y-59099999D01*
X187147914Y-59099999D02*
X187052676Y-58861904D01*
X187338390Y-59242856D02*
X187147914Y-59099999D01*
X187147914Y-59099999D02*
X187338390Y-58957142D01*
X186909819Y-58338094D02*
X187147914Y-58338094D01*
X187052676Y-58576189D02*
X187147914Y-58338094D01*
X187147914Y-58338094D02*
X187052676Y-58099999D01*
X187338390Y-58480951D02*
X187147914Y-58338094D01*
X187147914Y-58338094D02*
X187338390Y-58195237D01*
X167437319Y-74083333D02*
X166961128Y-74416666D01*
X167437319Y-74654761D02*
X166437319Y-74654761D01*
X166437319Y-74654761D02*
X166437319Y-74273809D01*
X166437319Y-74273809D02*
X166484938Y-74178571D01*
X166484938Y-74178571D02*
X166532557Y-74130952D01*
X166532557Y-74130952D02*
X166627795Y-74083333D01*
X166627795Y-74083333D02*
X166770652Y-74083333D01*
X166770652Y-74083333D02*
X166865890Y-74130952D01*
X166865890Y-74130952D02*
X166913509Y-74178571D01*
X166913509Y-74178571D02*
X166961128Y-74273809D01*
X166961128Y-74273809D02*
X166961128Y-74654761D01*
X166913509Y-73654761D02*
X166913509Y-73321428D01*
X167437319Y-73178571D02*
X167437319Y-73654761D01*
X167437319Y-73654761D02*
X166437319Y-73654761D01*
X166437319Y-73654761D02*
X166437319Y-73178571D01*
X166913509Y-72416666D02*
X166913509Y-72749999D01*
X167437319Y-72749999D02*
X166437319Y-72749999D01*
X166437319Y-72749999D02*
X166437319Y-72273809D01*
X166437319Y-71749999D02*
X166675414Y-71749999D01*
X166580176Y-71988094D02*
X166675414Y-71749999D01*
X166675414Y-71749999D02*
X166580176Y-71511904D01*
X166865890Y-71892856D02*
X166675414Y-71749999D01*
X166675414Y-71749999D02*
X166865890Y-71607142D01*
X166437319Y-70988094D02*
X166675414Y-70988094D01*
X166580176Y-71226189D02*
X166675414Y-70988094D01*
X166675414Y-70988094D02*
X166580176Y-70749999D01*
X166865890Y-71130951D02*
X166675414Y-70988094D01*
X166675414Y-70988094D02*
X166865890Y-70845237D01*
X157759166Y-88394819D02*
X157425833Y-87918628D01*
X157187738Y-88394819D02*
X157187738Y-87394819D01*
X157187738Y-87394819D02*
X157568690Y-87394819D01*
X157568690Y-87394819D02*
X157663928Y-87442438D01*
X157663928Y-87442438D02*
X157711547Y-87490057D01*
X157711547Y-87490057D02*
X157759166Y-87585295D01*
X157759166Y-87585295D02*
X157759166Y-87728152D01*
X157759166Y-87728152D02*
X157711547Y-87823390D01*
X157711547Y-87823390D02*
X157663928Y-87871009D01*
X157663928Y-87871009D02*
X157568690Y-87918628D01*
X157568690Y-87918628D02*
X157187738Y-87918628D01*
X158187738Y-87871009D02*
X158521071Y-87871009D01*
X158663928Y-88394819D02*
X158187738Y-88394819D01*
X158187738Y-88394819D02*
X158187738Y-87394819D01*
X158187738Y-87394819D02*
X158663928Y-87394819D01*
X159425833Y-87871009D02*
X159092500Y-87871009D01*
X159092500Y-88394819D02*
X159092500Y-87394819D01*
X159092500Y-87394819D02*
X159568690Y-87394819D01*
X160092500Y-87394819D02*
X160092500Y-87632914D01*
X159854405Y-87537676D02*
X160092500Y-87632914D01*
X160092500Y-87632914D02*
X160330595Y-87537676D01*
X159949643Y-87823390D02*
X160092500Y-87632914D01*
X160092500Y-87632914D02*
X160235357Y-87823390D01*
X160854405Y-87394819D02*
X160854405Y-87632914D01*
X160616310Y-87537676D02*
X160854405Y-87632914D01*
X160854405Y-87632914D02*
X161092500Y-87537676D01*
X160711548Y-87823390D02*
X160854405Y-87632914D01*
X160854405Y-87632914D02*
X160997262Y-87823390D01*
X152559166Y-88394819D02*
X152225833Y-87918628D01*
X151987738Y-88394819D02*
X151987738Y-87394819D01*
X151987738Y-87394819D02*
X152368690Y-87394819D01*
X152368690Y-87394819D02*
X152463928Y-87442438D01*
X152463928Y-87442438D02*
X152511547Y-87490057D01*
X152511547Y-87490057D02*
X152559166Y-87585295D01*
X152559166Y-87585295D02*
X152559166Y-87728152D01*
X152559166Y-87728152D02*
X152511547Y-87823390D01*
X152511547Y-87823390D02*
X152463928Y-87871009D01*
X152463928Y-87871009D02*
X152368690Y-87918628D01*
X152368690Y-87918628D02*
X151987738Y-87918628D01*
X152987738Y-87871009D02*
X153321071Y-87871009D01*
X153463928Y-88394819D02*
X152987738Y-88394819D01*
X152987738Y-88394819D02*
X152987738Y-87394819D01*
X152987738Y-87394819D02*
X153463928Y-87394819D01*
X154225833Y-87871009D02*
X153892500Y-87871009D01*
X153892500Y-88394819D02*
X153892500Y-87394819D01*
X153892500Y-87394819D02*
X154368690Y-87394819D01*
X154892500Y-87394819D02*
X154892500Y-87632914D01*
X154654405Y-87537676D02*
X154892500Y-87632914D01*
X154892500Y-87632914D02*
X155130595Y-87537676D01*
X154749643Y-87823390D02*
X154892500Y-87632914D01*
X154892500Y-87632914D02*
X155035357Y-87823390D01*
X155654405Y-87394819D02*
X155654405Y-87632914D01*
X155416310Y-87537676D02*
X155654405Y-87632914D01*
X155654405Y-87632914D02*
X155892500Y-87537676D01*
X155511548Y-87823390D02*
X155654405Y-87632914D01*
X155654405Y-87632914D02*
X155797262Y-87823390D01*
X175654166Y-70254819D02*
X175320833Y-69778628D01*
X175082738Y-70254819D02*
X175082738Y-69254819D01*
X175082738Y-69254819D02*
X175463690Y-69254819D01*
X175463690Y-69254819D02*
X175558928Y-69302438D01*
X175558928Y-69302438D02*
X175606547Y-69350057D01*
X175606547Y-69350057D02*
X175654166Y-69445295D01*
X175654166Y-69445295D02*
X175654166Y-69588152D01*
X175654166Y-69588152D02*
X175606547Y-69683390D01*
X175606547Y-69683390D02*
X175558928Y-69731009D01*
X175558928Y-69731009D02*
X175463690Y-69778628D01*
X175463690Y-69778628D02*
X175082738Y-69778628D01*
X176082738Y-69731009D02*
X176416071Y-69731009D01*
X176558928Y-70254819D02*
X176082738Y-70254819D01*
X176082738Y-70254819D02*
X176082738Y-69254819D01*
X176082738Y-69254819D02*
X176558928Y-69254819D01*
X177320833Y-69731009D02*
X176987500Y-69731009D01*
X176987500Y-70254819D02*
X176987500Y-69254819D01*
X176987500Y-69254819D02*
X177463690Y-69254819D01*
X177987500Y-69254819D02*
X177987500Y-69492914D01*
X177749405Y-69397676D02*
X177987500Y-69492914D01*
X177987500Y-69492914D02*
X178225595Y-69397676D01*
X177844643Y-69683390D02*
X177987500Y-69492914D01*
X177987500Y-69492914D02*
X178130357Y-69683390D01*
X178749405Y-69254819D02*
X178749405Y-69492914D01*
X178511310Y-69397676D02*
X178749405Y-69492914D01*
X178749405Y-69492914D02*
X178987500Y-69397676D01*
X178606548Y-69683390D02*
X178749405Y-69492914D01*
X178749405Y-69492914D02*
X178892262Y-69683390D01*
X163349166Y-64374819D02*
X163015833Y-63898628D01*
X162777738Y-64374819D02*
X162777738Y-63374819D01*
X162777738Y-63374819D02*
X163158690Y-63374819D01*
X163158690Y-63374819D02*
X163253928Y-63422438D01*
X163253928Y-63422438D02*
X163301547Y-63470057D01*
X163301547Y-63470057D02*
X163349166Y-63565295D01*
X163349166Y-63565295D02*
X163349166Y-63708152D01*
X163349166Y-63708152D02*
X163301547Y-63803390D01*
X163301547Y-63803390D02*
X163253928Y-63851009D01*
X163253928Y-63851009D02*
X163158690Y-63898628D01*
X163158690Y-63898628D02*
X162777738Y-63898628D01*
X163777738Y-63851009D02*
X164111071Y-63851009D01*
X164253928Y-64374819D02*
X163777738Y-64374819D01*
X163777738Y-64374819D02*
X163777738Y-63374819D01*
X163777738Y-63374819D02*
X164253928Y-63374819D01*
X165015833Y-63851009D02*
X164682500Y-63851009D01*
X164682500Y-64374819D02*
X164682500Y-63374819D01*
X164682500Y-63374819D02*
X165158690Y-63374819D01*
X165682500Y-63374819D02*
X165682500Y-63612914D01*
X165444405Y-63517676D02*
X165682500Y-63612914D01*
X165682500Y-63612914D02*
X165920595Y-63517676D01*
X165539643Y-63803390D02*
X165682500Y-63612914D01*
X165682500Y-63612914D02*
X165825357Y-63803390D01*
X166444405Y-63374819D02*
X166444405Y-63612914D01*
X166206310Y-63517676D02*
X166444405Y-63612914D01*
X166444405Y-63612914D02*
X166682500Y-63517676D01*
X166301548Y-63803390D02*
X166444405Y-63612914D01*
X166444405Y-63612914D02*
X166587262Y-63803390D01*
X153257319Y-62633333D02*
X152781128Y-62966666D01*
X153257319Y-63204761D02*
X152257319Y-63204761D01*
X152257319Y-63204761D02*
X152257319Y-62823809D01*
X152257319Y-62823809D02*
X152304938Y-62728571D01*
X152304938Y-62728571D02*
X152352557Y-62680952D01*
X152352557Y-62680952D02*
X152447795Y-62633333D01*
X152447795Y-62633333D02*
X152590652Y-62633333D01*
X152590652Y-62633333D02*
X152685890Y-62680952D01*
X152685890Y-62680952D02*
X152733509Y-62728571D01*
X152733509Y-62728571D02*
X152781128Y-62823809D01*
X152781128Y-62823809D02*
X152781128Y-63204761D01*
X152733509Y-62204761D02*
X152733509Y-61871428D01*
X153257319Y-61728571D02*
X153257319Y-62204761D01*
X153257319Y-62204761D02*
X152257319Y-62204761D01*
X152257319Y-62204761D02*
X152257319Y-61728571D01*
X152733509Y-60966666D02*
X152733509Y-61299999D01*
X153257319Y-61299999D02*
X152257319Y-61299999D01*
X152257319Y-61299999D02*
X152257319Y-60823809D01*
X152257319Y-60299999D02*
X152495414Y-60299999D01*
X152400176Y-60538094D02*
X152495414Y-60299999D01*
X152495414Y-60299999D02*
X152400176Y-60061904D01*
X152685890Y-60442856D02*
X152495414Y-60299999D01*
X152495414Y-60299999D02*
X152685890Y-60157142D01*
X152257319Y-59538094D02*
X152495414Y-59538094D01*
X152400176Y-59776189D02*
X152495414Y-59538094D01*
X152495414Y-59538094D02*
X152400176Y-59299999D01*
X152685890Y-59680951D02*
X152495414Y-59538094D01*
X152495414Y-59538094D02*
X152685890Y-59395237D01*
X156217319Y-67633333D02*
X155741128Y-67966666D01*
X156217319Y-68204761D02*
X155217319Y-68204761D01*
X155217319Y-68204761D02*
X155217319Y-67823809D01*
X155217319Y-67823809D02*
X155264938Y-67728571D01*
X155264938Y-67728571D02*
X155312557Y-67680952D01*
X155312557Y-67680952D02*
X155407795Y-67633333D01*
X155407795Y-67633333D02*
X155550652Y-67633333D01*
X155550652Y-67633333D02*
X155645890Y-67680952D01*
X155645890Y-67680952D02*
X155693509Y-67728571D01*
X155693509Y-67728571D02*
X155741128Y-67823809D01*
X155741128Y-67823809D02*
X155741128Y-68204761D01*
X155693509Y-67204761D02*
X155693509Y-66871428D01*
X156217319Y-66728571D02*
X156217319Y-67204761D01*
X156217319Y-67204761D02*
X155217319Y-67204761D01*
X155217319Y-67204761D02*
X155217319Y-66728571D01*
X155693509Y-65966666D02*
X155693509Y-66299999D01*
X156217319Y-66299999D02*
X155217319Y-66299999D01*
X155217319Y-66299999D02*
X155217319Y-65823809D01*
X155217319Y-65299999D02*
X155455414Y-65299999D01*
X155360176Y-65538094D02*
X155455414Y-65299999D01*
X155455414Y-65299999D02*
X155360176Y-65061904D01*
X155645890Y-65442856D02*
X155455414Y-65299999D01*
X155455414Y-65299999D02*
X155645890Y-65157142D01*
X155217319Y-64538094D02*
X155455414Y-64538094D01*
X155360176Y-64776189D02*
X155455414Y-64538094D01*
X155455414Y-64538094D02*
X155360176Y-64299999D01*
X155645890Y-64680951D02*
X155455414Y-64538094D01*
X155455414Y-64538094D02*
X155645890Y-64395237D01*
D11*
%TO.C,REF\u002A\u002A*%
X167982500Y-73860000D02*
X167982500Y-72750000D01*
X169092500Y-73860000D02*
X167982500Y-73860000D01*
X170092500Y-73860000D02*
X172202500Y-73860000D01*
X170092500Y-73860000D02*
X170092500Y-71640000D01*
X172202500Y-73860000D02*
X172202500Y-71640000D01*
X170092500Y-71640000D02*
X172202500Y-71640000D01*
X157982500Y-88940000D02*
X159092500Y-88940000D01*
X157982500Y-90050000D02*
X157982500Y-88940000D01*
X157982500Y-91050000D02*
X157982500Y-91160000D01*
X157982500Y-91050000D02*
X160202500Y-91050000D01*
X157982500Y-91160000D02*
X160202500Y-91160000D01*
X160202500Y-91050000D02*
X160202500Y-91160000D01*
X152782500Y-88940000D02*
X153892500Y-88940000D01*
X152782500Y-90050000D02*
X152782500Y-88940000D01*
X152782500Y-91050000D02*
X152782500Y-91160000D01*
X152782500Y-91050000D02*
X155002500Y-91050000D01*
X152782500Y-91160000D02*
X155002500Y-91160000D01*
X155002500Y-91050000D02*
X155002500Y-91160000D01*
X174427500Y-71255000D02*
X174427500Y-74345000D01*
X174427500Y-71255170D02*
G75*
G02*
X179977500Y-72799952I2560000J-1544830D01*
G01*
X179977500Y-72800048D02*
G75*
G02*
X174427500Y-74344830I-2990000J48D01*
G01*
X179487500Y-72800000D02*
G75*
G02*
X174487500Y-72800000I-2500000J0D01*
G01*
X174487500Y-72800000D02*
G75*
G02*
X179487500Y-72800000I2500000J0D01*
G01*
X163302500Y-64920000D02*
X164682500Y-64920000D01*
X163302500Y-66300000D02*
X163302500Y-64920000D01*
X163302500Y-67570000D02*
X163302500Y-67680000D01*
X163302500Y-67570000D02*
X166062500Y-67570000D01*
X163302500Y-67680000D02*
X166062500Y-67680000D01*
X166062500Y-67570000D02*
X166062500Y-67680000D01*
X153802500Y-62680000D02*
X153802500Y-61300000D01*
X155182500Y-62680000D02*
X153802500Y-62680000D01*
X156452500Y-59920000D02*
X164182500Y-59920000D01*
X156452500Y-62680000D02*
X156452500Y-59920000D01*
X156452500Y-62680000D02*
X164182500Y-62680000D01*
X164182500Y-62680000D02*
X164182500Y-59920000D01*
X156762500Y-67680000D02*
X156762500Y-66300000D01*
X158142500Y-67680000D02*
X156762500Y-67680000D01*
X159412500Y-64920000D02*
X162062500Y-64920000D01*
X159412500Y-67680000D02*
X159412500Y-64920000D01*
X159412500Y-67680000D02*
X162062500Y-67680000D01*
X162062500Y-67680000D02*
X162062500Y-64920000D01*
%TD*%
M02*
