  0
SECTION
  2
HEADER
  9
$ACADVER
  1
AC1014
  9
$ACADMAINTVER
 70
     9
  9
$DWGCODEPAGE
  3
ANSI_1251
  9
$INSBASE
 10
0.0
 20
0.0
 30
0.0
  9
$EXTMIN
 10
-116.0780855852
 20
-140.9630178874
 30
0.0
  9
$EXTMAX
 10
127.9219144148
 20
-34.9630178874
 30
0.0
  9
$LIMMIN
 10
0.0
 20
0.0
  9
$LIMMAX
 10
420.0
 20
297.0
  9
$ORTHOMODE
 70
     0
  9
$REGENMODE
 70
     1
  9
$FILLMODE
 70
     1
  9
$QTEXTMODE
 70
     0
  9
$MIRRTEXT
 70
     1
  9
$DRAGMODE
 70
     2
  9
$LTSCALE
 40
1.0
  9
$OSMODE
 70
    37
  9
$ATTMODE
 70
     1
  9
$TEXTSIZE
 40
4.0
  9
$TRACEWID
 40
1.0
  9
$TEXTSTYLE
  7
STANDARD
  9
$CLAYER
  8
0
  9
$CELTYPE
  6
BYLAYER
  9
$CECOLOR
 62
   256
  9
$CELTSCALE
 40
1.0
  9
$DELOBJ
 70
     1
  9
$DISPSILH
 70
     0
  9
$DIMSCALE
 40
1.0
  9
$DIMASZ
 40
6.0
  9
$DIMEXO
 40
0.0
  9
$DIMDLI
 40
3.75
  9
$DIMRND
 40
0.0
  9
$DIMDLE
 40
0.0
  9
$DIMEXE
 40
1.0
  9
$DIMTP
 40
0.0
  9
$DIMTM
 40
0.0
  9
$DIMTXT
 40
4.0
  9
$DIMCEN
 40
2.5
  9
$DIMTSZ
 40
0.0
  9
$DIMTOL
 70
     0
  9
$DIMLIM
 70
     0
  9
$DIMTIH
 70
     1
  9
$DIMTOH
 70
     1
  9
$DIMSE1
 70
     0
  9
$DIMSE2
 70
     0
  9
$DIMTAD
 70
     1
  9
$DIMZIN
 70
     0
  9
$DIMBLK
  1

  9
$DIMASO
 70
     1
  9
$DIMSHO
 70
     1
  9
$DIMPOST
  1

  9
$DIMAPOST
  1

  9
$DIMALT
 70
     0
  9
$DIMALTD
 70
     3
  9
$DIMALTF
 40
0.0393700787
  9
$DIMLFAC
 40
1.0
  9
$DIMTOFL
 70
     1
  9
$DIMTVP
 40
0.0
  9
$DIMTIX
 70
     0
  9
$DIMSOXD
 70
     0
  9
$DIMSAH
 70
     0
  9
$DIMBLK1
  1

  9
$DIMBLK2
  1

  9
$DIMSTYLE
  2
ISO-25
  9
$DIMCLRD
 70
     0
  9
$DIMCLRE
 70
     0
  9
$DIMCLRT
 70
     0
  9
$DIMTFAC
 40
1.0
  9
$DIMGAP
 40
3.0
  9
$DIMJUST
 70
     0
  9
$DIMSD1
 70
     0
  9
$DIMSD2
 70
     0
  9
$DIMTOLJ
 70
     0
  9
$DIMTZIN
 70
     0
  9
$DIMALTZ
 70
     0
  9
$DIMALTTZ
 70
     0
  9
$DIMFIT
 70
     3
  9
$DIMUPT
 70
     0
  9
$DIMUNIT
 70
     2
  9
$DIMDEC
 70
     2
  9
$DIMTDEC
 70
     4
  9
$DIMALTU
 70
     2
  9
$DIMALTTD
 70
     3
  9
$DIMTXSTY
  7
STANDARD
  9
$DIMAUNIT
 70
     0
  9
$LUNITS
 70
     2
  9
$LUPREC
 70
     2
  9
$SKETCHINC
 40
1.0
  9
$FILLETRAD
 40
10.0
  9
$AUNITS
 70
     0
  9
$AUPREC
 70
     2
  9
$MENU
  1
.
  9
$ELEVATION
 40
0.0
  9
$PELEVATION
 40
0.0
  9
$THICKNESS
 40
0.0
  9
$LIMCHECK
 70
     0
  9
$CHAMFERA
 40
0.0
  9
$CHAMFERB
 40
0.0
  9
$CHAMFERC
 40
0.0
  9
$CHAMFERD
 40
0.0
  9
$SKPOLY
 70
     0
  9
$TDCREATE
 40
2460801.818183704
  9
$TDUPDATE
 40
2460801.81820787
  9
$TDINDWG
 40
0.0000000116
  9
$TDUSRTIMER
 40
0.0000000116
  9
$USRTIMER
 70
     1
  9
$ANGBASE
 50
0.0
  9
$ANGDIR
 70
     0
  9
$PDMODE
 70
     0
  9
$PDSIZE
 40
-1.0
  9
$PLINEWID
 40
0.0
  9
$COORDS
 70
     1
  9
$SPLFRAME
 70
     0
  9
$SPLINETYPE
 70
     6
  9
$SPLINESEGS
 70
     8
  9
$ATTDIA
 70
     0
  9
$ATTREQ
 70
     1
  9
$HANDLING
 70
     1
  9
$HANDSEED
  5
137
  9
$SURFTAB1
 70
     6
  9
$SURFTAB2
 70
     6
  9
$SURFTYPE
 70
     6
  9
$SURFU
 70
     6
  9
$SURFV
 70
     6
  9
$UCSNAME
  2

  9
$UCSORG
 10
0.0
 20
0.0
 30
0.0
  9
$UCSXDIR
 10
1.0
 20
0.0
 30
0.0
  9
$UCSYDIR
 10
0.0
 20
1.0
 30
0.0
  9
$PUCSNAME
  2

  9
$PUCSORG
 10
0.0
 20
0.0
 30
0.0
  9
$PUCSXDIR
 10
1.0
 20
0.0
 30
0.0
  9
$PUCSYDIR
 10
0.0
 20
1.0
 30
0.0
  9
$USERI1
 70
     0
  9
$USERI2
 70
     0
  9
$USERI3
 70
     0
  9
$USERI4
 70
     0
  9
$USERI5
 70
     0
  9
$USERR1
 40
0.0
  9
$USERR2
 40
0.0
  9
$USERR3
 40
0.0
  9
$USERR4
 40
0.0
  9
$USERR5
 40
0.0
  9
$WORLDVIEW
 70
     1
  9
$SHADEDGE
 70
     3
  9
$SHADEDIF
 70
    70
  9
$TILEMODE
 70
     1
  9
$MAXACTVP
 70
    64
  9
$PINSBASE
 10
0.0
 20
0.0
 30
0.0
  9
$PLIMCHECK
 70
     0
  9
$PEXTMIN
 10
1.0000000000E+20
 20
1.0000000000E+20
 30
1.0000000000E+20
  9
$PEXTMAX
 10
-1.0000000000E+20
 20
-1.0000000000E+20
 30
-1.0000000000E+20
  9
$PLIMMIN
 10
0.0
 20
0.0
  9
$PLIMMAX
 10
420.0
 20
297.0
  9
$UNITMODE
 70
     0
  9
$VISRETAIN
 70
     1
  9
$PLINEGEN
 70
     0
  9
$PSLTSCALE
 70
     1
  9
$TREEDEPTH
 70
  3020
  9
$PICKSTYLE
 70
     1
  9
$CMLSTYLE
  2
STANDARD
  9
$CMLJUST
 70
     0
  9
$CMLSCALE
 40
20.0
  9
$PROXYGRAPHICS
 70
     1
  9
$MEASUREMENT
 70
     1
  0
ENDSEC
  0
SECTION
  2
CLASSES
  0
CLASS
  1
ACDBDICTIONARYWDFLT
  2
AcDbDictionaryWithDefault
  3
ObjectDBX Classes
 90
        0
280
     0
281
     0
  0
CLASS
  1
VISUALSTYLE
  2
AcDbVisualStyle
  3
ObjectDBX Classes
 90
     4095
280
     0
281
     0
  0
CLASS
  1
MATERIAL
  2
AcDbMaterial
  3
ObjectDBX Classes
 90
     1153
280
     0
281
     0
  0
CLASS
  1
SCALE
  2
AcDbScale
  3
ObjectDBX Classes
 90
     1153
280
     0
281
     0
  0
CLASS
  1
TABLESTYLE
  2
AcDbTableStyle
  3
ObjectDBX Classes
 90
     4095
280
     0
281
     0
  0
CLASS
  1
MLEADERSTYLE
  2
AcDbMLeaderStyle
  3
ACDB_MLEADERSTYLE_CLASS
 90
     4095
280
     0
281
     0
  0
CLASS
  1
SUN
  2
AcDbSun
  3
SCENEOE
 90
     1153
280
     0
281
     0
  0
CLASS
  1
XRECORD
  2
AcDbXrecord
  3
ObjectDBX Classes
 90
        0
280
     0
281
     0
  0
CLASS
  1
LWPOLYLINE
  2
AcDbPolyline
  3
ObjectDBX Classes
 90
        0
280
     0
281
     1
  0
CLASS
  1
HATCH
  2
AcDbHatch
  3
ObjectDBX Classes
 90
        0
280
     0
281
     1
  0
ENDSEC
  0
SECTION
  2
TABLES
  0
TABLE
  2
VPORT
  5
8
330
0
100
AcDbSymbolTable
 70
     1
  0
VPORT
  5
29
330
8
100
AcDbSymbolTableRecord
100
AcDbViewportTableRecord
  2
*ACTIVE
 70
     0
 10
0.0
 20
0.0
 11
1.0
 21
1.0
 12
5.9219144148
 22
-87.9630178874
 13
0.0
 23
0.0
 14
10.0
 24
10.0
 15
10.0
 25
10.0
 16
0.0
 26
0.0
 36
1.0
 17
0.0
 27
0.0
 37
0.0
 40
108.12
 41
2.3018867925
 42
50.0
 43
0.0
 44
0.0
 50
0.0
 51
0.0
 71
     0
 72
   100
 73
     1
 74
     3
 75
     0
 76
     0
 77
     0
 78
     0
  0
ENDTAB
  0
TABLE
  2
LTYPE
  5
5
330
0
100
AcDbSymbolTable
 70
     6
  0
LTYPE
  5
14
330
5
100
AcDbSymbolTableRecord
100
AcDbLinetypeTableRecord
  2
BYBLOCK
 70
     0
  3

 72
    65
 73
     0
 40
0.0
  0
LTYPE
  5
15
330
5
100
AcDbSymbolTableRecord
100
AcDbLinetypeTableRecord
  2
BYLAYER
 70
     0
  3

 72
    65
 73
     0
 40
0.0
  0
LTYPE
  5
16
330
5
100
AcDbSymbolTableRecord
100
AcDbLinetypeTableRecord
  2
CONTINUOUS
 70
     0
  3
Solid line
 72
    65
 73
     0
 40
0.0
  0
LTYPE
  5
6E
330
5
100
AcDbSymbolTableRecord
100
AcDbLinetypeTableRecord
  2
HIDDEN
 70
     0
  3
Hidden __ __ __ __ __ __ __ __ __ __ __ __ __ __
 72
    65
 73
     2
 40
1.905
 49
1.27
 74
     0
 49
-0.635
 74
     0
  0
LTYPE
  5
6F
330
5
100
AcDbSymbolTableRecord
100
AcDbLinetypeTableRecord
  2
PHANTOM
 70
     0
  3
Phantom ______  __  __  ______  __  __  ______
 72
    65
 73
     6
 40
12.7
 49
6.35
 74
     0
 49
-1.27
 74
     0
 49
1.27
 74
     0
 49
-1.27
 74
     0
 49
1.27
 74
     0
 49
-1.27
 74
     0
  0
LTYPE
  5
70
330
5
100
AcDbSymbolTableRecord
100
AcDbLinetypeTableRecord
  2
CENTER
 70
     0
  3
Center ____ _ ____ _ ____ _ ____ _ ____ _ ____
 72
    65
 73
     4
 40
10.16
 49
6.35
 74
     0
 49
-1.27
 74
     0
 49
1.27
 74
     0
 49
-1.27
 74
     0
  0
LTYPE
  5
71
330
5
100
AcDbSymbolTableRecord
100
AcDbLinetypeTableRecord
  2
CENTERX2
 70
     0
  3
Center (2x) ________  __  ________  __  _____
 72
    65
 73
     4
 40
20.32
 49
12.7
 74
     0
 49
-2.54
 74
     0
 49
2.54
 74
     0
 49
-2.54
 74
     0
  0
LTYPE
  5
72
330
5
100
AcDbSymbolTableRecord
100
AcDbLinetypeTableRecord
  2
DOT2
 70
     0
  3
Dot (.5x) ........................................
 72
    65
 73
     2
 40
0.635
 49
0.0
 74
     0
 49
-0.635
 74
     0
  0
ENDTAB
  0
TABLE
  2
LAYER
  5
2
330
0
100
AcDbSymbolTable
 70
     1
  0
LAYER
  5
10
330
2
100
AcDbSymbolTableRecord
100
AcDbLayerTableRecord
  2
0
 70
     0
 62
     7
  6
CONTINUOUS
  0
ENDTAB
  0
TABLE
  2
STYLE
  5
3
330
0
100
AcDbSymbolTable
 70
     2
  0
STYLE
  5
11
330
3
100
AcDbSymbolTableRecord
100
AcDbTextStyleTableRecord
  2
STANDARD
 70
     0
 40
0.0
 41
1.0
 50
0.0
 71
     0
 42
4.0
  3
txt
  4

  0
STYLE
  5
133
330
3
100
AcDbSymbolTableRecord
100
AcDbTextStyleTableRecord
  2
SLDTEXTSTYLE0
 70
     0
 40
0.0
 41
0.7
 50
0.0
 71
     0
 42
4.0
  3
TXT
  4
bigfont
  0
ENDTAB
  0
TABLE
  2
VIEW
  5
6
330
0
100
AcDbSymbolTable
 70
     0
  0
ENDTAB
  0
TABLE
  2
UCS
  5
7
330
0
100
AcDbSymbolTable
 70
     0
  0
ENDTAB
  0
TABLE
  2
APPID
  5
9
330
0
100
AcDbSymbolTable
 70
     1
  0
APPID
  5
12
330
9
100
AcDbSymbolTableRecord
100
AcDbRegAppTableRecord
  2
ACAD
 70
     0
  0
ENDTAB
  0
TABLE
  2
DIMSTYLE
  5
A
330
0
100
AcDbSymbolTable
 70
     1
  0
DIMSTYLE
105
27
330
A
100
AcDbSymbolTableRecord
100
AcDbDimStyleTableRecord
  2
ISO-25
 70
     0
  3

  4

  5

  6

  7

 40
1.0
 41
2.5
 42
0.625
 43
3.75
 44
1.25
 45
0.0
 46
0.0
 47
0.0
 48
0.0
140
2.5
141
2.5
142
0.0
143
0.0393700787
144
1.0
145
0.0
146
1.0
147
0.625
 71
     0
 72
     0
 73
     0
 74
     0
 75
     0
 76
     0
 77
     1
 78
     8
170
     0
171
     3
172
     1
173
     0
174
     0
175
     0
176
     0
177
     0
178
     0
270
     2
271
     2
272
     2
273
     2
274
     3
340
11
275
     0
280
     0
281
     0
282
     0
283
     0
284
     8
285
     0
286
     0
287
     3
288
     0
  0
ENDTAB
  0
TABLE
  2
BLOCK_RECORD
  5
1
330
0
100
AcDbSymbolTable
 70
     1
  0
BLOCK_RECORD
  5
1F
330
1
100
AcDbSymbolTableRecord
100
AcDbBlockTableRecord
  2
*MODEL_SPACE
  0
BLOCK_RECORD
  5
1B
330
1
100
AcDbSymbolTableRecord
100
AcDbBlockTableRecord
  2
*PAPER_SPACE
  0
BLOCK_RECORD
  5
23
330
1
100
AcDbSymbolTableRecord
100
AcDbBlockTableRecord
  2
*PAPER_SPACE0
  0
ENDTAB
  0
ENDSEC
  0
SECTION
  2
BLOCKS
  0
BLOCK
  5
20
330
1F
100
AcDbEntity
  8
0
100
AcDbBlockBegin
  2
*MODEL_SPACE
 70
     0
 10
0.0
 20
0.0
 30
0.0
  3
*MODEL_SPACE
  1

  0
ENDBLK
  5
21
330
1F
100
AcDbEntity
  8
0
100
AcDbBlockEnd
  0
BLOCK
  5
1C
330
1B
100
AcDbEntity
 67
     1
  8
0
100
AcDbBlockBegin
  2
*PAPER_SPACE
 70
     0
 10
0.0
 20
0.0
 30
0.0
  3
*PAPER_SPACE
  1

  0
ENDBLK
  5
1D
330
1B
100
AcDbEntity
 67
     1
  8
0
100
AcDbBlockEnd
  0
BLOCK
  5
24
330
23
100
AcDbEntity
  8
0
100
AcDbBlockBegin
  2
*PAPER_SPACE0
 70
     0
 10
0.0
 20
0.0
 30
0.0
  3
*PAPER_SPACE0
  1

  0
ENDBLK
  5
25
330
23
100
AcDbEntity
  8
0
100
AcDbBlockEnd
  0
ENDSEC
  0
SECTION
  2
ENTITIES
  0
SPLINE
  5
73
330
1F
100
AcDbEntity
  8
0
  6
CONTINUOUS
 62
     7
100
AcDbSpline
210
0.0
220
0.0
230
1.0
 70
    24
 71
     1
 72
     4
 73
     2
 74
     0
 42
0.00000001
 43
0.00000001
 40
0.0
 40
0.0
 40
0.1904761904761903
 40
0.1904761904761903
 10
-29.97808558518839
 20
-60.20587503027797
 30
0.0
 10
-33.17808558518839
 20
-60.20587503027797
 30
0.0
  0
SPLINE
  5
74
330
1F
100
AcDbEntity
  8
0
  6
CONTINUOUS
 62
     7
100
AcDbSpline
210
0.0
220
0.0
230
1.0
 70
    24
 71
     1
 72
     4
 73
     2
 74
     0
 42
0.00000001
 43
0.00000001
 40
0.1904761904761903
 40
0.1904761904761903
 40
0.5
 40
0.5
 10
-33.17808558518839
 20
-60.20587503027797
 30
0.0
 10
-33.17808558518839
 20
-55.00587503027796
 30
0.0
  0
SPLINE
  5
75
330
1F
100
AcDbEntity
  8
0
  6
CONTINUOUS
 62
     7
100
AcDbSpline
210
0.0
220
0.0
230
1.0
 70
    24
 71
     1
 72
     4
 73
     2
 74
     0
 42
0.00000001
 43
0.00000001
 40
0.5
 40
0.5
 40
0.6904761904761902
 40
0.6904761904761902
 10
-33.17808558518839
 20
-55.00587503027796
 30
0.0
 10
-29.97808558518839
 20
-55.00587503027796
 30
0.0
  0
SPLINE
  5
76
330
1F
100
AcDbEntity
  8
0
  6
CONTINUOUS
 62
     7
100
AcDbSpline
210
0.0
220
0.0
230
1.0
 70
    24
 71
     1
 72
     4
 73
     2
 74
     0
 42
0.00000001
 43
0.00000001
 40
0.6904761904761902
 40
0.6904761904761902
 40
1.0
 40
1.0
 10
-29.97808558518839
 20
-55.00587503027796
 30
0.0
 10
-29.97808558518839
 20
-60.20587503027797
 30
0.0
  0
SPLINE
  5
77
330
1F
100
AcDbEntity
  8
0
  6
CONTINUOUS
 62
     7
100
AcDbSpline
210
0.0
220
0.0
230
1.0
 70
    24
 71
     1
 72
     4
 73
     2
 74
     0
 42
0.00000001
 43
0.00000001
 40
0.0
 40
0.0
 40
0.1904761904761903
 40
0.1904761904761903
 10
-29.97808558518839
 20
-84.49158931599227
 30
0.0
 10
-33.17808558518839
 20
-84.49158931599227
 30
0.0
  0
SPLINE
  5
78
330
1F
100
AcDbEntity
  8
0
  6
CONTINUOUS
 62
     7
100
AcDbSpline
210
0.0
220
0.0
230
1.0
 70
    24
 71
     1
 72
     4
 73
     2
 74
     0
 42
0.00000001
 43
0.00000001
 40
0.1904761904761903
 40
0.1904761904761903
 40
0.5
 40
0.5
 10
-33.17808558518839
 20
-84.49158931599227
 30
0.0
 10
-33.17808558518839
 20
-79.29158931599225
 30
0.0
  0
SPLINE
  5
79
330
1F
100
AcDbEntity
  8
0
  6
CONTINUOUS
 62
     7
100
AcDbSpline
210
0.0
220
0.0
230
1.0
 70
    24
 71
     1
 72
     4
 73
     2
 74
     0
 42
0.00000001
 43
0.00000001
 40
0.5
 40
0.5
 40
0.6904761904761902
 40
0.6904761904761902
 10
-33.17808558518839
 20
-79.29158931599225
 30
0.0
 10
-29.97808558518839
 20
-79.29158931599225
 30
0.0
  0
SPLINE
  5
7A
330
1F
100
AcDbEntity
  8
0
  6
CONTINUOUS
 62
     7
100
AcDbSpline
210
0.0
220
0.0
230
1.0
 70
    24
 71
     1
 72
     4
 73
     2
 74
     0
 42
0.00000001
 43
0.00000001
 40
0.6904761904761902
 40
0.6904761904761902
 40
1.0
 40
1.0
 10
-29.97808558518839
 20
-79.29158931599225
 30
0.0
 10
-29.97808558518839
 20
-84.49158931599227
 30
0.0
  0
SPLINE
  5
7B
330
1F
100
AcDbEntity
  8
0
  6
CONTINUOUS
 62
     7
100
AcDbSpline
210
0.0
220
0.0
230
1.0
 70
    24
 71
     1
 72
     4
 73
     2
 74
     0
 42
0.00000001
 43
0.00000001
 40
0.0
 40
0.0
 40
0.1904761904761903
 40
0.1904761904761903
 10
-29.97808558518838
 20
-108.7773036017065
 30
0.0
 10
-33.17808558518839
 20
-108.7773036017065
 30
0.0
  0
SPLINE
  5
7C
330
1F
100
AcDbEntity
  8
0
  6
CONTINUOUS
 62
     7
100
AcDbSpline
210
0.0
220
0.0
230
1.0
 70
    24
 71
     1
 72
     4
 73
     2
 74
     0
 42
0.00000001
 43
0.00000001
 40
0.1904761904761903
 40
0.1904761904761903
 40
0.5
 40
0.5
 10
-33.17808558518839
 20
-108.7773036017065
 30
0.0
 10
-33.17808558518839
 20
-103.5773036017065
 30
0.0
  0
SPLINE
  5
7D
330
1F
100
AcDbEntity
  8
0
  6
CONTINUOUS
 62
     7
100
AcDbSpline
210
0.0
220
0.0
230
1.0
 70
    24
 71
     1
 72
     4
 73
     2
 74
     0
 42
0.00000001
 43
0.00000001
 40
0.5
 40
0.5
 40
0.6904761904761902
 40
0.6904761904761902
 10
-33.17808558518839
 20
-103.5773036017065
 30
0.0
 10
-29.97808558518838
 20
-103.5773036017065
 30
0.0
  0
SPLINE
  5
7E
330
1F
100
AcDbEntity
  8
0
  6
CONTINUOUS
 62
     7
100
AcDbSpline
210
0.0
220
0.0
230
1.0
 70
    24
 71
     1
 72
     4
 73
     2
 74
     0
 42
0.00000001
 43
0.00000001
 40
0.6904761904761902
 40
0.6904761904761902
 40
1.0
 40
1.0
 10
-29.97808558518838
 20
-103.5773036017065
 30
0.0
 10
-29.97808558518838
 20
-108.7773036017065
 30
0.0
  0
SPLINE
  5
7F
330
1F
100
AcDbEntity
  8
0
  6
CONTINUOUS
 62
     7
100
AcDbSpline
210
0.0
220
0.0
230
1.0
 70
    24
 71
     1
 72
     4
 73
     2
 74
     0
 42
0.00000001
 43
0.00000001
 40
0.0
 40
0.0
 40
0.1904761904761903
 40
0.1904761904761903
 10
-29.97808558518838
 20
-133.0630178874208
 30
0.0
 10
-33.17808558518838
 20
-133.0630178874208
 30
0.0
  0
SPLINE
  5
80
330
1F
100
AcDbEntity
  8
0
  6
CONTINUOUS
 62
     7
100
AcDbSpline
210
0.0
220
0.0
230
1.0
 70
    24
 71
     1
 72
     4
 73
     2
 74
     0
 42
0.00000001
 43
0.00000001
 40
0.1904761904761903
 40
0.1904761904761903
 40
0.5
 40
0.5
 10
-33.17808558518838
 20
-133.0630178874208
 30
0.0
 10
-33.17808558518838
 20
-127.8630178874208
 30
0.0
  0
SPLINE
  5
81
330
1F
100
AcDbEntity
  8
0
  6
CONTINUOUS
 62
     7
100
AcDbSpline
210
0.0
220
0.0
230
1.0
 70
    24
 71
     1
 72
     4
 73
     2
 74
     0
 42
0.00000001
 43
0.00000001
 40
0.5
 40
0.5
 40
0.6904761904761902
 40
0.6904761904761902
 10
-33.17808558518838
 20
-127.8630178874208
 30
0.0
 10
-29.97808558518838
 20
-127.8630178874208
 30
0.0
  0
SPLINE
  5
82
330
1F
100
AcDbEntity
  8
0
  6
CONTINUOUS
 62
     7
100
AcDbSpline
210
0.0
220
0.0
230
1.0
 70
    24
 71
     1
 72
     4
 73
     2
 74
     0
 42
0.00000001
 43
0.00000001
 40
0.6904761904761902
 40
0.6904761904761902
 40
1.0
 40
1.0
 10
-29.97808558518838
 20
-127.8630178874208
 30
0.0
 10
-29.97808558518838
 20
-133.0630178874208
 30
0.0
  0
SPLINE
  5
83
330
1F
100
AcDbEntity
  8
0
  6
CONTINUOUS
 62
     7
100
AcDbSpline
210
0.0
220
0.0
230
1.0
 70
    24
 71
     1
 72
     4
 73
     2
 74
     0
 42
0.00000001
 43
0.00000001
 40
0.0
 40
0.0
 40
0.1904761904761903
 40
0.1904761904761903
 10
45.0219144148116
 20
-60.20587503027797
 30
0.0
 10
41.82191441481159
 20
-60.20587503027797
 30
0.0
  0
SPLINE
  5
84
330
1F
100
AcDbEntity
  8
0
  6
CONTINUOUS
 62
     7
100
AcDbSpline
210
0.0
220
0.0
230
1.0
 70
    24
 71
     1
 72
     4
 73
     2
 74
     0
 42
0.00000001
 43
0.00000001
 40
0.1904761904761903
 40
0.1904761904761903
 40
0.5
 40
0.5
 10
41.82191441481159
 20
-60.20587503027797
 30
0.0
 10
41.82191441481159
 20
-55.00587503027796
 30
0.0
  0
SPLINE
  5
85
330
1F
100
AcDbEntity
  8
0
  6
CONTINUOUS
 62
     7
100
AcDbSpline
210
0.0
220
0.0
230
1.0
 70
    24
 71
     1
 72
     4
 73
     2
 74
     0
 42
0.00000001
 43
0.00000001
 40
0.5
 40
0.5
 40
0.6904761904761902
 40
0.6904761904761902
 10
41.82191441481159
 20
-55.00587503027796
 30
0.0
 10
45.0219144148116
 20
-55.00587503027796
 30
0.0
  0
SPLINE
  5
86
330
1F
100
AcDbEntity
  8
0
  6
CONTINUOUS
 62
     7
100
AcDbSpline
210
0.0
220
0.0
230
1.0
 70
    24
 71
     1
 72
     4
 73
     2
 74
     0
 42
0.00000001
 43
0.00000001
 40
0.6904761904761902
 40
0.6904761904761902
 40
1.0
 40
1.0
 10
45.0219144148116
 20
-55.00587503027796
 30
0.0
 10
45.0219144148116
 20
-60.20587503027797
 30
0.0
  0
SPLINE
  5
87
330
1F
100
AcDbEntity
  8
0
  6
CONTINUOUS
 62
     7
100
AcDbSpline
210
0.0
220
0.0
230
1.0
 70
    24
 71
     1
 72
     4
 73
     2
 74
     0
 42
0.00000001
 43
0.00000001
 40
0.0
 40
0.0
 40
0.1904761904761903
 40
0.1904761904761903
 10
45.0219144148116
 20
-84.49158931599227
 30
0.0
 10
41.82191441481159
 20
-84.49158931599227
 30
0.0
  0
SPLINE
  5
88
330
1F
100
AcDbEntity
  8
0
  6
CONTINUOUS
 62
     7
100
AcDbSpline
210
0.0
220
0.0
230
1.0
 70
    24
 71
     1
 72
     4
 73
     2
 74
     0
 42
0.00000001
 43
0.00000001
 40
0.1904761904761903
 40
0.1904761904761903
 40
0.5
 40
0.5
 10
41.82191441481159
 20
-84.49158931599227
 30
0.0
 10
41.82191441481159
 20
-79.29158931599225
 30
0.0
  0
SPLINE
  5
89
330
1F
100
AcDbEntity
  8
0
  6
CONTINUOUS
 62
     7
100
AcDbSpline
210
0.0
220
0.0
230
1.0
 70
    24
 71
     1
 72
     4
 73
     2
 74
     0
 42
0.00000001
 43
0.00000001
 40
0.5
 40
0.5
 40
0.6904761904761902
 40
0.6904761904761902
 10
41.82191441481159
 20
-79.29158931599225
 30
0.0
 10
45.0219144148116
 20
-79.29158931599225
 30
0.0
  0
SPLINE
  5
8A
330
1F
100
AcDbEntity
  8
0
  6
CONTINUOUS
 62
     7
100
AcDbSpline
210
0.0
220
0.0
230
1.0
 70
    24
 71
     1
 72
     4
 73
     2
 74
     0
 42
0.00000001
 43
0.00000001
 40
0.6904761904761902
 40
0.6904761904761902
 40
1.0
 40
1.0
 10
45.0219144148116
 20
-79.29158931599225
 30
0.0
 10
45.0219144148116
 20
-84.49158931599227
 30
0.0
  0
SPLINE
  5
8B
330
1F
100
AcDbEntity
  8
0
  6
CONTINUOUS
 62
     7
100
AcDbSpline
210
0.0
220
0.0
230
1.0
 70
    24
 71
     1
 72
     4
 73
     2
 74
     0
 42
0.00000001
 43
0.00000001
 40
0.0
 40
0.0
 40
0.1904761904761903
 40
0.1904761904761903
 10
45.0219144148116
 20
-108.7773036017065
 30
0.0
 10
41.82191441481159
 20
-108.7773036017065
 30
0.0
  0
SPLINE
  5
8C
330
1F
100
AcDbEntity
  8
0
  6
CONTINUOUS
 62
     7
100
AcDbSpline
210
0.0
220
0.0
230
1.0
 70
    24
 71
     1
 72
     4
 73
     2
 74
     0
 42
0.00000001
 43
0.00000001
 40
0.1904761904761903
 40
0.1904761904761903
 40
0.5
 40
0.5
 10
41.82191441481159
 20
-108.7773036017065
 30
0.0
 10
41.82191441481159
 20
-103.5773036017065
 30
0.0
  0
SPLINE
  5
8D
330
1F
100
AcDbEntity
  8
0
  6
CONTINUOUS
 62
     7
100
AcDbSpline
210
0.0
220
0.0
230
1.0
 70
    24
 71
     1
 72
     4
 73
     2
 74
     0
 42
0.00000001
 43
0.00000001
 40
0.5
 40
0.5
 40
0.6904761904761902
 40
0.6904761904761902
 10
41.82191441481159
 20
-103.5773036017065
 30
0.0
 10
45.0219144148116
 20
-103.5773036017065
 30
0.0
  0
SPLINE
  5
8E
330
1F
100
AcDbEntity
  8
0
  6
CONTINUOUS
 62
     7
100
AcDbSpline
210
0.0
220
0.0
230
1.0
 70
    24
 71
     1
 72
     4
 73
     2
 74
     0
 42
0.00000001
 43
0.00000001
 40
0.6904761904761902
 40
0.6904761904761902
 40
1.0
 40
1.0
 10
45.0219144148116
 20
-103.5773036017065
 30
0.0
 10
45.0219144148116
 20
-108.7773036017065
 30
0.0
  0
SPLINE
  5
8F
330
1F
100
AcDbEntity
  8
0
  6
CONTINUOUS
 62
     7
100
AcDbSpline
210
0.0
220
0.0
230
1.0
 70
    24
 71
     1
 72
     4
 73
     2
 74
     0
 42
0.00000001
 43
0.00000001
 40
0.0
 40
0.0
 40
0.1904761904761903
 40
0.1904761904761903
 10
45.0219144148116
 20
-133.0630178874208
 30
0.0
 10
41.8219144148116
 20
-133.0630178874208
 30
0.0
  0
SPLINE
  5
90
330
1F
100
AcDbEntity
  8
0
  6
CONTINUOUS
 62
     7
100
AcDbSpline
210
0.0
220
0.0
230
1.0
 70
    24
 71
     1
 72
     4
 73
     2
 74
     0
 42
0.00000001
 43
0.00000001
 40
0.1904761904761903
 40
0.1904761904761903
 40
0.5
 40
0.5
 10
41.8219144148116
 20
-133.0630178874208
 30
0.0
 10
41.8219144148116
 20
-127.8630178874208
 30
0.0
  0
SPLINE
  5
91
330
1F
100
AcDbEntity
  8
0
  6
CONTINUOUS
 62
     7
100
AcDbSpline
210
0.0
220
0.0
230
1.0
 70
    24
 71
     1
 72
     4
 73
     2
 74
     0
 42
0.00000001
 43
0.00000001
 40
0.5
 40
0.5
 40
0.6904761904761902
 40
0.6904761904761902
 10
41.8219144148116
 20
-127.8630178874208
 30
0.0
 10
45.0219144148116
 20
-127.8630178874208
 30
0.0
  0
SPLINE
  5
92
330
1F
100
AcDbEntity
  8
0
  6
CONTINUOUS
 62
     7
100
AcDbSpline
210
0.0
220
0.0
230
1.0
 70
    24
 71
     1
 72
     4
 73
     2
 74
     0
 42
0.00000001
 43
0.00000001
 40
0.6904761904761902
 40
0.6904761904761902
 40
1.0
 40
1.0
 10
45.0219144148116
 20
-127.8630178874208
 30
0.0
 10
45.0219144148116
 20
-133.0630178874208
 30
0.0
  0
LINE
  5
93
330
1F
100
AcDbEntity
  8
0
  6
CONTINUOUS
 62
     7
100
AcDbLine
 10
-113.0780855852
 20
-34.9630178874
 30
0.0
 11
-113.0780855852
 21
-39.9630178874
 31
0.0
  0
LINE
  5
94
330
1F
100
AcDbEntity
  8
0
  6
CONTINUOUS
 62
     7
100
AcDbLine
 10
-116.0780855852
 20
-39.9630178874
 30
0.0
 11
-113.0780855852
 21
-39.9630178874
 31
0.0
  0
SPLINE
  5
95
330
1F
100
AcDbEntity
  8
0
  6
CONTINUOUS
 62
     7
100
AcDbSpline
210
0.0
220
0.0
230
1.0
 70
    24
 71
     1
 72
     4
 73
     2
 74
     0
 42
0.00000001
 43
0.00000001
 40
0.6875
 40
0.6875
 40
1.0
 40
1.0
 10
-116.0780855851885
 20
-39.96301788742086
 30
0.0
 10
-116.0780855851885
 20
-44.96301788742087
 30
0.0
  0
LINE
  5
96
330
1F
100
AcDbEntity
  8
0
  6
CONTINUOUS
 62
     7
100
AcDbLine
 10
-116.0780855852
 20
-44.9630178874
 30
0.0
 11
-113.0780855852
 21
-44.9630178874
 31
0.0
  0
LINE
  5
97
330
1F
100
AcDbEntity
  8
0
  6
CONTINUOUS
 62
     7
100
AcDbLine
 10
-113.0780855852
 20
-44.9630178874
 30
0.0
 11
-113.0780855852
 21
-52.5344464588
 31
0.0
  0
LINE
  5
98
330
1F
100
AcDbEntity
  8
0
  6
CONTINUOUS
 62
     7
100
AcDbLine
 10
-116.0780855852
 20
-52.5344464588
 30
0.0
 11
-113.0780855852
 21
-52.5344464588
 31
0.0
  0
SPLINE
  5
99
330
1F
100
AcDbEntity
  8
0
  6
CONTINUOUS
 62
     7
100
AcDbSpline
210
0.0
220
0.0
230
1.0
 70
    24
 71
     1
 72
     4
 73
     2
 74
     0
 42
0.00000001
 43
0.00000001
 40
0.6875
 40
0.6875
 40
1.0
 40
1.0
 10
-116.0780855851885
 20
-52.53444645884943
 30
0.0
 10
-116.0780855851885
 20
-57.53444645884943
 30
0.0
  0
LINE
  5
9A
330
1F
100
AcDbEntity
  8
0
  6
CONTINUOUS
 62
     7
100
AcDbLine
 10
-116.0780855852
 20
-57.5344464588
 30
0.0
 11
-113.0780855852
 21
-57.5344464588
 31
0.0
  0
LINE
  5
9B
330
1F
100
AcDbEntity
  8
0
  6
CONTINUOUS
 62
     7
100
AcDbLine
 10
-113.0780855852
 20
-57.5344464588
 30
0.0
 11
-113.0780855852
 21
-65.1058750303
 31
0.0
  0
LINE
  5
9C
330
1F
100
AcDbEntity
  8
0
  6
CONTINUOUS
 62
     7
100
AcDbLine
 10
-116.0780855852
 20
-65.1058750303
 30
0.0
 11
-113.0780855852
 21
-65.1058750303
 31
0.0
  0
SPLINE
  5
9D
330
1F
100
AcDbEntity
  8
0
  6
CONTINUOUS
 62
     7
100
AcDbSpline
210
0.0
220
0.0
230
1.0
 70
    24
 71
     1
 72
     4
 73
     2
 74
     0
 42
0.00000001
 43
0.00000001
 40
0.6875
 40
0.6875
 40
1.0
 40
1.0
 10
-116.0780855851885
 20
-65.10587503027801
 30
0.0
 10
-116.0780855851885
 20
-70.10587503027801
 30
0.0
  0
LINE
  5
9E
330
1F
100
AcDbEntity
  8
0
  6
CONTINUOUS
 62
     7
100
AcDbLine
 10
-116.0780855852
 20
-70.1058750303
 30
0.0
 11
-113.0780855852
 21
-70.1058750303
 31
0.0
  0
LINE
  5
9F
330
1F
100
AcDbEntity
  8
0
  6
CONTINUOUS
 62
     7
100
AcDbLine
 10
-113.0780855852
 20
-70.1058750303
 30
0.0
 11
-113.0780855852
 21
-77.6773036017
 31
0.0
  0
LINE
  5
A0
330
1F
100
AcDbEntity
  8
0
  6
CONTINUOUS
 62
     7
100
AcDbLine
 10
-116.0780855852
 20
-77.6773036017
 30
0.0
 11
-113.0780855852
 21
-77.6773036017
 31
0.0
  0
SPLINE
  5
A1
330
1F
100
AcDbEntity
  8
0
  6
CONTINUOUS
 62
     7
100
AcDbSpline
210
0.0
220
0.0
230
1.0
 70
    24
 71
     1
 72
     4
 73
     2
 74
     0
 42
0.00000001
 43
0.00000001
 40
0.6875
 40
0.6875
 40
1.0
 40
1.0
 10
-116.0780855851884
 20
-77.67730360170658
 30
0.0
 10
-116.0780855851884
 20
-82.67730360170658
 30
0.0
  0
LINE
  5
A2
330
1F
100
AcDbEntity
  8
0
  6
CONTINUOUS
 62
     7
100
AcDbLine
 10
-116.0780855852
 20
-82.6773036017
 30
0.0
 11
-113.0780855852
 21
-82.6773036017
 31
0.0
  0
LINE
  5
A3
330
1F
100
AcDbEntity
  8
0
  6
CONTINUOUS
 62
     7
100
AcDbLine
 10
-113.0780855852
 20
-82.6773036017
 30
0.0
 11
-113.0780855852
 21
-90.2487321731
 31
0.0
  0
LINE
  5
A4
330
1F
100
AcDbEntity
  8
0
  6
CONTINUOUS
 62
     7
100
AcDbLine
 10
-116.0780855852
 20
-90.2487321731
 30
0.0
 11
-113.0780855852
 21
-90.2487321731
 31
0.0
  0
SPLINE
  5
A5
330
1F
100
AcDbEntity
  8
0
  6
CONTINUOUS
 62
     7
100
AcDbSpline
210
0.0
220
0.0
230
1.0
 70
    24
 71
     1
 72
     4
 73
     2
 74
     0
 42
0.00000001
 43
0.00000001
 40
0.6875
 40
0.6875
 40
1.0
 40
1.0
 10
-116.0780855851884
 20
-90.24873217313514
 30
0.0
 10
-116.0780855851884
 20
-95.24873217313515
 30
0.0
  0
LINE
  5
A6
330
1F
100
AcDbEntity
  8
0
  6
CONTINUOUS
 62
     7
100
AcDbLine
 10
-116.0780855852
 20
-95.2487321731
 30
0.0
 11
-113.0780855852
 21
-95.2487321731
 31
0.0
  0
LINE
  5
A7
330
1F
100
AcDbEntity
  8
0
  6
CONTINUOUS
 62
     7
100
AcDbLine
 10
-113.0780855852
 20
-95.2487321731
 30
0.0
 11
-113.0780855852
 21
-102.8201607446
 31
0.0
  0
LINE
  5
A8
330
1F
100
AcDbEntity
  8
0
  6
CONTINUOUS
 62
     7
100
AcDbLine
 10
-116.0780855852
 20
-102.8201607446
 30
0.0
 11
-113.0780855852
 21
-102.8201607446
 31
0.0
  0
SPLINE
  5
A9
330
1F
100
AcDbEntity
  8
0
  6
CONTINUOUS
 62
     7
100
AcDbSpline
210
0.0
220
0.0
230
1.0
 70
    24
 71
     1
 72
     4
 73
     2
 74
     0
 42
0.00000001
 43
0.00000001
 40
0.6875
 40
0.6875
 40
1.0
 40
1.0
 10
-116.0780855851884
 20
-102.8201607445637
 30
0.0
 10
-116.0780855851884
 20
-107.8201607445637
 30
0.0
  0
LINE
  5
AA
330
1F
100
AcDbEntity
  8
0
  6
CONTINUOUS
 62
     7
100
AcDbLine
 10
-116.0780855852
 20
-107.8201607446
 30
0.0
 11
-113.0780855852
 21
-107.8201607446
 31
0.0
  0
LINE
  5
AB
330
1F
100
AcDbEntity
  8
0
  6
CONTINUOUS
 62
     7
100
AcDbLine
 10
-113.0780855852
 20
-107.8201607446
 30
0.0
 11
-113.0780855852
 21
-115.391589316
 31
0.0
  0
LINE
  5
AC
330
1F
100
AcDbEntity
  8
0
  6
CONTINUOUS
 62
     7
100
AcDbLine
 10
-116.0780855852
 20
-115.391589316
 30
0.0
 11
-113.0780855852
 21
-115.391589316
 31
0.0
  0
SPLINE
  5
AD
330
1F
100
AcDbEntity
  8
0
  6
CONTINUOUS
 62
     7
100
AcDbSpline
210
0.0
220
0.0
230
1.0
 70
    24
 71
     1
 72
     4
 73
     2
 74
     0
 42
0.00000001
 43
0.00000001
 40
0.6875
 40
0.6875
 40
1.0
 40
1.0
 10
-116.0780855851884
 20
-115.3915893159923
 30
0.0
 10
-116.0780855851884
 20
-120.3915893159923
 30
0.0
  0
LINE
  5
AE
330
1F
100
AcDbEntity
  8
0
  6
CONTINUOUS
 62
     7
100
AcDbLine
 10
-116.0780855852
 20
-120.391589316
 30
0.0
 11
-113.0780855852
 21
-120.391589316
 31
0.0
  0
LINE
  5
AF
330
1F
100
AcDbEntity
  8
0
  6
CONTINUOUS
 62
     7
100
AcDbLine
 10
-113.0780855852
 20
-120.391589316
 30
0.0
 11
-113.0780855852
 21
-127.9630178874
 31
0.0
  0
LINE
  5
B0
330
1F
100
AcDbEntity
  8
0
  6
CONTINUOUS
 62
     7
100
AcDbLine
 10
-116.0780855852
 20
-127.9630178874
 30
0.0
 11
-113.0780855852
 21
-127.9630178874
 31
0.0
  0
SPLINE
  5
B1
330
1F
100
AcDbEntity
  8
0
  6
CONTINUOUS
 62
     7
100
AcDbSpline
210
0.0
220
0.0
230
1.0
 70
    24
 71
     1
 72
     4
 73
     2
 74
     0
 42
0.00000001
 43
0.00000001
 40
0.6875
 40
0.6875
 40
1.0
 40
1.0
 10
-116.0780855851884
 20
-127.9630178874209
 30
0.0
 10
-116.0780855851884
 20
-132.9630178874209
 30
0.0
  0
LINE
  5
B2
330
1F
100
AcDbEntity
  8
0
  6
CONTINUOUS
 62
     7
100
AcDbLine
 10
-116.0780855852
 20
-132.9630178874
 30
0.0
 11
-113.0780855852
 21
-132.9630178874
 31
0.0
  0
LINE
  5
B3
330
1F
100
AcDbEntity
  8
0
  6
CONTINUOUS
 62
     7
100
AcDbLine
 10
-113.0780855852
 20
-132.9630178874
 30
0.0
 11
-113.0780855852
 21
-137.9630178874
 31
0.0
  0
LINE
  5
B4
330
1F
100
AcDbEntity
  8
0
  6
CONTINUOUS
 62
     7
100
AcDbLine
 10
-108.0780855852
 20
-137.9630178874
 30
0.0
 11
-113.0780855852
 21
-137.9630178874
 31
0.0
  0
LINE
  5
B5
330
1F
100
AcDbEntity
  8
0
  6
CONTINUOUS
 62
     7
100
AcDbLine
 10
-108.0780855852
 20
-140.9630178874
 30
0.0
 11
-108.0780855852
 21
-137.9630178874
 31
0.0
  0
SPLINE
  5
B6
330
1F
100
AcDbEntity
  8
0
  6
CONTINUOUS
 62
     7
100
AcDbSpline
210
0.0
220
0.0
230
1.0
 70
    24
 71
     1
 72
     4
 73
     2
 74
     0
 42
0.00000001
 43
0.00000001
 40
0.6875
 40
0.6875
 40
1.0
 40
1.0
 10
-108.0780855851884
 20
-140.9630178874208
 30
0.0
 10
-103.0780855851884
 20
-140.9630178874208
 30
0.0
  0
LINE
  5
B7
330
1F
100
AcDbEntity
  8
0
  6
CONTINUOUS
 62
     7
100
AcDbLine
 10
-103.0780855852
 20
-140.9630178874
 30
0.0
 11
-103.0780855852
 21
-137.9630178874
 31
0.0
  0
LINE
  5
B8
330
1F
100
AcDbEntity
  8
0
  6
CONTINUOUS
 62
     7
100
AcDbLine
 10
-92.1495141566
 20
-137.9630178874
 30
0.0
 11
-103.0780855852
 21
-137.9630178874
 31
0.0
  0
LINE
  5
B9
330
1F
100
AcDbEntity
  8
0
  6
CONTINUOUS
 62
     7
100
AcDbLine
 10
-92.1495141566
 20
-140.9630178874
 30
0.0
 11
-92.1495141566
 21
-137.9630178874
 31
0.0
  0
SPLINE
  5
BA
330
1F
100
AcDbEntity
  8
0
  6
CONTINUOUS
 62
     7
100
AcDbSpline
210
0.0
220
0.0
230
1.0
 70
    24
 71
     1
 72
     4
 73
     2
 74
     0
 42
0.00000001
 43
0.00000001
 40
0.6875
 40
0.6875
 40
1.0
 40
1.0
 10
-92.14951415661702
 20
-140.9630178874208
 30
0.0
 10
-87.149514156617
 20
-140.9630178874208
 30
0.0
  0
LINE
  5
BB
330
1F
100
AcDbEntity
  8
0
  6
CONTINUOUS
 62
     7
100
AcDbLine
 10
-87.1495141566
 20
-140.9630178874
 30
0.0
 11
-87.1495141566
 21
-137.9630178874
 31
0.0
  0
LINE
  5
BC
330
1F
100
AcDbEntity
  8
0
  6
CONTINUOUS
 62
     7
100
AcDbLine
 10
-76.220942728
 20
-137.9630178874
 30
0.0
 11
-87.1495141566
 21
-137.9630178874
 31
0.0
  0
LINE
  5
BD
330
1F
100
AcDbEntity
  8
0
  6
CONTINUOUS
 62
     7
100
AcDbLine
 10
-76.220942728
 20
-140.9630178874
 30
0.0
 11
-76.220942728
 21
-137.9630178874
 31
0.0
  0
SPLINE
  5
BE
330
1F
100
AcDbEntity
  8
0
  6
CONTINUOUS
 62
     7
100
AcDbSpline
210
0.0
220
0.0
230
1.0
 70
    24
 71
     1
 72
     4
 73
     2
 74
     0
 42
0.00000001
 43
0.00000001
 40
0.6875
 40
0.6875
 40
1.0
 40
1.0
 10
-76.22094272804559
 20
-140.9630178874208
 30
0.0
 10
-71.22094272804557
 20
-140.9630178874208
 30
0.0
  0
LINE
  5
BF
330
1F
100
AcDbEntity
  8
0
  6
CONTINUOUS
 62
     7
100
AcDbLine
 10
-71.220942728
 20
-140.9630178874
 30
0.0
 11
-71.220942728
 21
-137.9630178874
 31
0.0
  0
LINE
  5
C0
330
1F
100
AcDbEntity
  8
0
  6
CONTINUOUS
 62
     7
100
AcDbLine
 10
-60.2923712995
 20
-137.9630178874
 30
0.0
 11
-71.220942728
 21
-137.9630178874
 31
0.0
  0
LINE
  5
C1
330
1F
100
AcDbEntity
  8
0
  6
CONTINUOUS
 62
     7
100
AcDbLine
 10
-60.2923712995
 20
-140.9630178874
 30
0.0
 11
-60.2923712995
 21
-137.9630178874
 31
0.0
  0
SPLINE
  5
C2
330
1F
100
AcDbEntity
  8
0
  6
CONTINUOUS
 62
     7
100
AcDbSpline
210
0.0
220
0.0
230
1.0
 70
    24
 71
     1
 72
     4
 73
     2
 74
     0
 42
0.00000001
 43
0.00000001
 40
0.6875
 40
0.6875
 40
1.0
 40
1.0
 10
-60.29237129947418
 20
-140.9630178874208
 30
0.0
 10
-55.29237129947418
 20
-140.9630178874208
 30
0.0
  0
LINE
  5
C3
330
1F
100
AcDbEntity
  8
0
  6
CONTINUOUS
 62
     7
100
AcDbLine
 10
-55.2923712995
 20
-140.9630178874
 30
0.0
 11
-55.2923712995
 21
-137.9630178874
 31
0.0
  0
LINE
  5
C4
330
1F
100
AcDbEntity
  8
0
  6
CONTINUOUS
 62
     7
100
AcDbLine
 10
-44.3637998709
 20
-137.9630178874
 30
0.0
 11
-55.2923712995
 21
-137.9630178874
 31
0.0
  0
LINE
  5
C5
330
1F
100
AcDbEntity
  8
0
  6
CONTINUOUS
 62
     7
100
AcDbLine
 10
-44.3637998709
 20
-140.9630178874
 30
0.0
 11
-44.3637998709
 21
-137.9630178874
 31
0.0
  0
SPLINE
  5
C6
330
1F
100
AcDbEntity
  8
0
  6
CONTINUOUS
 62
     7
100
AcDbSpline
210
0.0
220
0.0
230
1.0
 70
    24
 71
     1
 72
     4
 73
     2
 74
     0
 42
0.00000001
 43
0.00000001
 40
0.6875
 40
0.6875
 40
1.0
 40
1.0
 10
-44.36379987090275
 20
-140.9630178874208
 30
0.0
 10
-39.36379987090275
 20
-140.9630178874208
 30
0.0
  0
LINE
  5
C7
330
1F
100
AcDbEntity
  8
0
  6
CONTINUOUS
 62
     7
100
AcDbLine
 10
-39.3637998709
 20
-140.9630178874
 30
0.0
 11
-39.3637998709
 21
-137.9630178874
 31
0.0
  0
LINE
  5
C8
330
1F
100
AcDbEntity
  8
0
  6
CONTINUOUS
 62
     7
100
AcDbLine
 10
-28.4352284423
 20
-137.9630178874
 30
0.0
 11
-39.3637998709
 21
-137.9630178874
 31
0.0
  0
LINE
  5
C9
330
1F
100
AcDbEntity
  8
0
  6
CONTINUOUS
 62
     7
100
AcDbLine
 10
-28.4352284423
 20
-140.9630178874
 30
0.0
 11
-28.4352284423
 21
-137.9630178874
 31
0.0
  0
SPLINE
  5
CA
330
1F
100
AcDbEntity
  8
0
  6
CONTINUOUS
 62
     7
100
AcDbSpline
210
0.0
220
0.0
230
1.0
 70
    24
 71
     1
 72
     4
 73
     2
 74
     0
 42
0.00000001
 43
0.00000001
 40
0.6875
 40
0.6875
 40
1.0
 40
1.0
 10
-28.43522844233132
 20
-140.9630178874208
 30
0.0
 10
-23.43522844233132
 20
-140.9630178874208
 30
0.0
  0
LINE
  5
CB
330
1F
100
AcDbEntity
  8
0
  6
CONTINUOUS
 62
     7
100
AcDbLine
 10
-23.4352284423
 20
-140.9630178874
 30
0.0
 11
-23.4352284423
 21
-137.9630178874
 31
0.0
  0
LINE
  5
CC
330
1F
100
AcDbEntity
  8
0
  6
CONTINUOUS
 62
     7
100
AcDbLine
 10
-12.5066570138
 20
-137.9630178874
 30
0.0
 11
-23.4352284423
 21
-137.9630178874
 31
0.0
  0
LINE
  5
CD
330
1F
100
AcDbEntity
  8
0
  6
CONTINUOUS
 62
     7
100
AcDbLine
 10
-12.5066570138
 20
-140.9630178874
 30
0.0
 11
-12.5066570138
 21
-137.9630178874
 31
0.0
  0
SPLINE
  5
CE
330
1F
100
AcDbEntity
  8
0
  6
CONTINUOUS
 62
     7
100
AcDbSpline
210
0.0
220
0.0
230
1.0
 70
    24
 71
     1
 72
     4
 73
     2
 74
     0
 42
0.00000001
 43
0.00000001
 40
0.6875
 40
0.6875
 40
1.0
 40
1.0
 10
-12.50665701375989
 20
-140.9630178874208
 30
0.0
 10
-7.506657013759888
 20
-140.9630178874208
 30
0.0
  0
LINE
  5
CF
330
1F
100
AcDbEntity
  8
0
  6
CONTINUOUS
 62
     7
100
AcDbLine
 10
-7.5066570138
 20
-140.9630178874
 30
0.0
 11
-7.5066570138
 21
-137.9630178874
 31
0.0
  0
LINE
  5
D0
330
1F
100
AcDbEntity
  8
0
  6
CONTINUOUS
 62
     7
100
AcDbLine
 10
3.4219144148
 20
-137.9630178874
 30
0.0
 11
-7.5066570138
 21
-137.9630178874
 31
0.0
  0
LINE
  5
D1
330
1F
100
AcDbEntity
  8
0
  6
CONTINUOUS
 62
     7
100
AcDbLine
 10
3.4219144148
 20
-140.9630178874
 30
0.0
 11
3.4219144148
 21
-137.9630178874
 31
0.0
  0
SPLINE
  5
D2
330
1F
100
AcDbEntity
  8
0
  6
CONTINUOUS
 62
     7
100
AcDbSpline
210
0.0
220
0.0
230
1.0
 70
    24
 71
     1
 72
     4
 73
     2
 74
     0
 42
0.00000001
 43
0.00000001
 40
0.6875
 40
0.6875
 40
1.0
 40
1.0
 10
3.421914414811539
 20
-140.9630178874208
 30
0.0
 10
8.421914414811544
 20
-140.9630178874208
 30
0.0
  0
LINE
  5
D3
330
1F
100
AcDbEntity
  8
0
  6
CONTINUOUS
 62
     7
100
AcDbLine
 10
8.4219144148
 20
-140.9630178874
 30
0.0
 11
8.4219144148
 21
-137.9630178874
 31
0.0
  0
LINE
  5
D4
330
1F
100
AcDbEntity
  8
0
  6
CONTINUOUS
 62
     7
100
AcDbLine
 10
19.3504858434
 20
-137.9630178874
 30
0.0
 11
8.4219144148
 21
-137.9630178874
 31
0.0
  0
LINE
  5
D5
330
1F
100
AcDbEntity
  8
0
  6
CONTINUOUS
 62
     7
100
AcDbLine
 10
19.3504858434
 20
-140.9630178874
 30
0.0
 11
19.3504858434
 21
-137.9630178874
 31
0.0
  0
SPLINE
  5
D6
330
1F
100
AcDbEntity
  8
0
  6
CONTINUOUS
 62
     7
100
AcDbSpline
210
0.0
220
0.0
230
1.0
 70
    24
 71
     1
 72
     4
 73
     2
 74
     0
 42
0.00000001
 43
0.00000001
 40
0.6875
 40
0.6875
 40
1.0
 40
1.0
 10
19.35048584338297
 20
-140.9630178874208
 30
0.0
 10
24.35048584338298
 20
-140.9630178874208
 30
0.0
  0
LINE
  5
D7
330
1F
100
AcDbEntity
  8
0
  6
CONTINUOUS
 62
     7
100
AcDbLine
 10
24.3504858434
 20
-140.9630178874
 30
0.0
 11
24.3504858434
 21
-137.9630178874
 31
0.0
  0
LINE
  5
D8
330
1F
100
AcDbEntity
  8
0
  6
CONTINUOUS
 62
     7
100
AcDbLine
 10
35.279057272
 20
-137.9630178874
 30
0.0
 11
24.3504858434
 21
-137.9630178874
 31
0.0
  0
LINE
  5
D9
330
1F
100
AcDbEntity
  8
0
  6
CONTINUOUS
 62
     7
100
AcDbLine
 10
35.279057272
 20
-140.9630178874
 30
0.0
 11
35.279057272
 21
-137.9630178874
 31
0.0
  0
SPLINE
  5
DA
330
1F
100
AcDbEntity
  8
0
  6
CONTINUOUS
 62
     7
100
AcDbSpline
210
0.0
220
0.0
230
1.0
 70
    24
 71
     1
 72
     4
 73
     2
 74
     0
 42
0.00000001
 43
0.00000001
 40
0.6875
 40
0.6875
 40
1.0
 40
1.0
 10
35.27905727195439
 20
-140.9630178874208
 30
0.0
 10
40.27905727195439
 20
-140.9630178874208
 30
0.0
  0
LINE
  5
DB
330
1F
100
AcDbEntity
  8
0
  6
CONTINUOUS
 62
     7
100
AcDbLine
 10
40.279057272
 20
-140.9630178874
 30
0.0
 11
40.279057272
 21
-137.9630178874
 31
0.0
  0
LINE
  5
DC
330
1F
100
AcDbEntity
  8
0
  6
CONTINUOUS
 62
     7
100
AcDbLine
 10
51.2076287005
 20
-137.9630178874
 30
0.0
 11
40.279057272
 21
-137.9630178874
 31
0.0
  0
LINE
  5
DD
330
1F
100
AcDbEntity
  8
0
  6
CONTINUOUS
 62
     7
100
AcDbLine
 10
51.2076287005
 20
-140.9630178874
 30
0.0
 11
51.2076287005
 21
-137.9630178874
 31
0.0
  0
SPLINE
  5
DE
330
1F
100
AcDbEntity
  8
0
  6
CONTINUOUS
 62
     7
100
AcDbSpline
210
0.0
220
0.0
230
1.0
 70
    24
 71
     1
 72
     4
 73
     2
 74
     0
 42
0.00000001
 43
0.00000001
 40
0.6875
 40
0.6875
 40
1.0
 40
1.0
 10
51.20762870052582
 20
-140.9630178874208
 30
0.0
 10
56.20762870052582
 20
-140.9630178874208
 30
0.0
  0
LINE
  5
DF
330
1F
100
AcDbEntity
  8
0
  6
CONTINUOUS
 62
     7
100
AcDbLine
 10
56.2076287005
 20
-140.9630178874
 30
0.0
 11
56.2076287005
 21
-137.9630178874
 31
0.0
  0
LINE
  5
E0
330
1F
100
AcDbEntity
  8
0
  6
CONTINUOUS
 62
     7
100
AcDbLine
 10
67.1362001291
 20
-137.9630178874
 30
0.0
 11
56.2076287005
 21
-137.9630178874
 31
0.0
  0
LINE
  5
E1
330
1F
100
AcDbEntity
  8
0
  6
CONTINUOUS
 62
     7
100
AcDbLine
 10
67.1362001291
 20
-140.9630178874
 30
0.0
 11
67.1362001291
 21
-137.9630178874
 31
0.0
  0
SPLINE
  5
E2
330
1F
100
AcDbEntity
  8
0
  6
CONTINUOUS
 62
     7
100
AcDbSpline
210
0.0
220
0.0
230
1.0
 70
    24
 71
     1
 72
     4
 73
     2
 74
     0
 42
0.00000001
 43
0.00000001
 40
0.6875
 40
0.6875
 40
1.0
 40
1.0
 10
67.13620012909725
 20
-140.9630178874208
 30
0.0
 10
72.13620012909726
 20
-140.9630178874208
 30
0.0
  0
LINE
  5
E3
330
1F
100
AcDbEntity
  8
0
  6
CONTINUOUS
 62
     7
100
AcDbLine
 10
72.1362001291
 20
-140.9630178874
 30
0.0
 11
72.1362001291
 21
-137.9630178874
 31
0.0
  0
LINE
  5
E4
330
1F
100
AcDbEntity
  8
0
  6
CONTINUOUS
 62
     7
100
AcDbLine
 10
83.0647715577
 20
-137.9630178874
 30
0.0
 11
72.1362001291
 21
-137.9630178874
 31
0.0
  0
LINE
  5
E5
330
1F
100
AcDbEntity
  8
0
  6
CONTINUOUS
 62
     7
100
AcDbLine
 10
83.0647715577
 20
-140.9630178874
 30
0.0
 11
83.0647715577
 21
-137.9630178874
 31
0.0
  0
SPLINE
  5
E6
330
1F
100
AcDbEntity
  8
0
  6
CONTINUOUS
 62
     7
100
AcDbSpline
210
0.0
220
0.0
230
1.0
 70
    24
 71
     1
 72
     4
 73
     2
 74
     0
 42
0.00000001
 43
0.00000001
 40
0.6875
 40
0.6875
 40
1.0
 40
1.0
 10
83.06477155766868
 20
-140.9630178874208
 30
0.0
 10
88.06477155766869
 20
-140.9630178874208
 30
0.0
  0
LINE
  5
E7
330
1F
100
AcDbEntity
  8
0
  6
CONTINUOUS
 62
     7
100
AcDbLine
 10
88.0647715577
 20
-140.9630178874
 30
0.0
 11
88.0647715577
 21
-137.9630178874
 31
0.0
  0
LINE
  5
E8
330
1F
100
AcDbEntity
  8
0
  6
CONTINUOUS
 62
     7
100
AcDbLine
 10
98.9933429862
 20
-137.9630178874
 30
0.0
 11
88.0647715577
 21
-137.9630178874
 31
0.0
  0
LINE
  5
E9
330
1F
100
AcDbEntity
  8
0
  6
CONTINUOUS
 62
     7
100
AcDbLine
 10
98.9933429862
 20
-140.9630178874
 30
0.0
 11
98.9933429862
 21
-137.9630178874
 31
0.0
  0
SPLINE
  5
EA
330
1F
100
AcDbEntity
  8
0
  6
CONTINUOUS
 62
     7
100
AcDbSpline
210
0.0
220
0.0
230
1.0
 70
    24
 71
     1
 72
     4
 73
     2
 74
     0
 42
0.00000001
 43
0.00000001
 40
0.6875
 40
0.6875
 40
1.0
 40
1.0
 10
98.99334298624011
 20
-140.9630178874208
 30
0.0
 10
103.9933429862401
 20
-140.9630178874208
 30
0.0
  0
LINE
  5
EB
330
1F
100
AcDbEntity
  8
0
  6
CONTINUOUS
 62
     7
100
AcDbLine
 10
103.9933429862
 20
-140.9630178874
 30
0.0
 11
103.9933429862
 21
-137.9630178874
 31
0.0
  0
LINE
  5
EC
330
1F
100
AcDbEntity
  8
0
  6
CONTINUOUS
 62
     7
100
AcDbLine
 10
114.9219144148
 20
-137.9630178874
 30
0.0
 11
103.9933429862
 21
-137.9630178874
 31
0.0
  0
LINE
  5
ED
330
1F
100
AcDbEntity
  8
0
  6
CONTINUOUS
 62
     7
100
AcDbLine
 10
114.9219144148
 20
-140.9630178874
 30
0.0
 11
114.9219144148
 21
-137.9630178874
 31
0.0
  0
SPLINE
  5
EE
330
1F
100
AcDbEntity
  8
0
  6
CONTINUOUS
 62
     7
100
AcDbSpline
210
0.0
220
0.0
230
1.0
 70
    24
 71
     1
 72
     4
 73
     2
 74
     0
 42
0.00000001
 43
0.00000001
 40
0.6875
 40
0.6875
 40
1.0
 40
1.0
 10
114.9219144148115
 20
-140.9630178874208
 30
0.0
 10
119.9219144148115
 20
-140.9630178874208
 30
0.0
  0
LINE
  5
EF
330
1F
100
AcDbEntity
  8
0
  6
CONTINUOUS
 62
     7
100
AcDbLine
 10
119.9219144148
 20
-140.9630178874
 30
0.0
 11
119.9219144148
 21
-137.9630178874
 31
0.0
  0
LINE
  5
F0
330
1F
100
AcDbEntity
  8
0
  6
CONTINUOUS
 62
     7
100
AcDbLine
 10
124.9219144148
 20
-137.9630178874
 30
0.0
 11
119.9219144148
 21
-137.9630178874
 31
0.0
  0
LINE
  5
F1
330
1F
100
AcDbEntity
  8
0
  6
CONTINUOUS
 62
     7
100
AcDbLine
 10
124.9219144148
 20
-132.9630178874
 30
0.0
 11
124.9219144148
 21
-137.9630178874
 31
0.0
  0
LINE
  5
F2
330
1F
100
AcDbEntity
  8
0
  6
CONTINUOUS
 62
     7
100
AcDbLine
 10
127.9219144148
 20
-132.9630178874
 30
0.0
 11
124.9219144148
 21
-132.9630178874
 31
0.0
  0
SPLINE
  5
F3
330
1F
100
AcDbEntity
  8
0
  6
CONTINUOUS
 62
     7
100
AcDbSpline
210
0.0
220
0.0
230
1.0
 70
    24
 71
     1
 72
     4
 73
     2
 74
     0
 42
0.00000001
 43
0.00000001
 40
0.6875
 40
0.6875
 40
1.0
 40
1.0
 10
127.9219144148115
 20
-127.9630178874208
 30
0.0
 10
127.9219144148115
 20
-132.9630178874208
 30
0.0
  0
LINE
  5
F4
330
1F
100
AcDbEntity
  8
0
  6
CONTINUOUS
 62
     7
100
AcDbLine
 10
127.9219144148
 20
-127.9630178874
 30
0.0
 11
124.9219144148
 21
-127.9630178874
 31
0.0
  0
LINE
  5
F5
330
1F
100
AcDbEntity
  8
0
  6
CONTINUOUS
 62
     7
100
AcDbLine
 10
124.9219144148
 20
-120.391589316
 30
0.0
 11
124.9219144148
 21
-127.9630178874
 31
0.0
  0
LINE
  5
F6
330
1F
100
AcDbEntity
  8
0
  6
CONTINUOUS
 62
     7
100
AcDbLine
 10
127.9219144148
 20
-120.391589316
 30
0.0
 11
124.9219144148
 21
-120.391589316
 31
0.0
  0
SPLINE
  5
F7
330
1F
100
AcDbEntity
  8
0
  6
CONTINUOUS
 62
     7
100
AcDbSpline
210
0.0
220
0.0
230
1.0
 70
    24
 71
     1
 72
     4
 73
     2
 74
     0
 42
0.00000001
 43
0.00000001
 40
0.6875
 40
0.6875
 40
1.0
 40
1.0
 10
127.9219144148115
 20
-115.3915893159923
 30
0.0
 10
127.9219144148115
 20
-120.3915893159923
 30
0.0
  0
LINE
  5
F8
330
1F
100
AcDbEntity
  8
0
  6
CONTINUOUS
 62
     7
100
AcDbLine
 10
127.9219144148
 20
-115.391589316
 30
0.0
 11
124.9219144148
 21
-115.391589316
 31
0.0
  0
LINE
  5
F9
330
1F
100
AcDbEntity
  8
0
  6
CONTINUOUS
 62
     7
100
AcDbLine
 10
124.9219144148
 20
-107.8201607446
 30
0.0
 11
124.9219144148
 21
-115.391589316
 31
0.0
  0
LINE
  5
FA
330
1F
100
AcDbEntity
  8
0
  6
CONTINUOUS
 62
     7
100
AcDbLine
 10
127.9219144148
 20
-107.8201607446
 30
0.0
 11
124.9219144148
 21
-107.8201607446
 31
0.0
  0
SPLINE
  5
FB
330
1F
100
AcDbEntity
  8
0
  6
CONTINUOUS
 62
     7
100
AcDbSpline
210
0.0
220
0.0
230
1.0
 70
    24
 71
     1
 72
     4
 73
     2
 74
     0
 42
0.00000001
 43
0.00000001
 40
0.6875
 40
0.6875
 40
1.0
 40
1.0
 10
127.9219144148115
 20
-102.8201607445637
 30
0.0
 10
127.9219144148115
 20
-107.8201607445637
 30
0.0
  0
LINE
  5
FC
330
1F
100
AcDbEntity
  8
0
  6
CONTINUOUS
 62
     7
100
AcDbLine
 10
127.9219144148
 20
-102.8201607446
 30
0.0
 11
124.9219144148
 21
-102.8201607446
 31
0.0
  0
LINE
  5
FD
330
1F
100
AcDbEntity
  8
0
  6
CONTINUOUS
 62
     7
100
AcDbLine
 10
124.9219144148
 20
-95.2487321731
 30
0.0
 11
124.9219144148
 21
-102.8201607446
 31
0.0
  0
LINE
  5
FE
330
1F
100
AcDbEntity
  8
0
  6
CONTINUOUS
 62
     7
100
AcDbLine
 10
127.9219144148
 20
-95.2487321731
 30
0.0
 11
124.9219144148
 21
-95.2487321731
 31
0.0
  0
SPLINE
  5
FF
330
1F
100
AcDbEntity
  8
0
  6
CONTINUOUS
 62
     7
100
AcDbSpline
210
0.0
220
0.0
230
1.0
 70
    24
 71
     1
 72
     4
 73
     2
 74
     0
 42
0.00000001
 43
0.00000001
 40
0.6875
 40
0.6875
 40
1.0
 40
1.0
 10
127.9219144148115
 20
-90.24873217313511
 30
0.0
 10
127.9219144148115
 20
-95.24873217313512
 30
0.0
  0
LINE
  5
100
330
1F
100
AcDbEntity
  8
0
  6
CONTINUOUS
 62
     7
100
AcDbLine
 10
127.9219144148
 20
-90.2487321731
 30
0.0
 11
124.9219144148
 21
-90.2487321731
 31
0.0
  0
LINE
  5
101
330
1F
100
AcDbEntity
  8
0
  6
CONTINUOUS
 62
     7
100
AcDbLine
 10
124.9219144148
 20
-82.6773036017
 30
0.0
 11
124.9219144148
 21
-90.2487321731
 31
0.0
  0
LINE
  5
102
330
1F
100
AcDbEntity
  8
0
  6
CONTINUOUS
 62
     7
100
AcDbLine
 10
127.9219144148
 20
-82.6773036017
 30
0.0
 11
124.9219144148
 21
-82.6773036017
 31
0.0
  0
SPLINE
  5
103
330
1F
100
AcDbEntity
  8
0
  6
CONTINUOUS
 62
     7
100
AcDbSpline
210
0.0
220
0.0
230
1.0
 70
    24
 71
     1
 72
     4
 73
     2
 74
     0
 42
0.00000001
 43
0.00000001
 40
0.6875
 40
0.6875
 40
1.0
 40
1.0
 10
127.9219144148115
 20
-77.67730360170656
 30
0.0
 10
127.9219144148115
 20
-82.67730360170656
 30
0.0
  0
LINE
  5
104
330
1F
100
AcDbEntity
  8
0
  6
CONTINUOUS
 62
     7
100
AcDbLine
 10
127.9219144148
 20
-77.6773036017
 30
0.0
 11
124.9219144148
 21
-77.6773036017
 31
0.0
  0
LINE
  5
105
330
1F
100
AcDbEntity
  8
0
  6
CONTINUOUS
 62
     7
100
AcDbLine
 10
124.9219144148
 20
-70.1058750303
 30
0.0
 11
124.9219144148
 21
-77.6773036017
 31
0.0
  0
LINE
  5
106
330
1F
100
AcDbEntity
  8
0
  6
CONTINUOUS
 62
     7
100
AcDbLine
 10
127.9219144148
 20
-70.1058750303
 30
0.0
 11
124.9219144148
 21
-70.1058750303
 31
0.0
  0
SPLINE
  5
107
330
1F
100
AcDbEntity
  8
0
  6
CONTINUOUS
 62
     7
100
AcDbSpline
210
0.0
220
0.0
230
1.0
 70
    24
 71
     1
 72
     4
 73
     2
 74
     0
 42
0.00000001
 43
0.00000001
 40
0.6875
 40
0.6875
 40
1.0
 40
1.0
 10
127.9219144148115
 20
-65.10587503027799
 30
0.0
 10
127.9219144148115
 20
-70.10587503027799
 30
0.0
  0
LINE
  5
108
330
1F
100
AcDbEntity
  8
0
  6
CONTINUOUS
 62
     7
100
AcDbLine
 10
127.9219144148
 20
-65.1058750303
 30
0.0
 11
124.9219144148
 21
-65.1058750303
 31
0.0
  0
LINE
  5
109
330
1F
100
AcDbEntity
  8
0
  6
CONTINUOUS
 62
     7
100
AcDbLine
 10
124.9219144148
 20
-57.5344464588
 30
0.0
 11
124.9219144148
 21
-65.1058750303
 31
0.0
  0
LINE
  5
10A
330
1F
100
AcDbEntity
  8
0
  6
CONTINUOUS
 62
     7
100
AcDbLine
 10
127.9219144148
 20
-57.5344464588
 30
0.0
 11
124.9219144148
 21
-57.5344464588
 31
0.0
  0
SPLINE
  5
10B
330
1F
100
AcDbEntity
  8
0
  6
CONTINUOUS
 62
     7
100
AcDbSpline
210
0.0
220
0.0
230
1.0
 70
    24
 71
     1
 72
     4
 73
     2
 74
     0
 42
0.00000001
 43
0.00000001
 40
0.6875
 40
0.6875
 40
1.0
 40
1.0
 10
127.9219144148115
 20
-52.53444645884941
 30
0.0
 10
127.9219144148115
 20
-57.53444645884942
 30
0.0
  0
LINE
  5
10C
330
1F
100
AcDbEntity
  8
0
  6
CONTINUOUS
 62
     7
100
AcDbLine
 10
127.9219144148
 20
-52.5344464588
 30
0.0
 11
124.9219144148
 21
-52.5344464588
 31
0.0
  0
LINE
  5
10D
330
1F
100
AcDbEntity
  8
0
  6
CONTINUOUS
 62
     7
100
AcDbLine
 10
124.9219144148
 20
-44.9630178874
 30
0.0
 11
124.9219144148
 21
-52.5344464588
 31
0.0
  0
LINE
  5
10E
330
1F
100
AcDbEntity
  8
0
  6
CONTINUOUS
 62
     7
100
AcDbLine
 10
127.9219144148
 20
-44.9630178874
 30
0.0
 11
124.9219144148
 21
-44.9630178874
 31
0.0
  0
SPLINE
  5
10F
330
1F
100
AcDbEntity
  8
0
  6
CONTINUOUS
 62
     7
100
AcDbSpline
210
0.0
220
0.0
230
1.0
 70
    24
 71
     1
 72
     4
 73
     2
 74
     0
 42
0.00000001
 43
0.00000001
 40
0.6875
 40
0.6875
 40
1.0
 40
1.0
 10
127.9219144148115
 20
-39.96301788742084
 30
0.0
 10
127.9219144148115
 20
-44.96301788742085
 30
0.0
  0
LINE
  5
110
330
1F
100
AcDbEntity
  8
0
  6
CONTINUOUS
 62
     7
100
AcDbLine
 10
127.9219144148
 20
-39.9630178874
 30
0.0
 11
124.9219144148
 21
-39.9630178874
 31
0.0
  0
LINE
  5
111
330
1F
100
AcDbEntity
  8
0
  6
CONTINUOUS
 62
     7
100
AcDbLine
 10
124.9219144148
 20
-34.9630178874
 30
0.0
 11
124.9219144148
 21
-39.9630178874
 31
0.0
  0
LINE
  5
112
330
1F
100
AcDbEntity
  8
0
  6
CONTINUOUS
 62
     7
100
AcDbLine
 10
124.9219144148
 20
-34.9630178874
 30
0.0
 11
-113.0780855852
 21
-34.9630178874
 31
0.0
  0
SPLINE
  5
113
330
1F
100
AcDbEntity
  8
0
  6
CONTINUOUS
 62
     7
100
AcDbSpline
210
0.0
220
0.0
230
1.0
 70
    24
 71
     1
 72
     4
 73
     2
 74
     0
 42
0.00000001
 43
0.00000001
 40
0.0
 40
0.0
 40
0.1904761904761903
 40
0.1904761904761903
 10
45.0219144148116
 20
-120.9201607445637
 30
0.0
 10
41.8219144148116
 20
-120.9201607445637
 30
0.0
  0
SPLINE
  5
114
330
1F
100
AcDbEntity
  8
0
  6
CONTINUOUS
 62
     7
100
AcDbSpline
210
0.0
220
0.0
230
1.0
 70
    24
 71
     1
 72
     4
 73
     2
 74
     0
 42
0.00000001
 43
0.00000001
 40
0.1904761904761903
 40
0.1904761904761903
 40
0.5
 40
0.5
 10
41.8219144148116
 20
-120.9201607445637
 30
0.0
 10
41.8219144148116
 20
-115.7201607445637
 30
0.0
  0
SPLINE
  5
115
330
1F
100
AcDbEntity
  8
0
  6
CONTINUOUS
 62
     7
100
AcDbSpline
210
0.0
220
0.0
230
1.0
 70
    24
 71
     1
 72
     4
 73
     2
 74
     0
 42
0.00000001
 43
0.00000001
 40
0.5
 40
0.5
 40
0.6904761904761902
 40
0.6904761904761902
 10
41.8219144148116
 20
-115.7201607445637
 30
0.0
 10
45.0219144148116
 20
-115.7201607445637
 30
0.0
  0
SPLINE
  5
116
330
1F
100
AcDbEntity
  8
0
  6
CONTINUOUS
 62
     7
100
AcDbSpline
210
0.0
220
0.0
230
1.0
 70
    24
 71
     1
 72
     4
 73
     2
 74
     0
 42
0.00000001
 43
0.00000001
 40
0.6904761904761902
 40
0.6904761904761902
 40
1.0
 40
1.0
 10
45.0219144148116
 20
-115.7201607445637
 30
0.0
 10
45.0219144148116
 20
-120.9201607445637
 30
0.0
  0
SPLINE
  5
117
330
1F
100
AcDbEntity
  8
0
  6
CONTINUOUS
 62
     7
100
AcDbSpline
210
0.0
220
0.0
230
1.0
 70
    24
 71
     1
 72
     4
 73
     2
 74
     0
 42
0.00000001
 43
0.00000001
 40
0.0
 40
0.0
 40
0.1904761904761903
 40
0.1904761904761903
 10
45.0219144148116
 20
-96.6344464588494
 30
0.0
 10
41.82191441481159
 20
-96.6344464588494
 30
0.0
  0
SPLINE
  5
118
330
1F
100
AcDbEntity
  8
0
  6
CONTINUOUS
 62
     7
100
AcDbSpline
210
0.0
220
0.0
230
1.0
 70
    24
 71
     1
 72
     4
 73
     2
 74
     0
 42
0.00000001
 43
0.00000001
 40
0.1904761904761903
 40
0.1904761904761903
 40
0.5
 40
0.5
 10
41.82191441481159
 20
-96.6344464588494
 30
0.0
 10
41.82191441481159
 20
-91.4344464588494
 30
0.0
  0
SPLINE
  5
119
330
1F
100
AcDbEntity
  8
0
  6
CONTINUOUS
 62
     7
100
AcDbSpline
210
0.0
220
0.0
230
1.0
 70
    24
 71
     1
 72
     4
 73
     2
 74
     0
 42
0.00000001
 43
0.00000001
 40
0.5
 40
0.5
 40
0.6904761904761902
 40
0.6904761904761902
 10
41.82191441481159
 20
-91.4344464588494
 30
0.0
 10
45.0219144148116
 20
-91.4344464588494
 30
0.0
  0
SPLINE
  5
11A
330
1F
100
AcDbEntity
  8
0
  6
CONTINUOUS
 62
     7
100
AcDbSpline
210
0.0
220
0.0
230
1.0
 70
    24
 71
     1
 72
     4
 73
     2
 74
     0
 42
0.00000001
 43
0.00000001
 40
0.6904761904761902
 40
0.6904761904761902
 40
1.0
 40
1.0
 10
45.0219144148116
 20
-91.4344464588494
 30
0.0
 10
45.0219144148116
 20
-96.6344464588494
 30
0.0
  0
SPLINE
  5
11B
330
1F
100
AcDbEntity
  8
0
  6
CONTINUOUS
 62
     7
100
AcDbSpline
210
0.0
220
0.0
230
1.0
 70
    24
 71
     1
 72
     4
 73
     2
 74
     0
 42
0.00000001
 43
0.00000001
 40
0.0
 40
0.0
 40
0.1904761904761903
 40
0.1904761904761903
 10
45.0219144148116
 20
-72.34873217313512
 30
0.0
 10
41.82191441481159
 20
-72.34873217313512
 30
0.0
  0
SPLINE
  5
11C
330
1F
100
AcDbEntity
  8
0
  6
CONTINUOUS
 62
     7
100
AcDbSpline
210
0.0
220
0.0
230
1.0
 70
    24
 71
     1
 72
     4
 73
     2
 74
     0
 42
0.00000001
 43
0.00000001
 40
0.1904761904761903
 40
0.1904761904761903
 40
0.5
 40
0.5
 10
41.82191441481159
 20
-72.34873217313512
 30
0.0
 10
41.82191441481159
 20
-67.1487321731351
 30
0.0
  0
SPLINE
  5
11D
330
1F
100
AcDbEntity
  8
0
  6
CONTINUOUS
 62
     7
100
AcDbSpline
210
0.0
220
0.0
230
1.0
 70
    24
 71
     1
 72
     4
 73
     2
 74
     0
 42
0.00000001
 43
0.00000001
 40
0.5
 40
0.5
 40
0.6904761904761902
 40
0.6904761904761902
 10
41.82191441481159
 20
-67.1487321731351
 30
0.0
 10
45.0219144148116
 20
-67.1487321731351
 30
0.0
  0
SPLINE
  5
11E
330
1F
100
AcDbEntity
  8
0
  6
CONTINUOUS
 62
     7
100
AcDbSpline
210
0.0
220
0.0
230
1.0
 70
    24
 71
     1
 72
     4
 73
     2
 74
     0
 42
0.00000001
 43
0.00000001
 40
0.6904761904761902
 40
0.6904761904761902
 40
1.0
 40
1.0
 10
45.0219144148116
 20
-67.1487321731351
 30
0.0
 10
45.0219144148116
 20
-72.34873217313512
 30
0.0
  0
SPLINE
  5
11F
330
1F
100
AcDbEntity
  8
0
  6
CONTINUOUS
 62
     7
100
AcDbSpline
210
0.0
220
0.0
230
1.0
 70
    24
 71
     1
 72
     4
 73
     2
 74
     0
 42
0.00000001
 43
0.00000001
 40
0.0
 40
0.0
 40
0.1904761904761903
 40
0.1904761904761903
 10
45.0219144148116
 20
-48.06301788742083
 30
0.0
 10
41.82191441481159
 20
-48.06301788742083
 30
0.0
  0
SPLINE
  5
120
330
1F
100
AcDbEntity
  8
0
  6
CONTINUOUS
 62
     7
100
AcDbSpline
210
0.0
220
0.0
230
1.0
 70
    24
 71
     1
 72
     4
 73
     2
 74
     0
 42
0.00000001
 43
0.00000001
 40
0.1904761904761903
 40
0.1904761904761903
 40
0.5
 40
0.5
 10
41.82191441481159
 20
-48.06301788742083
 30
0.0
 10
41.82191441481159
 20
-42.86301788742082
 30
0.0
  0
SPLINE
  5
121
330
1F
100
AcDbEntity
  8
0
  6
CONTINUOUS
 62
     7
100
AcDbSpline
210
0.0
220
0.0
230
1.0
 70
    24
 71
     1
 72
     4
 73
     2
 74
     0
 42
0.00000001
 43
0.00000001
 40
0.5
 40
0.5
 40
0.6904761904761902
 40
0.6904761904761902
 10
41.82191441481159
 20
-42.86301788742082
 30
0.0
 10
45.0219144148116
 20
-42.86301788742082
 30
0.0
  0
SPLINE
  5
122
330
1F
100
AcDbEntity
  8
0
  6
CONTINUOUS
 62
     7
100
AcDbSpline
210
0.0
220
0.0
230
1.0
 70
    24
 71
     1
 72
     4
 73
     2
 74
     0
 42
0.00000001
 43
0.00000001
 40
0.6904761904761902
 40
0.6904761904761902
 40
1.0
 40
1.0
 10
45.0219144148116
 20
-42.86301788742082
 30
0.0
 10
45.0219144148116
 20
-48.06301788742083
 30
0.0
  0
SPLINE
  5
123
330
1F
100
AcDbEntity
  8
0
  6
CONTINUOUS
 62
     7
100
AcDbSpline
210
0.0
220
0.0
230
1.0
 70
    24
 71
     1
 72
     4
 73
     2
 74
     0
 42
0.00000001
 43
0.00000001
 40
0.0
 40
0.0
 40
0.1904761904761903
 40
0.1904761904761903
 10
-29.97808558518838
 20
-120.9201607445637
 30
0.0
 10
-33.17808558518838
 20
-120.9201607445637
 30
0.0
  0
SPLINE
  5
124
330
1F
100
AcDbEntity
  8
0
  6
CONTINUOUS
 62
     7
100
AcDbSpline
210
0.0
220
0.0
230
1.0
 70
    24
 71
     1
 72
     4
 73
     2
 74
     0
 42
0.00000001
 43
0.00000001
 40
0.1904761904761903
 40
0.1904761904761903
 40
0.5
 40
0.5
 10
-33.17808558518838
 20
-120.9201607445637
 30
0.0
 10
-33.17808558518838
 20
-115.7201607445637
 30
0.0
  0
SPLINE
  5
125
330
1F
100
AcDbEntity
  8
0
  6
CONTINUOUS
 62
     7
100
AcDbSpline
210
0.0
220
0.0
230
1.0
 70
    24
 71
     1
 72
     4
 73
     2
 74
     0
 42
0.00000001
 43
0.00000001
 40
0.5
 40
0.5
 40
0.6904761904761902
 40
0.6904761904761902
 10
-33.17808558518838
 20
-115.7201607445637
 30
0.0
 10
-29.97808558518838
 20
-115.7201607445637
 30
0.0
  0
SPLINE
  5
126
330
1F
100
AcDbEntity
  8
0
  6
CONTINUOUS
 62
     7
100
AcDbSpline
210
0.0
220
0.0
230
1.0
 70
    24
 71
     1
 72
     4
 73
     2
 74
     0
 42
0.00000001
 43
0.00000001
 40
0.6904761904761902
 40
0.6904761904761902
 40
1.0
 40
1.0
 10
-29.97808558518838
 20
-115.7201607445637
 30
0.0
 10
-29.97808558518838
 20
-120.9201607445637
 30
0.0
  0
SPLINE
  5
127
330
1F
100
AcDbEntity
  8
0
  6
CONTINUOUS
 62
     7
100
AcDbSpline
210
0.0
220
0.0
230
1.0
 70
    24
 71
     1
 72
     4
 73
     2
 74
     0
 42
0.00000001
 43
0.00000001
 40
0.0
 40
0.0
 40
0.1904761904761903
 40
0.1904761904761903
 10
-29.97808558518838
 20
-96.6344464588494
 30
0.0
 10
-33.17808558518839
 20
-96.6344464588494
 30
0.0
  0
SPLINE
  5
128
330
1F
100
AcDbEntity
  8
0
  6
CONTINUOUS
 62
     7
100
AcDbSpline
210
0.0
220
0.0
230
1.0
 70
    24
 71
     1
 72
     4
 73
     2
 74
     0
 42
0.00000001
 43
0.00000001
 40
0.1904761904761903
 40
0.1904761904761903
 40
0.5
 40
0.5
 10
-33.17808558518839
 20
-96.6344464588494
 30
0.0
 10
-33.17808558518839
 20
-91.4344464588494
 30
0.0
  0
SPLINE
  5
129
330
1F
100
AcDbEntity
  8
0
  6
CONTINUOUS
 62
     7
100
AcDbSpline
210
0.0
220
0.0
230
1.0
 70
    24
 71
     1
 72
     4
 73
     2
 74
     0
 42
0.00000001
 43
0.00000001
 40
0.5
 40
0.5
 40
0.6904761904761902
 40
0.6904761904761902
 10
-33.17808558518839
 20
-91.4344464588494
 30
0.0
 10
-29.97808558518839
 20
-91.4344464588494
 30
0.0
  0
SPLINE
  5
12A
330
1F
100
AcDbEntity
  8
0
  6
CONTINUOUS
 62
     7
100
AcDbSpline
210
0.0
220
0.0
230
1.0
 70
    24
 71
     1
 72
     4
 73
     2
 74
     0
 42
0.00000001
 43
0.00000001
 40
0.6904761904761902
 40
0.6904761904761902
 40
1.0
 40
1.0
 10
-29.97808558518839
 20
-91.4344464588494
 30
0.0
 10
-29.97808558518838
 20
-96.6344464588494
 30
0.0
  0
SPLINE
  5
12B
330
1F
100
AcDbEntity
  8
0
  6
CONTINUOUS
 62
     7
100
AcDbSpline
210
0.0
220
0.0
230
1.0
 70
    24
 71
     1
 72
     4
 73
     2
 74
     0
 42
0.00000001
 43
0.00000001
 40
0.0
 40
0.0
 40
0.1904761904761903
 40
0.1904761904761903
 10
-29.97808558518839
 20
-72.34873217313512
 30
0.0
 10
-33.17808558518839
 20
-72.34873217313512
 30
0.0
  0
SPLINE
  5
12C
330
1F
100
AcDbEntity
  8
0
  6
CONTINUOUS
 62
     7
100
AcDbSpline
210
0.0
220
0.0
230
1.0
 70
    24
 71
     1
 72
     4
 73
     2
 74
     0
 42
0.00000001
 43
0.00000001
 40
0.1904761904761903
 40
0.1904761904761903
 40
0.5
 40
0.5
 10
-33.17808558518839
 20
-72.34873217313512
 30
0.0
 10
-33.17808558518839
 20
-67.1487321731351
 30
0.0
  0
SPLINE
  5
12D
330
1F
100
AcDbEntity
  8
0
  6
CONTINUOUS
 62
     7
100
AcDbSpline
210
0.0
220
0.0
230
1.0
 70
    24
 71
     1
 72
     4
 73
     2
 74
     0
 42
0.00000001
 43
0.00000001
 40
0.5
 40
0.5
 40
0.6904761904761902
 40
0.6904761904761902
 10
-33.17808558518839
 20
-67.1487321731351
 30
0.0
 10
-29.97808558518839
 20
-67.1487321731351
 30
0.0
  0
SPLINE
  5
12E
330
1F
100
AcDbEntity
  8
0
  6
CONTINUOUS
 62
     7
100
AcDbSpline
210
0.0
220
0.0
230
1.0
 70
    24
 71
     1
 72
     4
 73
     2
 74
     0
 42
0.00000001
 43
0.00000001
 40
0.6904761904761902
 40
0.6904761904761902
 40
1.0
 40
1.0
 10
-29.97808558518839
 20
-67.1487321731351
 30
0.0
 10
-29.97808558518839
 20
-72.34873217313512
 30
0.0
  0
SPLINE
  5
12F
330
1F
100
AcDbEntity
  8
0
  6
CONTINUOUS
 62
     7
100
AcDbSpline
210
0.0
220
0.0
230
1.0
 70
    24
 71
     1
 72
     4
 73
     2
 74
     0
 42
0.00000001
 43
0.00000001
 40
0.0
 40
0.0
 40
0.1904761904761903
 40
0.1904761904761903
 10
-29.97808558518839
 20
-48.06301788742084
 30
0.0
 10
-33.17808558518839
 20
-48.06301788742084
 30
0.0
  0
SPLINE
  5
130
330
1F
100
AcDbEntity
  8
0
  6
CONTINUOUS
 62
     7
100
AcDbSpline
210
0.0
220
0.0
230
1.0
 70
    24
 71
     1
 72
     4
 73
     2
 74
     0
 42
0.00000001
 43
0.00000001
 40
0.1904761904761903
 40
0.1904761904761903
 40
0.5
 40
0.5
 10
-33.17808558518839
 20
-48.06301788742084
 30
0.0
 10
-33.17808558518839
 20
-42.86301788742082
 30
0.0
  0
SPLINE
  5
131
330
1F
100
AcDbEntity
  8
0
  6
CONTINUOUS
 62
     7
100
AcDbSpline
210
0.0
220
0.0
230
1.0
 70
    24
 71
     1
 72
     4
 73
     2
 74
     0
 42
0.00000001
 43
0.00000001
 40
0.5
 40
0.5
 40
0.6904761904761902
 40
0.6904761904761902
 10
-33.17808558518839
 20
-42.86301788742082
 30
0.0
 10
-29.97808558518839
 20
-42.86301788742082
 30
0.0
  0
SPLINE
  5
132
330
1F
100
AcDbEntity
  8
0
  6
CONTINUOUS
 62
     7
100
AcDbSpline
210
0.0
220
0.0
230
1.0
 70
    24
 71
     1
 72
     4
 73
     2
 74
     0
 42
0.00000001
 43
0.00000001
 40
0.6904761904761902
 40
0.6904761904761902
 40
1.0
 40
1.0
 10
-29.97808558518839
 20
-42.86301788742082
 30
0.0
 10
-29.97808558518839
 20
-48.06301788742084
 30
0.0
  0
MTEXT
  5
134
330
1F
100
AcDbEntity
  8
0
  6
CONTINUOUS
 62
     7
100
AcDbMText
 10
-116.0780855852
 20
-141.9825842791
 30
0.0
 40
4.83362
 41
0.0
 71
     1
 72
     1
  1
SOLIDWORKS \U+0434\U+043B\U+044F \U+0443\U+0447\U+0435\U+0431\U+043D\U+044B\U+0445 \U+0437\U+0430\U+0432\U+0435\U+0434\U+0435\U+043D\U+0438\U+0439.
  7
SLDTEXTSTYLE0
  0
MTEXT
  5
135
330
1F
100
AcDbEntity
  8
0
  6
CONTINUOUS
 62
     7
100
AcDbMText
 10
-116.0780855852
 20
-149.2330142791
 30
0.0
 40
4.83362
 41
0.0
 71
     1
 72
     1
  1
\U+0422\U+043E\U+043B\U+044C\U+043A\U+043E \U+0434\U+043B\U+044F \U+043E\U+0431\U+0443\U+0447\U+0430\U+044E\U+0449\U+0438\U+0445 \U+0446\U+0435\U+043B\U+0435\U+0439.
  7
SLDTEXTSTYLE0
  0
ENDSEC
  0
SECTION
  2
OBJECTS
  0
DICTIONARY
  5
C
330
0
100
AcDbDictionary
  3
ACAD_GROUP
350
D
  3
ACAD_MLINESTYLE
350
17
  3
ACAD_SCALELIST
350
47
  3
DWGPROPS
350
136
  0
DICTIONARY
  5
D
102
{ACAD_REACTORS
330
C
102
}
330
C
100
AcDbDictionary
  0
DICTIONARY
  5
17
102
{ACAD_REACTORS
330
C
102
}
330
C
100
AcDbDictionary
  3
STANDARD
350
18
  0
DICTIONARY
  5
47
102
{ACAD_REACTORS
330
C
102
}
330
C
100
AcDbDictionary
  0
XRECORD
  5
136
102
{ACAD_REACTORS
330
C
102
}
330
C
100
AcDbXrecord
  1
DWGPROPS COOKIE
  2

  3

  4

  6

  7

  8
Student
  9

300
=
301
=
302
=
303
=
304
=
305
=
306
=
307
=
308
=
309
=
 40
0.0
 41
2460801.693183704
 42
2460801.69320787
  1

 90
        0
  0
MLINESTYLE
  5
18
102
{ACAD_REACTORS
330
17
102
}
330
17
100
AcDbMlineStyle
  2
Standard
 70
     0
  3

 62
   256
 51
90.0
 52
90.0
 71
     2
 49
0.5
 62
   256
  6
BYLAYER
 49
-0.5
 62
   256
  6
BYLAYER
  0
ENDSEC
  0
EOF
