  0
SECTION
  2
HEADER
  9
$ACADVER
  1
AC1014
  9
$ACADMAINTVER
 70
     9
  9
$DWGCODEPAGE
  3
ANSI_1251
  9
$INSBASE
 10
0.0
 20
0.0
 30
0.0
  9
$EXTMIN
 10
-140.9630178874
 20
-56.7572016461
 30
0.0
  9
$EXTMAX
 10
-32.9630178874
 20
46.2427983539
 30
0.0
  9
$LIMMIN
 10
0.0
 20
0.0
  9
$LIMMAX
 10
420.0
 20
297.0
  9
$ORTHOMODE
 70
     0
  9
$REGENMODE
 70
     1
  9
$FILLMODE
 70
     1
  9
$QTEXTMODE
 70
     0
  9
$MIRRTEXT
 70
     1
  9
$DRAGMODE
 70
     2
  9
$LTSCALE
 40
1.0
  9
$OSMODE
 70
    37
  9
$ATTMODE
 70
     1
  9
$TEXTSIZE
 40
4.0
  9
$TRACEWID
 40
1.0
  9
$TEXTSTYLE
  7
STANDARD
  9
$CLAYER
  8
0
  9
$CELTYPE
  6
BYLAYER
  9
$CECOLOR
 62
   256
  9
$CELTSCALE
 40
1.0
  9
$DELOBJ
 70
     1
  9
$DISPSILH
 70
     0
  9
$DIMSCALE
 40
1.0
  9
$DIMASZ
 40
6.0
  9
$DIMEXO
 40
0.0
  9
$DIMDLI
 40
3.75
  9
$DIMRND
 40
0.0
  9
$DIMDLE
 40
0.0
  9
$DIMEXE
 40
1.0
  9
$DIMTP
 40
0.0
  9
$DIMTM
 40
0.0
  9
$DIMTXT
 40
4.0
  9
$DIMCEN
 40
2.5
  9
$DIMTSZ
 40
0.0
  9
$DIMTOL
 70
     0
  9
$DIMLIM
 70
     0
  9
$DIMTIH
 70
     1
  9
$DIMTOH
 70
     1
  9
$DIMSE1
 70
     0
  9
$DIMSE2
 70
     0
  9
$DIMTAD
 70
     1
  9
$DIMZIN
 70
     0
  9
$DIMBLK
  1

  9
$DIMASO
 70
     1
  9
$DIMSHO
 70
     1
  9
$DIMPOST
  1

  9
$DIMAPOST
  1

  9
$DIMALT
 70
     0
  9
$DIMALTD
 70
     3
  9
$DIMALTF
 40
0.0393700787
  9
$DIMLFAC
 40
1.0
  9
$DIMTOFL
 70
     1
  9
$DIMTVP
 40
0.0
  9
$DIMTIX
 70
     0
  9
$DIMSOXD
 70
     0
  9
$DIMSAH
 70
     0
  9
$DIMBLK1
  1

  9
$DIMBLK2
  1

  9
$DIMSTYLE
  2
ISO-25
  9
$DIMCLRD
 70
     0
  9
$DIMCLRE
 70
     0
  9
$DIMCLRT
 70
     0
  9
$DIMTFAC
 40
1.0
  9
$DIMGAP
 40
3.0
  9
$DIMJUST
 70
     0
  9
$DIMSD1
 70
     0
  9
$DIMSD2
 70
     0
  9
$DIMTOLJ
 70
     0
  9
$DIMTZIN
 70
     0
  9
$DIMALTZ
 70
     0
  9
$DIMALTTZ
 70
     0
  9
$DIMFIT
 70
     3
  9
$DIMUPT
 70
     0
  9
$DIMUNIT
 70
     2
  9
$DIMDEC
 70
     2
  9
$DIMTDEC
 70
     4
  9
$DIMALTU
 70
     2
  9
$DIMALTTD
 70
     3
  9
$DIMTXSTY
  7
STANDARD
  9
$DIMAUNIT
 70
     0
  9
$LUNITS
 70
     2
  9
$LUPREC
 70
     2
  9
$SKETCHINC
 40
1.0
  9
$FILLETRAD
 40
10.0
  9
$AUNITS
 70
     0
  9
$AUPREC
 70
     2
  9
$MENU
  1
.
  9
$ELEVATION
 40
0.0
  9
$PELEVATION
 40
0.0
  9
$THICKNESS
 40
0.0
  9
$LIMCHECK
 70
     0
  9
$CHAMFERA
 40
0.0
  9
$CHAMFERB
 40
0.0
  9
$CHAMFERC
 40
0.0
  9
$CHAMFERD
 40
0.0
  9
$SKPOLY
 70
     0
  9
$TDCREATE
 40
2460801.820285347
  9
$TDUPDATE
 40
2460801.820309641
  9
$TDINDWG
 40
0.0000000116
  9
$TDUSRTIMER
 40
0.0000000116
  9
$USRTIMER
 70
     1
  9
$ANGBASE
 50
0.0
  9
$ANGDIR
 70
     0
  9
$PDMODE
 70
     0
  9
$PDSIZE
 40
-1.0
  9
$PLINEWID
 40
0.0
  9
$COORDS
 70
     1
  9
$SPLFRAME
 70
     0
  9
$SPLINETYPE
 70
     6
  9
$SPLINESEGS
 70
     8
  9
$ATTDIA
 70
     0
  9
$ATTREQ
 70
     1
  9
$HANDLING
 70
     1
  9
$HANDSEED
  5
D3
  9
$SURFTAB1
 70
     6
  9
$SURFTAB2
 70
     6
  9
$SURFTYPE
 70
     6
  9
$SURFU
 70
     6
  9
$SURFV
 70
     6
  9
$UCSNAME
  2

  9
$UCSORG
 10
0.0
 20
0.0
 30
0.0
  9
$UCSXDIR
 10
1.0
 20
0.0
 30
0.0
  9
$UCSYDIR
 10
0.0
 20
1.0
 30
0.0
  9
$PUCSNAME
  2

  9
$PUCSORG
 10
0.0
 20
0.0
 30
0.0
  9
$PUCSXDIR
 10
1.0
 20
0.0
 30
0.0
  9
$PUCSYDIR
 10
0.0
 20
1.0
 30
0.0
  9
$USERI1
 70
     0
  9
$USERI2
 70
     0
  9
$USERI3
 70
     0
  9
$USERI4
 70
     0
  9
$USERI5
 70
     0
  9
$USERR1
 40
0.0
  9
$USERR2
 40
0.0
  9
$USERR3
 40
0.0
  9
$USERR4
 40
0.0
  9
$USERR5
 40
0.0
  9
$WORLDVIEW
 70
     1
  9
$SHADEDGE
 70
     3
  9
$SHADEDIF
 70
    70
  9
$TILEMODE
 70
     1
  9
$MAXACTVP
 70
    64
  9
$PINSBASE
 10
0.0
 20
0.0
 30
0.0
  9
$PLIMCHECK
 70
     0
  9
$PEXTMIN
 10
1.0000000000E+20
 20
1.0000000000E+20
 30
1.0000000000E+20
  9
$PEXTMAX
 10
-1.0000000000E+20
 20
-1.0000000000E+20
 30
-1.0000000000E+20
  9
$PLIMMIN
 10
0.0
 20
0.0
  9
$PLIMMAX
 10
420.0
 20
297.0
  9
$UNITMODE
 70
     0
  9
$VISRETAIN
 70
     1
  9
$PLINEGEN
 70
     0
  9
$PSLTSCALE
 70
     1
  9
$TREEDEPTH
 70
  3020
  9
$PICKSTYLE
 70
     1
  9
$CMLSTYLE
  2
STANDARD
  9
$CMLJUST
 70
     0
  9
$CMLSCALE
 40
20.0
  9
$PROXYGRAPHICS
 70
     1
  9
$MEASUREMENT
 70
     1
  0
ENDSEC
  0
SECTION
  2
CLASSES
  0
CLASS
  1
ACDBDICTIONARYWDFLT
  2
AcDbDictionaryWithDefault
  3
ObjectDBX Classes
 90
        0
280
     0
281
     0
  0
CLASS
  1
VISUALSTYLE
  2
AcDbVisualStyle
  3
ObjectDBX Classes
 90
     4095
280
     0
281
     0
  0
CLASS
  1
MATERIAL
  2
AcDbMaterial
  3
ObjectDBX Classes
 90
     1153
280
     0
281
     0
  0
CLASS
  1
SCALE
  2
AcDbScale
  3
ObjectDBX Classes
 90
     1153
280
     0
281
     0
  0
CLASS
  1
TABLESTYLE
  2
AcDbTableStyle
  3
ObjectDBX Classes
 90
     4095
280
     0
281
     0
  0
CLASS
  1
MLEADERSTYLE
  2
AcDbMLeaderStyle
  3
ACDB_MLEADERSTYLE_CLASS
 90
     4095
280
     0
281
     0
  0
CLASS
  1
SUN
  2
AcDbSun
  3
SCENEOE
 90
     1153
280
     0
281
     0
  0
CLASS
  1
XRECORD
  2
AcDbXrecord
  3
ObjectDBX Classes
 90
        0
280
     0
281
     0
  0
CLASS
  1
LWPOLYLINE
  2
AcDbPolyline
  3
ObjectDBX Classes
 90
        0
280
     0
281
     1
  0
CLASS
  1
HATCH
  2
AcDbHatch
  3
ObjectDBX Classes
 90
        0
280
     0
281
     1
  0
ENDSEC
  0
SECTION
  2
TABLES
  0
TABLE
  2
VPORT
  5
8
330
0
100
AcDbSymbolTable
 70
     1
  0
VPORT
  5
29
330
8
100
AcDbSymbolTableRecord
100
AcDbViewportTableRecord
  2
*ACTIVE
 70
     0
 10
0.0
 20
0.0
 11
1.0
 21
1.0
 12
-86.9630178874
 22
-5.2572016461
 13
0.0
 23
0.0
 14
10.0
 24
10.0
 15
10.0
 25
10.0
 16
0.0
 26
0.0
 36
1.0
 17
0.0
 27
0.0
 37
0.0
 40
105.06
 41
1.0485436893
 42
50.0
 43
0.0
 44
0.0
 50
0.0
 51
0.0
 71
     0
 72
   100
 73
     1
 74
     3
 75
     0
 76
     0
 77
     0
 78
     0
  0
ENDTAB
  0
TABLE
  2
LTYPE
  5
5
330
0
100
AcDbSymbolTable
 70
     6
  0
LTYPE
  5
14
330
5
100
AcDbSymbolTableRecord
100
AcDbLinetypeTableRecord
  2
BYBLOCK
 70
     0
  3

 72
    65
 73
     0
 40
0.0
  0
LTYPE
  5
15
330
5
100
AcDbSymbolTableRecord
100
AcDbLinetypeTableRecord
  2
BYLAYER
 70
     0
  3

 72
    65
 73
     0
 40
0.0
  0
LTYPE
  5
16
330
5
100
AcDbSymbolTableRecord
100
AcDbLinetypeTableRecord
  2
CONTINUOUS
 70
     0
  3
Solid line
 72
    65
 73
     0
 40
0.0
  0
LTYPE
  5
6E
330
5
100
AcDbSymbolTableRecord
100
AcDbLinetypeTableRecord
  2
HIDDEN
 70
     0
  3
Hidden __ __ __ __ __ __ __ __ __ __ __ __ __ __
 72
    65
 73
     2
 40
1.905
 49
1.27
 74
     0
 49
-0.635
 74
     0
  0
LTYPE
  5
6F
330
5
100
AcDbSymbolTableRecord
100
AcDbLinetypeTableRecord
  2
PHANTOM
 70
     0
  3
Phantom ______  __  __  ______  __  __  ______
 72
    65
 73
     6
 40
12.7
 49
6.35
 74
     0
 49
-1.27
 74
     0
 49
1.27
 74
     0
 49
-1.27
 74
     0
 49
1.27
 74
     0
 49
-1.27
 74
     0
  0
LTYPE
  5
70
330
5
100
AcDbSymbolTableRecord
100
AcDbLinetypeTableRecord
  2
CENTER
 70
     0
  3
Center ____ _ ____ _ ____ _ ____ _ ____ _ ____
 72
    65
 73
     4
 40
10.16
 49
6.35
 74
     0
 49
-1.27
 74
     0
 49
1.27
 74
     0
 49
-1.27
 74
     0
  0
LTYPE
  5
71
330
5
100
AcDbSymbolTableRecord
100
AcDbLinetypeTableRecord
  2
CENTERX2
 70
     0
  3
Center (2x) ________  __  ________  __  _____
 72
    65
 73
     4
 40
20.32
 49
12.7
 74
     0
 49
-2.54
 74
     0
 49
2.54
 74
     0
 49
-2.54
 74
     0
  0
LTYPE
  5
72
330
5
100
AcDbSymbolTableRecord
100
AcDbLinetypeTableRecord
  2
DOT2
 70
     0
  3
Dot (.5x) ........................................
 72
    65
 73
     2
 40
0.635
 49
0.0
 74
     0
 49
-0.635
 74
     0
  0
ENDTAB
  0
TABLE
  2
LAYER
  5
2
330
0
100
AcDbSymbolTable
 70
     1
  0
LAYER
  5
10
330
2
100
AcDbSymbolTableRecord
100
AcDbLayerTableRecord
  2
0
 70
     0
 62
     7
  6
CONTINUOUS
  0
ENDTAB
  0
TABLE
  2
STYLE
  5
3
330
0
100
AcDbSymbolTable
 70
     2
  0
STYLE
  5
11
330
3
100
AcDbSymbolTableRecord
100
AcDbTextStyleTableRecord
  2
STANDARD
 70
     0
 40
0.0
 41
1.0
 50
0.0
 71
     0
 42
4.0
  3
txt
  4

  0
STYLE
  5
CF
330
3
100
AcDbSymbolTableRecord
100
AcDbTextStyleTableRecord
  2
SLDTEXTSTYLE0
 70
     0
 40
0.0
 41
0.7
 50
0.0
 71
     0
 42
4.0
  3
TXT
  4
bigfont
  0
ENDTAB
  0
TABLE
  2
VIEW
  5
6
330
0
100
AcDbSymbolTable
 70
     0
  0
ENDTAB
  0
TABLE
  2
UCS
  5
7
330
0
100
AcDbSymbolTable
 70
     0
  0
ENDTAB
  0
TABLE
  2
APPID
  5
9
330
0
100
AcDbSymbolTable
 70
     1
  0
APPID
  5
12
330
9
100
AcDbSymbolTableRecord
100
AcDbRegAppTableRecord
  2
ACAD
 70
     0
  0
ENDTAB
  0
TABLE
  2
DIMSTYLE
  5
A
330
0
100
AcDbSymbolTable
 70
     1
  0
DIMSTYLE
105
27
330
A
100
AcDbSymbolTableRecord
100
AcDbDimStyleTableRecord
  2
ISO-25
 70
     0
  3

  4

  5

  6

  7

 40
1.0
 41
2.5
 42
0.625
 43
3.75
 44
1.25
 45
0.0
 46
0.0
 47
0.0
 48
0.0
140
2.5
141
2.5
142
0.0
143
0.0393700787
144
1.0
145
0.0
146
1.0
147
0.625
 71
     0
 72
     0
 73
     0
 74
     0
 75
     0
 76
     0
 77
     1
 78
     8
170
     0
171
     3
172
     1
173
     0
174
     0
175
     0
176
     0
177
     0
178
     0
270
     2
271
     2
272
     2
273
     2
274
     3
340
11
275
     0
280
     0
281
     0
282
     0
283
     0
284
     8
285
     0
286
     0
287
     3
288
     0
  0
ENDTAB
  0
TABLE
  2
BLOCK_RECORD
  5
1
330
0
100
AcDbSymbolTable
 70
     1
  0
BLOCK_RECORD
  5
1F
330
1
100
AcDbSymbolTableRecord
100
AcDbBlockTableRecord
  2
*MODEL_SPACE
  0
BLOCK_RECORD
  5
1B
330
1
100
AcDbSymbolTableRecord
100
AcDbBlockTableRecord
  2
*PAPER_SPACE
  0
BLOCK_RECORD
  5
23
330
1
100
AcDbSymbolTableRecord
100
AcDbBlockTableRecord
  2
*PAPER_SPACE0
  0
ENDTAB
  0
ENDSEC
  0
SECTION
  2
BLOCKS
  0
BLOCK
  5
20
330
1F
100
AcDbEntity
  8
0
100
AcDbBlockBegin
  2
*MODEL_SPACE
 70
     0
 10
0.0
 20
0.0
 30
0.0
  3
*MODEL_SPACE
  1

  0
ENDBLK
  5
21
330
1F
100
AcDbEntity
  8
0
100
AcDbBlockEnd
  0
BLOCK
  5
1C
330
1B
100
AcDbEntity
 67
     1
  8
0
100
AcDbBlockBegin
  2
*PAPER_SPACE
 70
     0
 10
0.0
 20
0.0
 30
0.0
  3
*PAPER_SPACE
  1

  0
ENDBLK
  5
1D
330
1B
100
AcDbEntity
 67
     1
  8
0
100
AcDbBlockEnd
  0
BLOCK
  5
24
330
23
100
AcDbEntity
  8
0
100
AcDbBlockBegin
  2
*PAPER_SPACE0
 70
     0
 10
0.0
 20
0.0
 30
0.0
  3
*PAPER_SPACE0
  1

  0
ENDBLK
  5
25
330
23
100
AcDbEntity
  8
0
100
AcDbBlockEnd
  0
ENDSEC
  0
SECTION
  2
ENTITIES
  0
LINE
  5
73
330
1F
100
AcDbEntity
  8
0
  6
CONTINUOUS
 62
     7
100
AcDbLine
 10
-37.9630178874
 20
-53.7572016461
 30
0.0
 11
-37.9630178874
 21
-48.7572016461
 31
0.0
  0
LINE
  5
74
330
1F
100
AcDbEntity
  8
0
  6
CONTINUOUS
 62
     7
100
AcDbLine
 10
-32.9630178874
 20
-48.7572016461
 30
0.0
 11
-37.9630178874
 21
-48.7572016461
 31
0.0
  0
SPLINE
  5
75
330
1F
100
AcDbEntity
  8
0
  6
CONTINUOUS
 62
     7
100
AcDbSpline
210
0.0
220
0.0
230
1.0
 70
    24
 71
     1
 72
     4
 73
     2
 74
     0
 42
0.00000001
 43
0.00000001
 40
0.6875
 40
0.6875
 40
1.0
 40
1.0
 10
-32.96301788742085
 20
-43.75720164609058
 30
0.0
 10
-32.96301788742085
 20
-48.75720164609058
 30
0.0
  0
LINE
  5
76
330
1F
100
AcDbEntity
  8
0
  6
CONTINUOUS
 62
     7
100
AcDbLine
 10
-32.9630178874
 20
-43.7572016461
 30
0.0
 11
-37.9630178874
 21
-43.7572016461
 31
0.0
  0
LINE
  5
77
330
1F
100
AcDbEntity
  8
0
  6
CONTINUOUS
 62
     7
100
AcDbLine
 10
-37.9630178874
 20
-43.7572016461
 30
0.0
 11
-37.9630178874
 21
-31.7572016461
 31
0.0
  0
LINE
  5
78
330
1F
100
AcDbEntity
  8
0
  6
CONTINUOUS
 62
     7
100
AcDbLine
 10
-32.9630178874
 20
-31.7572016461
 30
0.0
 11
-37.9630178874
 21
-31.7572016461
 31
0.0
  0
SPLINE
  5
79
330
1F
100
AcDbEntity
  8
0
  6
CONTINUOUS
 62
     7
100
AcDbSpline
210
0.0
220
0.0
230
1.0
 70
    24
 71
     1
 72
     4
 73
     2
 74
     0
 42
0.00000001
 43
0.00000001
 40
0.6875
 40
0.6875
 40
1.0
 40
1.0
 10
-32.96301788742085
 20
-26.75720164609058
 30
0.0
 10
-32.96301788742085
 20
-31.75720164609058
 30
0.0
  0
LINE
  5
7A
330
1F
100
AcDbEntity
  8
0
  6
CONTINUOUS
 62
     7
100
AcDbLine
 10
-32.9630178874
 20
-26.7572016461
 30
0.0
 11
-37.9630178874
 21
-26.7572016461
 31
0.0
  0
LINE
  5
7B
330
1F
100
AcDbEntity
  8
0
  6
CONTINUOUS
 62
     7
100
AcDbLine
 10
-37.9630178874
 20
-26.7572016461
 30
0.0
 11
-37.9630178874
 21
-14.7572016461
 31
0.0
  0
LINE
  5
7C
330
1F
100
AcDbEntity
  8
0
  6
CONTINUOUS
 62
     7
100
AcDbLine
 10
-32.9630178874
 20
-14.7572016461
 30
0.0
 11
-37.9630178874
 21
-14.7572016461
 31
0.0
  0
SPLINE
  5
7D
330
1F
100
AcDbEntity
  8
0
  6
CONTINUOUS
 62
     7
100
AcDbSpline
210
0.0
220
0.0
230
1.0
 70
    24
 71
     1
 72
     4
 73
     2
 74
     0
 42
0.00000001
 43
0.00000001
 40
0.6875
 40
0.6875
 40
1.0
 40
1.0
 10
-32.96301788742085
 20
-9.757201646090577
 30
0.0
 10
-32.96301788742085
 20
-14.75720164609058
 30
0.0
  0
LINE
  5
7E
330
1F
100
AcDbEntity
  8
0
  6
CONTINUOUS
 62
     7
100
AcDbLine
 10
-32.9630178874
 20
-9.7572016461
 30
0.0
 11
-37.9630178874
 21
-9.7572016461
 31
0.0
  0
LINE
  5
7F
330
1F
100
AcDbEntity
  8
0
  6
CONTINUOUS
 62
     7
100
AcDbLine
 10
-37.9630178874
 20
-9.7572016461
 30
0.0
 11
-37.9630178874
 21
2.2427983539
 31
0.0
  0
LINE
  5
80
330
1F
100
AcDbEntity
  8
0
  6
CONTINUOUS
 62
     7
100
AcDbLine
 10
-32.9630178874
 20
2.2427983539
 30
0.0
 11
-37.9630178874
 21
2.2427983539
 31
0.0
  0
SPLINE
  5
81
330
1F
100
AcDbEntity
  8
0
  6
CONTINUOUS
 62
     7
100
AcDbSpline
210
0.0
220
0.0
230
1.0
 70
    24
 71
     1
 72
     4
 73
     2
 74
     0
 42
0.00000001
 43
0.00000001
 40
0.6875
 40
0.6875
 40
1.0
 40
1.0
 10
-32.96301788742085
 20
7.242798353909424
 30
0.0
 10
-32.96301788742085
 20
2.242798353909427
 30
0.0
  0
LINE
  5
82
330
1F
100
AcDbEntity
  8
0
  6
CONTINUOUS
 62
     7
100
AcDbLine
 10
-32.9630178874
 20
7.2427983539
 30
0.0
 11
-37.9630178874
 21
7.2427983539
 31
0.0
  0
LINE
  5
83
330
1F
100
AcDbEntity
  8
0
  6
CONTINUOUS
 62
     7
100
AcDbLine
 10
-37.9630178874
 20
7.2427983539
 30
0.0
 11
-37.9630178874
 21
19.2427983539
 31
0.0
  0
LINE
  5
84
330
1F
100
AcDbEntity
  8
0
  6
CONTINUOUS
 62
     7
100
AcDbLine
 10
-32.9630178874
 20
19.2427983539
 30
0.0
 11
-37.9630178874
 21
19.2427983539
 31
0.0
  0
SPLINE
  5
85
330
1F
100
AcDbEntity
  8
0
  6
CONTINUOUS
 62
     7
100
AcDbSpline
210
0.0
220
0.0
230
1.0
 70
    24
 71
     1
 72
     4
 73
     2
 74
     0
 42
0.00000001
 43
0.00000001
 40
0.6875
 40
0.6875
 40
1.0
 40
1.0
 10
-32.96301788742085
 20
24.24279835390942
 30
0.0
 10
-32.96301788742085
 20
19.24279835390943
 30
0.0
  0
LINE
  5
86
330
1F
100
AcDbEntity
  8
0
  6
CONTINUOUS
 62
     7
100
AcDbLine
 10
-32.9630178874
 20
24.2427983539
 30
0.0
 11
-37.9630178874
 21
24.2427983539
 31
0.0
  0
LINE
  5
87
330
1F
100
AcDbEntity
  8
0
  6
CONTINUOUS
 62
     7
100
AcDbLine
 10
-37.9630178874
 20
24.2427983539
 30
0.0
 11
-37.9630178874
 21
36.2427983539
 31
0.0
  0
LINE
  5
88
330
1F
100
AcDbEntity
  8
0
  6
CONTINUOUS
 62
     7
100
AcDbLine
 10
-32.9630178874
 20
36.2427983539
 30
0.0
 11
-37.9630178874
 21
36.2427983539
 31
0.0
  0
SPLINE
  5
89
330
1F
100
AcDbEntity
  8
0
  6
CONTINUOUS
 62
     7
100
AcDbSpline
210
0.0
220
0.0
230
1.0
 70
    24
 71
     1
 72
     4
 73
     2
 74
     0
 42
0.00000001
 43
0.00000001
 40
0.6875
 40
0.6875
 40
1.0
 40
1.0
 10
-32.96301788742085
 20
41.24279835390943
 30
0.0
 10
-32.96301788742085
 20
36.24279835390943
 30
0.0
  0
LINE
  5
8A
330
1F
100
AcDbEntity
  8
0
  6
CONTINUOUS
 62
     7
100
AcDbLine
 10
-32.9630178874
 20
41.2427983539
 30
0.0
 11
-37.9630178874
 21
41.2427983539
 31
0.0
  0
LINE
  5
8B
330
1F
100
AcDbEntity
  8
0
  6
CONTINUOUS
 62
     7
100
AcDbLine
 10
-37.9630178874
 20
41.2427983539
 30
0.0
 11
-37.9630178874
 21
46.2427983539
 31
0.0
  0
LINE
  5
8C
330
1F
100
AcDbEntity
  8
0
  6
CONTINUOUS
 62
     7
100
AcDbLine
 10
-137.9630178874
 20
46.2427983539
 30
0.0
 11
-37.9630178874
 21
46.2427983539
 31
0.0
  0
LINE
  5
8D
330
1F
100
AcDbEntity
  8
0
  6
CONTINUOUS
 62
     7
100
AcDbLine
 10
-137.9630178874
 20
41.2427983539
 30
0.0
 11
-137.9630178874
 21
46.2427983539
 31
0.0
  0
LINE
  5
8E
330
1F
100
AcDbEntity
  8
0
  6
CONTINUOUS
 62
     7
100
AcDbLine
 10
-140.9630178874
 20
41.2427983539
 30
0.0
 11
-137.9630178874
 21
41.2427983539
 31
0.0
  0
SPLINE
  5
8F
330
1F
100
AcDbEntity
  8
0
  6
CONTINUOUS
 62
     7
100
AcDbSpline
210
0.0
220
0.0
230
1.0
 70
    24
 71
     1
 72
     4
 73
     2
 74
     0
 42
0.00000001
 43
0.00000001
 40
0.6875
 40
0.6875
 40
1.0
 40
1.0
 10
-140.9630178874208
 20
41.24279835390943
 30
0.0
 10
-140.9630178874208
 20
36.24279835390943
 30
0.0
  0
LINE
  5
90
330
1F
100
AcDbEntity
  8
0
  6
CONTINUOUS
 62
     7
100
AcDbLine
 10
-140.9630178874
 20
36.2427983539
 30
0.0
 11
-137.9630178874
 21
36.2427983539
 31
0.0
  0
LINE
  5
91
330
1F
100
AcDbEntity
  8
0
  6
CONTINUOUS
 62
     7
100
AcDbLine
 10
-137.9630178874
 20
29.0999412111
 30
0.0
 11
-137.9630178874
 21
36.2427983539
 31
0.0
  0
LINE
  5
92
330
1F
100
AcDbEntity
  8
0
  6
CONTINUOUS
 62
     7
100
AcDbLine
 10
-140.9630178874
 20
29.0999412111
 30
0.0
 11
-137.9630178874
 21
29.0999412111
 31
0.0
  0
SPLINE
  5
93
330
1F
100
AcDbEntity
  8
0
  6
CONTINUOUS
 62
     7
100
AcDbSpline
210
0.0
220
0.0
230
1.0
 70
    24
 71
     1
 72
     4
 73
     2
 74
     0
 42
0.00000001
 43
0.00000001
 40
0.6875
 40
0.6875
 40
1.0
 40
1.0
 10
-140.9630178874208
 20
29.09994121105229
 30
0.0
 10
-140.9630178874208
 20
24.09994121105229
 30
0.0
  0
LINE
  5
94
330
1F
100
AcDbEntity
  8
0
  6
CONTINUOUS
 62
     7
100
AcDbLine
 10
-140.9630178874
 20
24.0999412111
 30
0.0
 11
-137.9630178874
 21
24.0999412111
 31
0.0
  0
LINE
  5
95
330
1F
100
AcDbEntity
  8
0
  6
CONTINUOUS
 62
     7
100
AcDbLine
 10
-137.9630178874
 20
16.9570840682
 30
0.0
 11
-137.9630178874
 21
24.0999412111
 31
0.0
  0
LINE
  5
96
330
1F
100
AcDbEntity
  8
0
  6
CONTINUOUS
 62
     7
100
AcDbLine
 10
-140.9630178874
 20
16.9570840682
 30
0.0
 11
-137.9630178874
 21
16.9570840682
 31
0.0
  0
SPLINE
  5
97
330
1F
100
AcDbEntity
  8
0
  6
CONTINUOUS
 62
     7
100
AcDbSpline
210
0.0
220
0.0
230
1.0
 70
    24
 71
     1
 72
     4
 73
     2
 74
     0
 42
0.00000001
 43
0.00000001
 40
0.6875
 40
0.6875
 40
1.0
 40
1.0
 10
-140.9630178874208
 20
16.95708406819514
 30
0.0
 10
-140.9630178874208
 20
11.95708406819514
 30
0.0
  0
LINE
  5
98
330
1F
100
AcDbEntity
  8
0
  6
CONTINUOUS
 62
     7
100
AcDbLine
 10
-140.9630178874
 20
11.9570840682
 30
0.0
 11
-137.9630178874
 21
11.9570840682
 31
0.0
  0
LINE
  5
99
330
1F
100
AcDbEntity
  8
0
  6
CONTINUOUS
 62
     7
100
AcDbLine
 10
-137.9630178874
 20
4.8142269253
 30
0.0
 11
-137.9630178874
 21
11.9570840682
 31
0.0
  0
LINE
  5
9A
330
1F
100
AcDbEntity
  8
0
  6
CONTINUOUS
 62
     7
100
AcDbLine
 10
-140.9630178874
 20
4.8142269253
 30
0.0
 11
-137.9630178874
 21
4.8142269253
 31
0.0
  0
SPLINE
  5
9B
330
1F
100
AcDbEntity
  8
0
  6
CONTINUOUS
 62
     7
100
AcDbSpline
210
0.0
220
0.0
230
1.0
 70
    24
 71
     1
 72
     4
 73
     2
 74
     0
 42
0.00000001
 43
0.00000001
 40
0.6875
 40
0.6875
 40
1.0
 40
1.0
 10
-140.9630178874208
 20
4.814226925337999
 30
0.0
 10
-140.9630178874208
 20
-0.185773074661999
 30
0.0
  0
LINE
  5
9C
330
1F
100
AcDbEntity
  8
0
  6
CONTINUOUS
 62
     7
100
AcDbLine
 10
-140.9630178874
 20
-0.1857730747
 30
0.0
 11
-137.9630178874
 21
-0.1857730747
 31
0.0
  0
LINE
  5
9D
330
1F
100
AcDbEntity
  8
0
  6
CONTINUOUS
 62
     7
100
AcDbLine
 10
-137.9630178874
 20
-7.3286302175
 30
0.0
 11
-137.9630178874
 21
-0.1857730747
 31
0.0
  0
LINE
  5
9E
330
1F
100
AcDbEntity
  8
0
  6
CONTINUOUS
 62
     7
100
AcDbLine
 10
-140.9630178874
 20
-7.3286302175
 30
0.0
 11
-137.9630178874
 21
-7.3286302175
 31
0.0
  0
SPLINE
  5
9F
330
1F
100
AcDbEntity
  8
0
  6
CONTINUOUS
 62
     7
100
AcDbSpline
210
0.0
220
0.0
230
1.0
 70
    24
 71
     1
 72
     4
 73
     2
 74
     0
 42
0.00000001
 43
0.00000001
 40
0.6875
 40
0.6875
 40
1.0
 40
1.0
 10
-140.9630178874208
 20
-7.328630217519144
 30
0.0
 10
-140.9630178874208
 20
-12.32863021751914
 30
0.0
  0
LINE
  5
A0
330
1F
100
AcDbEntity
  8
0
  6
CONTINUOUS
 62
     7
100
AcDbLine
 10
-140.9630178874
 20
-12.3286302175
 30
0.0
 11
-137.9630178874
 21
-12.3286302175
 31
0.0
  0
LINE
  5
A1
330
1F
100
AcDbEntity
  8
0
  6
CONTINUOUS
 62
     7
100
AcDbLine
 10
-137.9630178874
 20
-19.4714873604
 30
0.0
 11
-137.9630178874
 21
-12.3286302175
 31
0.0
  0
LINE
  5
A2
330
1F
100
AcDbEntity
  8
0
  6
CONTINUOUS
 62
     7
100
AcDbLine
 10
-140.9630178874
 20
-19.4714873604
 30
0.0
 11
-137.9630178874
 21
-19.4714873604
 31
0.0
  0
SPLINE
  5
A3
330
1F
100
AcDbEntity
  8
0
  6
CONTINUOUS
 62
     7
100
AcDbSpline
210
0.0
220
0.0
230
1.0
 70
    24
 71
     1
 72
     4
 73
     2
 74
     0
 42
0.00000001
 43
0.00000001
 40
0.6875
 40
0.6875
 40
1.0
 40
1.0
 10
-140.9630178874208
 20
-19.47148736037629
 30
0.0
 10
-140.9630178874208
 20
-24.47148736037629
 30
0.0
  0
LINE
  5
A4
330
1F
100
AcDbEntity
  8
0
  6
CONTINUOUS
 62
     7
100
AcDbLine
 10
-140.9630178874
 20
-24.4714873604
 30
0.0
 11
-137.9630178874
 21
-24.4714873604
 31
0.0
  0
LINE
  5
A5
330
1F
100
AcDbEntity
  8
0
  6
CONTINUOUS
 62
     7
100
AcDbLine
 10
-137.9630178874
 20
-31.6143445032
 30
0.0
 11
-137.9630178874
 21
-24.4714873604
 31
0.0
  0
LINE
  5
A6
330
1F
100
AcDbEntity
  8
0
  6
CONTINUOUS
 62
     7
100
AcDbLine
 10
-140.9630178874
 20
-31.6143445032
 30
0.0
 11
-137.9630178874
 21
-31.6143445032
 31
0.0
  0
SPLINE
  5
A7
330
1F
100
AcDbEntity
  8
0
  6
CONTINUOUS
 62
     7
100
AcDbSpline
210
0.0
220
0.0
230
1.0
 70
    24
 71
     1
 72
     4
 73
     2
 74
     0
 42
0.00000001
 43
0.00000001
 40
0.6875
 40
0.6875
 40
1.0
 40
1.0
 10
-140.9630178874208
 20
-31.61434450323344
 30
0.0
 10
-140.9630178874208
 20
-36.61434450323343
 30
0.0
  0
LINE
  5
A8
330
1F
100
AcDbEntity
  8
0
  6
CONTINUOUS
 62
     7
100
AcDbLine
 10
-140.9630178874
 20
-36.6143445032
 30
0.0
 11
-137.9630178874
 21
-36.6143445032
 31
0.0
  0
LINE
  5
A9
330
1F
100
AcDbEntity
  8
0
  6
CONTINUOUS
 62
     7
100
AcDbLine
 10
-137.9630178874
 20
-43.7572016461
 30
0.0
 11
-137.9630178874
 21
-36.6143445032
 31
0.0
  0
LINE
  5
AA
330
1F
100
AcDbEntity
  8
0
  6
CONTINUOUS
 62
     7
100
AcDbLine
 10
-140.9630178874
 20
-43.7572016461
 30
0.0
 11
-137.9630178874
 21
-43.7572016461
 31
0.0
  0
SPLINE
  5
AB
330
1F
100
AcDbEntity
  8
0
  6
CONTINUOUS
 62
     7
100
AcDbSpline
210
0.0
220
0.0
230
1.0
 70
    24
 71
     1
 72
     4
 73
     2
 74
     0
 42
0.00000001
 43
0.00000001
 40
0.6875
 40
0.6875
 40
1.0
 40
1.0
 10
-140.9630178874208
 20
-43.75720164609058
 30
0.0
 10
-140.9630178874208
 20
-48.75720164609058
 30
0.0
  0
LINE
  5
AC
330
1F
100
AcDbEntity
  8
0
  6
CONTINUOUS
 62
     7
100
AcDbLine
 10
-140.9630178874
 20
-48.7572016461
 30
0.0
 11
-137.9630178874
 21
-48.7572016461
 31
0.0
  0
LINE
  5
AD
330
1F
100
AcDbEntity
  8
0
  6
CONTINUOUS
 62
     7
100
AcDbLine
 10
-137.9630178874
 20
-53.7572016461
 30
0.0
 11
-137.9630178874
 21
-48.7572016461
 31
0.0
  0
LINE
  5
AE
330
1F
100
AcDbEntity
  8
0
  6
CONTINUOUS
 62
     7
100
AcDbLine
 10
-137.9630178874
 20
-53.7572016461
 30
0.0
 11
-132.9630178874
 21
-53.7572016461
 31
0.0
  0
LINE
  5
AF
330
1F
100
AcDbEntity
  8
0
  6
CONTINUOUS
 62
     7
100
AcDbLine
 10
-132.9630178874
 20
-56.7572016461
 30
0.0
 11
-132.9630178874
 21
-53.7572016461
 31
0.0
  0
SPLINE
  5
B0
330
1F
100
AcDbEntity
  8
0
  6
CONTINUOUS
 62
     7
100
AcDbSpline
210
0.0
220
0.0
230
1.0
 70
    24
 71
     1
 72
     4
 73
     2
 74
     0
 42
0.00000001
 43
0.00000001
 40
0.6874999999999999
 40
0.6874999999999999
 40
1.0
 40
1.0
 10
-127.9630178874208
 20
-56.75720164609058
 30
0.0
 10
-132.9630178874208
 20
-56.75720164609058
 30
0.0
  0
LINE
  5
B1
330
1F
100
AcDbEntity
  8
0
  6
CONTINUOUS
 62
     7
100
AcDbLine
 10
-127.9630178874
 20
-56.7572016461
 30
0.0
 11
-127.9630178874
 21
-53.7572016461
 31
0.0
  0
LINE
  5
B2
330
1F
100
AcDbEntity
  8
0
  6
CONTINUOUS
 62
     7
100
AcDbLine
 10
-127.9630178874
 20
-53.7572016461
 30
0.0
 11
-120.8201607446
 21
-53.7572016461
 31
0.0
  0
LINE
  5
B3
330
1F
100
AcDbEntity
  8
0
  6
CONTINUOUS
 62
     7
100
AcDbLine
 10
-120.8201607446
 20
-56.7572016461
 30
0.0
 11
-120.8201607446
 21
-53.7572016461
 31
0.0
  0
SPLINE
  5
B4
330
1F
100
AcDbEntity
  8
0
  6
CONTINUOUS
 62
     7
100
AcDbSpline
210
0.0
220
0.0
230
1.0
 70
    24
 71
     1
 72
     4
 73
     2
 74
     0
 42
0.00000001
 43
0.00000001
 40
0.6874999999999999
 40
0.6874999999999999
 40
1.0
 40
1.0
 10
-115.8201607445637
 20
-56.75720164609058
 30
0.0
 10
-120.8201607445637
 20
-56.75720164609058
 30
0.0
  0
LINE
  5
B5
330
1F
100
AcDbEntity
  8
0
  6
CONTINUOUS
 62
     7
100
AcDbLine
 10
-115.8201607446
 20
-56.7572016461
 30
0.0
 11
-115.8201607446
 21
-53.7572016461
 31
0.0
  0
LINE
  5
B6
330
1F
100
AcDbEntity
  8
0
  6
CONTINUOUS
 62
     7
100
AcDbLine
 10
-115.8201607446
 20
-53.7572016461
 30
0.0
 11
-108.6773036017
 21
-53.7572016461
 31
0.0
  0
LINE
  5
B7
330
1F
100
AcDbEntity
  8
0
  6
CONTINUOUS
 62
     7
100
AcDbLine
 10
-108.6773036017
 20
-56.7572016461
 30
0.0
 11
-108.6773036017
 21
-53.7572016461
 31
0.0
  0
SPLINE
  5
B8
330
1F
100
AcDbEntity
  8
0
  6
CONTINUOUS
 62
     7
100
AcDbSpline
210
0.0
220
0.0
230
1.0
 70
    24
 71
     1
 72
     4
 73
     2
 74
     0
 42
0.00000001
 43
0.00000001
 40
0.6874999999999999
 40
0.6874999999999999
 40
1.0
 40
1.0
 10
-103.6773036017066
 20
-56.75720164609058
 30
0.0
 10
-108.6773036017066
 20
-56.75720164609058
 30
0.0
  0
LINE
  5
B9
330
1F
100
AcDbEntity
  8
0
  6
CONTINUOUS
 62
     7
100
AcDbLine
 10
-103.6773036017
 20
-56.7572016461
 30
0.0
 11
-103.6773036017
 21
-53.7572016461
 31
0.0
  0
LINE
  5
BA
330
1F
100
AcDbEntity
  8
0
  6
CONTINUOUS
 62
     7
100
AcDbLine
 10
-103.6773036017
 20
-53.7572016461
 30
0.0
 11
-96.5344464588
 21
-53.7572016461
 31
0.0
  0
LINE
  5
BB
330
1F
100
AcDbEntity
  8
0
  6
CONTINUOUS
 62
     7
100
AcDbLine
 10
-96.5344464588
 20
-56.7572016461
 30
0.0
 11
-96.5344464588
 21
-53.7572016461
 31
0.0
  0
SPLINE
  5
BC
330
1F
100
AcDbEntity
  8
0
  6
CONTINUOUS
 62
     7
100
AcDbSpline
210
0.0
220
0.0
230
1.0
 70
    24
 71
     1
 72
     4
 73
     2
 74
     0
 42
0.00000001
 43
0.00000001
 40
0.6874999999999999
 40
0.6874999999999999
 40
1.0
 40
1.0
 10
-91.5344464588494
 20
-56.75720164609058
 30
0.0
 10
-96.53444645884942
 20
-56.75720164609058
 30
0.0
  0
LINE
  5
BD
330
1F
100
AcDbEntity
  8
0
  6
CONTINUOUS
 62
     7
100
AcDbLine
 10
-91.5344464588
 20
-56.7572016461
 30
0.0
 11
-91.5344464588
 21
-53.7572016461
 31
0.0
  0
LINE
  5
BE
330
1F
100
AcDbEntity
  8
0
  6
CONTINUOUS
 62
     7
100
AcDbLine
 10
-91.5344464588
 20
-53.7572016461
 30
0.0
 11
-84.391589316
 21
-53.7572016461
 31
0.0
  0
LINE
  5
BF
330
1F
100
AcDbEntity
  8
0
  6
CONTINUOUS
 62
     7
100
AcDbLine
 10
-84.391589316
 20
-56.7572016461
 30
0.0
 11
-84.391589316
 21
-53.7572016461
 31
0.0
  0
SPLINE
  5
C0
330
1F
100
AcDbEntity
  8
0
  6
CONTINUOUS
 62
     7
100
AcDbSpline
210
0.0
220
0.0
230
1.0
 70
    24
 71
     1
 72
     4
 73
     2
 74
     0
 42
0.00000001
 43
0.00000001
 40
0.6874999999999999
 40
0.6874999999999999
 40
1.0
 40
1.0
 10
-79.39158931599228
 20
-56.75720164609058
 30
0.0
 10
-84.39158931599228
 20
-56.75720164609058
 30
0.0
  0
LINE
  5
C1
330
1F
100
AcDbEntity
  8
0
  6
CONTINUOUS
 62
     7
100
AcDbLine
 10
-79.391589316
 20
-56.7572016461
 30
0.0
 11
-79.391589316
 21
-53.7572016461
 31
0.0
  0
LINE
  5
C2
330
1F
100
AcDbEntity
  8
0
  6
CONTINUOUS
 62
     7
100
AcDbLine
 10
-79.391589316
 20
-53.7572016461
 30
0.0
 11
-72.2487321731
 21
-53.7572016461
 31
0.0
  0
LINE
  5
C3
330
1F
100
AcDbEntity
  8
0
  6
CONTINUOUS
 62
     7
100
AcDbLine
 10
-72.2487321731
 20
-56.7572016461
 30
0.0
 11
-72.2487321731
 21
-53.7572016461
 31
0.0
  0
SPLINE
  5
C4
330
1F
100
AcDbEntity
  8
0
  6
CONTINUOUS
 62
     7
100
AcDbSpline
210
0.0
220
0.0
230
1.0
 70
    24
 71
     1
 72
     4
 73
     2
 74
     0
 42
0.00000001
 43
0.00000001
 40
0.6874999999999999
 40
0.6874999999999999
 40
1.0
 40
1.0
 10
-67.24873217313512
 20
-56.75720164609058
 30
0.0
 10
-72.24873217313512
 20
-56.75720164609058
 30
0.0
  0
LINE
  5
C5
330
1F
100
AcDbEntity
  8
0
  6
CONTINUOUS
 62
     7
100
AcDbLine
 10
-67.2487321731
 20
-56.7572016461
 30
0.0
 11
-67.2487321731
 21
-53.7572016461
 31
0.0
  0
LINE
  5
C6
330
1F
100
AcDbEntity
  8
0
  6
CONTINUOUS
 62
     7
100
AcDbLine
 10
-67.2487321731
 20
-53.7572016461
 30
0.0
 11
-60.1058750303
 21
-53.7572016461
 31
0.0
  0
LINE
  5
C7
330
1F
100
AcDbEntity
  8
0
  6
CONTINUOUS
 62
     7
100
AcDbLine
 10
-60.1058750303
 20
-56.7572016461
 30
0.0
 11
-60.1058750303
 21
-53.7572016461
 31
0.0
  0
SPLINE
  5
C8
330
1F
100
AcDbEntity
  8
0
  6
CONTINUOUS
 62
     7
100
AcDbSpline
210
0.0
220
0.0
230
1.0
 70
    24
 71
     1
 72
     4
 73
     2
 74
     0
 42
0.00000001
 43
0.00000001
 40
0.6874999999999999
 40
0.6874999999999999
 40
1.0
 40
1.0
 10
-55.10587503027797
 20
-56.75720164609058
 30
0.0
 10
-60.10587503027798
 20
-56.75720164609058
 30
0.0
  0
LINE
  5
C9
330
1F
100
AcDbEntity
  8
0
  6
CONTINUOUS
 62
     7
100
AcDbLine
 10
-55.1058750303
 20
-56.7572016461
 30
0.0
 11
-55.1058750303
 21
-53.7572016461
 31
0.0
  0
LINE
  5
CA
330
1F
100
AcDbEntity
  8
0
  6
CONTINUOUS
 62
     7
100
AcDbLine
 10
-55.1058750303
 20
-53.7572016461
 30
0.0
 11
-47.9630178874
 21
-53.7572016461
 31
0.0
  0
LINE
  5
CB
330
1F
100
AcDbEntity
  8
0
  6
CONTINUOUS
 62
     7
100
AcDbLine
 10
-47.9630178874
 20
-56.7572016461
 30
0.0
 11
-47.9630178874
 21
-53.7572016461
 31
0.0
  0
SPLINE
  5
CC
330
1F
100
AcDbEntity
  8
0
  6
CONTINUOUS
 62
     7
100
AcDbSpline
210
0.0
220
0.0
230
1.0
 70
    24
 71
     1
 72
     4
 73
     2
 74
     0
 42
0.00000001
 43
0.00000001
 40
0.6874999999999999
 40
0.6874999999999999
 40
1.0
 40
1.0
 10
-42.96301788742084
 20
-56.75720164609058
 30
0.0
 10
-47.96301788742084
 20
-56.75720164609058
 30
0.0
  0
LINE
  5
CD
330
1F
100
AcDbEntity
  8
0
  6
CONTINUOUS
 62
     7
100
AcDbLine
 10
-42.9630178874
 20
-56.7572016461
 30
0.0
 11
-42.9630178874
 21
-53.7572016461
 31
0.0
  0
LINE
  5
CE
330
1F
100
AcDbEntity
  8
0
  6
CONTINUOUS
 62
     7
100
AcDbLine
 10
-42.9630178874
 20
-53.7572016461
 30
0.0
 11
-37.9630178874
 21
-53.7572016461
 31
0.0
  0
MTEXT
  5
D0
330
1F
100
AcDbEntity
  8
0
  6
CONTINUOUS
 62
     7
100
AcDbMText
 10
-140.9630178874
 20
-57.7767680378
 30
0.0
 40
4.83362
 41
0.0
 71
     1
 72
     1
  1
SOLIDWORKS \U+0434\U+043B\U+044F \U+0443\U+0447\U+0435\U+0431\U+043D\U+044B\U+0445 \U+0437\U+0430\U+0432\U+0435\U+0434\U+0435\U+043D\U+0438\U+0439.
  7
SLDTEXTSTYLE0
  0
MTEXT
  5
D1
330
1F
100
AcDbEntity
  8
0
  6
CONTINUOUS
 62
     7
100
AcDbMText
 10
-140.9630178874
 20
-65.0271980378
 30
0.0
 40
4.83362
 41
0.0
 71
     1
 72
     1
  1
\U+0422\U+043E\U+043B\U+044C\U+043A\U+043E \U+0434\U+043B\U+044F \U+043E\U+0431\U+0443\U+0447\U+0430\U+044E\U+0449\U+0438\U+0445 \U+0446\U+0435\U+043B\U+0435\U+0439.
  7
SLDTEXTSTYLE0
  0
ENDSEC
  0
SECTION
  2
OBJECTS
  0
DICTIONARY
  5
C
330
0
100
AcDbDictionary
  3
ACAD_GROUP
350
D
  3
ACAD_MLINESTYLE
350
17
  3
ACAD_SCALELIST
350
47
  3
DWGPROPS
350
D2
  0
DICTIONARY
  5
D
102
{ACAD_REACTORS
330
C
102
}
330
C
100
AcDbDictionary
  0
DICTIONARY
  5
17
102
{ACAD_REACTORS
330
C
102
}
330
C
100
AcDbDictionary
  3
STANDARD
350
18
  0
DICTIONARY
  5
47
102
{ACAD_REACTORS
330
C
102
}
330
C
100
AcDbDictionary
  0
XRECORD
  5
D2
102
{ACAD_REACTORS
330
C
102
}
330
C
100
AcDbXrecord
  1
DWGPROPS COOKIE
  2

  3

  4

  6

  7

  8
Student
  9

300
=
301
=
302
=
303
=
304
=
305
=
306
=
307
=
308
=
309
=
 40
0.0
 41
2460801.695285347
 42
2460801.695309641
  1

 90
        0
  0
MLINESTYLE
  5
18
102
{ACAD_REACTORS
330
17
102
}
330
17
100
AcDbMlineStyle
  2
Standard
 70
     0
  3

 62
   256
 51
90.0
 52
90.0
 71
     2
 49
0.5
 62
   256
  6
BYLAYER
 49
-0.5
 62
   256
  6
BYLAYER
  0
ENDSEC
  0
EOF
