  0
SECTION
  2
HEADER
  9
$ACADVER
  1
AC1014
  9
$ACADMAINTVER
 70
     9
  9
$DWGCODEPAGE
  3
ANSI_1251
  9
$INSBASE
 10
0.0
 20
0.0
 30
0.0
  9
$EXTMIN
 10
-116.0780855852
 20
-56.7572016461
 30
0.0
  9
$EXTMAX
 10
127.9219144148
 20
56.2427983539
 30
0.0
  9
$LIMMIN
 10
0.0
 20
0.0
  9
$LIMMAX
 10
420.0
 20
297.0
  9
$ORTHOMODE
 70
     0
  9
$REGENMODE
 70
     1
  9
$FILLMODE
 70
     1
  9
$QTEXTMODE
 70
     0
  9
$MIRRTEXT
 70
     1
  9
$DRAGMODE
 70
     2
  9
$LTSCALE
 40
1.0
  9
$OSMODE
 70
    37
  9
$ATTMODE
 70
     1
  9
$TEXTSIZE
 40
4.0
  9
$TRACEWID
 40
1.0
  9
$TEXTSTYLE
  7
STANDARD
  9
$CLAYER
  8
0
  9
$CELTYPE
  6
BYLAYER
  9
$CECOLOR
 62
   256
  9
$CELTSCALE
 40
1.0
  9
$DELOBJ
 70
     1
  9
$DISPSILH
 70
     0
  9
$DIMSCALE
 40
1.0
  9
$DIMASZ
 40
6.0
  9
$DIMEXO
 40
0.0
  9
$DIMDLI
 40
3.75
  9
$DIMRND
 40
0.0
  9
$DIMDLE
 40
0.0
  9
$DIMEXE
 40
1.0
  9
$DIMTP
 40
0.0
  9
$DIMTM
 40
0.0
  9
$DIMTXT
 40
4.0
  9
$DIMCEN
 40
2.5
  9
$DIMTSZ
 40
0.0
  9
$DIMTOL
 70
     0
  9
$DIMLIM
 70
     0
  9
$DIMTIH
 70
     1
  9
$DIMTOH
 70
     1
  9
$DIMSE1
 70
     0
  9
$DIMSE2
 70
     0
  9
$DIMTAD
 70
     1
  9
$DIMZIN
 70
     0
  9
$DIMBLK
  1

  9
$DIMASO
 70
     1
  9
$DIMSHO
 70
     1
  9
$DIMPOST
  1

  9
$DIMAPOST
  1

  9
$DIMALT
 70
     0
  9
$DIMALTD
 70
     3
  9
$DIMALTF
 40
0.0393700787
  9
$DIMLFAC
 40
1.0
  9
$DIMTOFL
 70
     1
  9
$DIMTVP
 40
0.0
  9
$DIMTIX
 70
     0
  9
$DIMSOXD
 70
     0
  9
$DIMSAH
 70
     0
  9
$DIMBLK1
  1

  9
$DIMBLK2
  1

  9
$DIMSTYLE
  2
ISO-25
  9
$DIMCLRD
 70
     0
  9
$DIMCLRE
 70
     0
  9
$DIMCLRT
 70
     0
  9
$DIMTFAC
 40
1.0
  9
$DIMGAP
 40
3.0
  9
$DIMJUST
 70
     0
  9
$DIMSD1
 70
     0
  9
$DIMSD2
 70
     0
  9
$DIMTOLJ
 70
     0
  9
$DIMTZIN
 70
     0
  9
$DIMALTZ
 70
     0
  9
$DIMALTTZ
 70
     0
  9
$DIMFIT
 70
     3
  9
$DIMUPT
 70
     0
  9
$DIMUNIT
 70
     2
  9
$DIMDEC
 70
     2
  9
$DIMTDEC
 70
     4
  9
$DIMALTU
 70
     2
  9
$DIMALTTD
 70
     3
  9
$DIMTXSTY
  7
STANDARD
  9
$DIMAUNIT
 70
     0
  9
$LUNITS
 70
     2
  9
$LUPREC
 70
     2
  9
$SKETCHINC
 40
1.0
  9
$FILLETRAD
 40
10.0
  9
$AUNITS
 70
     0
  9
$AUPREC
 70
     2
  9
$MENU
  1
.
  9
$ELEVATION
 40
0.0
  9
$PELEVATION
 40
0.0
  9
$THICKNESS
 40
0.0
  9
$LIMCHECK
 70
     0
  9
$CHAMFERA
 40
0.0
  9
$CHAMFERB
 40
0.0
  9
$CHAMFERC
 40
0.0
  9
$CHAMFERD
 40
0.0
  9
$SKPOLY
 70
     0
  9
$TDCREATE
 40
2460801.817190278
  9
$TDUPDATE
 40
2460801.817238079
  9
$TDINDWG
 40
0.0000000116
  9
$TDUSRTIMER
 40
0.0000000116
  9
$USRTIMER
 70
     1
  9
$ANGBASE
 50
0.0
  9
$ANGDIR
 70
     0
  9
$PDMODE
 70
     0
  9
$PDSIZE
 40
-1.0
  9
$PLINEWID
 40
0.0
  9
$COORDS
 70
     1
  9
$SPLFRAME
 70
     0
  9
$SPLINETYPE
 70
     6
  9
$SPLINESEGS
 70
     8
  9
$ATTDIA
 70
     0
  9
$ATTREQ
 70
     1
  9
$HANDLING
 70
     1
  9
$HANDSEED
  5
18E
  9
$SURFTAB1
 70
     6
  9
$SURFTAB2
 70
     6
  9
$SURFTYPE
 70
     6
  9
$SURFU
 70
     6
  9
$SURFV
 70
     6
  9
$UCSNAME
  2

  9
$UCSORG
 10
0.0
 20
0.0
 30
0.0
  9
$UCSXDIR
 10
1.0
 20
0.0
 30
0.0
  9
$UCSYDIR
 10
0.0
 20
1.0
 30
0.0
  9
$PUCSNAME
  2

  9
$PUCSORG
 10
0.0
 20
0.0
 30
0.0
  9
$PUCSXDIR
 10
1.0
 20
0.0
 30
0.0
  9
$PUCSYDIR
 10
0.0
 20
1.0
 30
0.0
  9
$USERI1
 70
     0
  9
$USERI2
 70
     0
  9
$USERI3
 70
     0
  9
$USERI4
 70
     0
  9
$USERI5
 70
     0
  9
$USERR1
 40
0.0
  9
$USERR2
 40
0.0
  9
$USERR3
 40
0.0
  9
$USERR4
 40
0.0
  9
$USERR5
 40
0.0
  9
$WORLDVIEW
 70
     1
  9
$SHADEDGE
 70
     3
  9
$SHADEDIF
 70
    70
  9
$TILEMODE
 70
     1
  9
$MAXACTVP
 70
    64
  9
$PINSBASE
 10
0.0
 20
0.0
 30
0.0
  9
$PLIMCHECK
 70
     0
  9
$PEXTMIN
 10
1.0000000000E+20
 20
1.0000000000E+20
 30
1.0000000000E+20
  9
$PEXTMAX
 10
-1.0000000000E+20
 20
-1.0000000000E+20
 30
-1.0000000000E+20
  9
$PLIMMIN
 10
0.0
 20
0.0
  9
$PLIMMAX
 10
420.0
 20
297.0
  9
$UNITMODE
 70
     0
  9
$VISRETAIN
 70
     1
  9
$PLINEGEN
 70
     0
  9
$PSLTSCALE
 70
     1
  9
$TREEDEPTH
 70
  3020
  9
$PICKSTYLE
 70
     1
  9
$CMLSTYLE
  2
STANDARD
  9
$CMLJUST
 70
     0
  9
$CMLSCALE
 40
20.0
  9
$PROXYGRAPHICS
 70
     1
  9
$MEASUREMENT
 70
     1
  0
ENDSEC
  0
SECTION
  2
CLASSES
  0
CLASS
  1
ACDBDICTIONARYWDFLT
  2
AcDbDictionaryWithDefault
  3
ObjectDBX Classes
 90
        0
280
     0
281
     0
  0
CLASS
  1
VISUALSTYLE
  2
AcDbVisualStyle
  3
ObjectDBX Classes
 90
     4095
280
     0
281
     0
  0
CLASS
  1
MATERIAL
  2
AcDbMaterial
  3
ObjectDBX Classes
 90
     1153
280
     0
281
     0
  0
CLASS
  1
SCALE
  2
AcDbScale
  3
ObjectDBX Classes
 90
     1153
280
     0
281
     0
  0
CLASS
  1
TABLESTYLE
  2
AcDbTableStyle
  3
ObjectDBX Classes
 90
     4095
280
     0
281
     0
  0
CLASS
  1
MLEADERSTYLE
  2
AcDbMLeaderStyle
  3
ACDB_MLEADERSTYLE_CLASS
 90
     4095
280
     0
281
     0
  0
CLASS
  1
SUN
  2
AcDbSun
  3
SCENEOE
 90
     1153
280
     0
281
     0
  0
CLASS
  1
XRECORD
  2
AcDbXrecord
  3
ObjectDBX Classes
 90
        0
280
     0
281
     0
  0
CLASS
  1
LWPOLYLINE
  2
AcDbPolyline
  3
ObjectDBX Classes
 90
        0
280
     0
281
     1
  0
CLASS
  1
HATCH
  2
AcDbHatch
  3
ObjectDBX Classes
 90
        0
280
     0
281
     1
  0
ENDSEC
  0
SECTION
  2
TABLES
  0
TABLE
  2
VPORT
  5
8
330
0
100
AcDbSymbolTable
 70
     1
  0
VPORT
  5
29
330
8
100
AcDbSymbolTableRecord
100
AcDbViewportTableRecord
  2
*ACTIVE
 70
     0
 10
0.0
 20
0.0
 11
1.0
 21
1.0
 12
5.9219144148
 22
-0.2572016461
 13
0.0
 23
0.0
 14
10.0
 24
10.0
 15
10.0
 25
10.0
 16
0.0
 26
0.0
 36
1.0
 17
0.0
 27
0.0
 37
0.0
 40
115.26
 41
2.1592920354
 42
50.0
 43
0.0
 44
0.0
 50
0.0
 51
0.0
 71
     0
 72
   100
 73
     1
 74
     3
 75
     0
 76
     0
 77
     0
 78
     0
  0
ENDTAB
  0
TABLE
  2
LTYPE
  5
5
330
0
100
AcDbSymbolTable
 70
     6
  0
LTYPE
  5
14
330
5
100
AcDbSymbolTableRecord
100
AcDbLinetypeTableRecord
  2
BYBLOCK
 70
     0
  3

 72
    65
 73
     0
 40
0.0
  0
LTYPE
  5
15
330
5
100
AcDbSymbolTableRecord
100
AcDbLinetypeTableRecord
  2
BYLAYER
 70
     0
  3

 72
    65
 73
     0
 40
0.0
  0
LTYPE
  5
16
330
5
100
AcDbSymbolTableRecord
100
AcDbLinetypeTableRecord
  2
CONTINUOUS
 70
     0
  3
Solid line
 72
    65
 73
     0
 40
0.0
  0
LTYPE
  5
6E
330
5
100
AcDbSymbolTableRecord
100
AcDbLinetypeTableRecord
  2
HIDDEN
 70
     0
  3
Hidden __ __ __ __ __ __ __ __ __ __ __ __ __ __
 72
    65
 73
     2
 40
1.905
 49
1.27
 74
     0
 49
-0.635
 74
     0
  0
LTYPE
  5
6F
330
5
100
AcDbSymbolTableRecord
100
AcDbLinetypeTableRecord
  2
PHANTOM
 70
     0
  3
Phantom ______  __  __  ______  __  __  ______
 72
    65
 73
     6
 40
12.7
 49
6.35
 74
     0
 49
-1.27
 74
     0
 49
1.27
 74
     0
 49
-1.27
 74
     0
 49
1.27
 74
     0
 49
-1.27
 74
     0
  0
LTYPE
  5
70
330
5
100
AcDbSymbolTableRecord
100
AcDbLinetypeTableRecord
  2
CENTER
 70
     0
  3
Center ____ _ ____ _ ____ _ ____ _ ____ _ ____
 72
    65
 73
     4
 40
10.16
 49
6.35
 74
     0
 49
-1.27
 74
     0
 49
1.27
 74
     0
 49
-1.27
 74
     0
  0
LTYPE
  5
71
330
5
100
AcDbSymbolTableRecord
100
AcDbLinetypeTableRecord
  2
CENTERX2
 70
     0
  3
Center (2x) ________  __  ________  __  _____
 72
    65
 73
     4
 40
20.32
 49
12.7
 74
     0
 49
-2.54
 74
     0
 49
2.54
 74
     0
 49
-2.54
 74
     0
  0
LTYPE
  5
72
330
5
100
AcDbSymbolTableRecord
100
AcDbLinetypeTableRecord
  2
DOT2
 70
     0
  3
Dot (.5x) ........................................
 72
    65
 73
     2
 40
0.635
 49
0.0
 74
     0
 49
-0.635
 74
     0
  0
ENDTAB
  0
TABLE
  2
LAYER
  5
2
330
0
100
AcDbSymbolTable
 70
     1
  0
LAYER
  5
10
330
2
100
AcDbSymbolTableRecord
100
AcDbLayerTableRecord
  2
0
 70
     0
 62
     7
  6
CONTINUOUS
  0
ENDTAB
  0
TABLE
  2
STYLE
  5
3
330
0
100
AcDbSymbolTable
 70
     2
  0
STYLE
  5
11
330
3
100
AcDbSymbolTableRecord
100
AcDbTextStyleTableRecord
  2
STANDARD
 70
     0
 40
0.0
 41
1.0
 50
0.0
 71
     0
 42
4.0
  3
txt
  4

  0
STYLE
  5
18A
330
3
100
AcDbSymbolTableRecord
100
AcDbTextStyleTableRecord
  2
SLDTEXTSTYLE0
 70
     0
 40
0.0
 41
0.7
 50
0.0
 71
     0
 42
4.0
  3
TXT
  4
bigfont
  0
ENDTAB
  0
TABLE
  2
VIEW
  5
6
330
0
100
AcDbSymbolTable
 70
     0
  0
ENDTAB
  0
TABLE
  2
UCS
  5
7
330
0
100
AcDbSymbolTable
 70
     0
  0
ENDTAB
  0
TABLE
  2
APPID
  5
9
330
0
100
AcDbSymbolTable
 70
     1
  0
APPID
  5
12
330
9
100
AcDbSymbolTableRecord
100
AcDbRegAppTableRecord
  2
ACAD
 70
     0
  0
ENDTAB
  0
TABLE
  2
DIMSTYLE
  5
A
330
0
100
AcDbSymbolTable
 70
     1
  0
DIMSTYLE
105
27
330
A
100
AcDbSymbolTableRecord
100
AcDbDimStyleTableRecord
  2
ISO-25
 70
     0
  3

  4

  5

  6

  7

 40
1.0
 41
2.5
 42
0.625
 43
3.75
 44
1.25
 45
0.0
 46
0.0
 47
0.0
 48
0.0
140
2.5
141
2.5
142
0.0
143
0.0393700787
144
1.0
145
0.0
146
1.0
147
0.625
 71
     0
 72
     0
 73
     0
 74
     0
 75
     0
 76
     0
 77
     1
 78
     8
170
     0
171
     3
172
     1
173
     0
174
     0
175
     0
176
     0
177
     0
178
     0
270
     2
271
     2
272
     2
273
     2
274
     3
340
11
275
     0
280
     0
281
     0
282
     0
283
     0
284
     8
285
     0
286
     0
287
     3
288
     0
  0
ENDTAB
  0
TABLE
  2
BLOCK_RECORD
  5
1
330
0
100
AcDbSymbolTable
 70
     1
  0
BLOCK_RECORD
  5
1F
330
1
100
AcDbSymbolTableRecord
100
AcDbBlockTableRecord
  2
*MODEL_SPACE
  0
BLOCK_RECORD
  5
1B
330
1
100
AcDbSymbolTableRecord
100
AcDbBlockTableRecord
  2
*PAPER_SPACE
  0
BLOCK_RECORD
  5
23
330
1
100
AcDbSymbolTableRecord
100
AcDbBlockTableRecord
  2
*PAPER_SPACE0
  0
ENDTAB
  0
ENDSEC
  0
SECTION
  2
BLOCKS
  0
BLOCK
  5
20
330
1F
100
AcDbEntity
  8
0
100
AcDbBlockBegin
  2
*MODEL_SPACE
 70
     0
 10
0.0
 20
0.0
 30
0.0
  3
*MODEL_SPACE
  1

  0
ENDBLK
  5
21
330
1F
100
AcDbEntity
  8
0
100
AcDbBlockEnd
  0
BLOCK
  5
1C
330
1B
100
AcDbEntity
 67
     1
  8
0
100
AcDbBlockBegin
  2
*PAPER_SPACE
 70
     0
 10
0.0
 20
0.0
 30
0.0
  3
*PAPER_SPACE
  1

  0
ENDBLK
  5
1D
330
1B
100
AcDbEntity
 67
     1
  8
0
100
AcDbBlockEnd
  0
BLOCK
  5
24
330
23
100
AcDbEntity
  8
0
100
AcDbBlockBegin
  2
*PAPER_SPACE0
 70
     0
 10
0.0
 20
0.0
 30
0.0
  3
*PAPER_SPACE0
  1

  0
ENDBLK
  5
25
330
23
100
AcDbEntity
  8
0
100
AcDbBlockEnd
  0
ENDSEC
  0
SECTION
  2
ENTITIES
  0
CIRCLE
  5
73
330
1F
100
AcDbEntity
  8
0
  6
CONTINUOUS
 62
     7
100
AcDbCircle
 10
-108.1091061437
 20
48.3487050768
 30
0.0
 40
3.0
  0
CIRCLE
  5
74
330
1F
100
AcDbEntity
  8
0
  6
CONTINUOUS
 62
     7
100
AcDbCircle
 10
-86.7817154031
 20
12.2096325281
 30
0.0
 40
9.0
  0
CIRCLE
  5
75
330
1F
100
AcDbEntity
  8
0
  6
CONTINUOUS
 62
     7
100
AcDbCircle
 10
-59.7817154031
 20
12.2096325281
 30
0.0
 40
9.0
  0
CIRCLE
  5
76
330
1F
100
AcDbEntity
  8
0
  6
CONTINUOUS
 62
     7
100
AcDbCircle
 10
19.3019322625
 20
12.2096325281
 30
0.0
 40
8.999999999999998
  0
CIRCLE
  5
77
330
1F
100
AcDbEntity
  8
0
  6
CONTINUOUS
 62
     7
100
AcDbCircle
 10
-7.6980677375
 20
12.2096325281
 30
0.0
 40
8.999999999999996
  0
CIRCLE
  5
78
330
1F
100
AcDbEntity
  8
0
  6
CONTINUOUS
 62
     7
100
AcDbCircle
 10
98.4219144148
 20
12.2096325281
 30
0.0
 40
8.999999999999986
  0
CIRCLE
  5
79
330
1F
100
AcDbEntity
  8
0
  6
CONTINUOUS
 62
     7
100
AcDbCircle
 10
71.4219144148
 20
12.2096325281
 30
0.0
 40
9.0
  0
LINE
  5
7A
330
1F
100
AcDbEntity
  8
0
  6
CONTINUOUS
 62
     7
100
AcDbLine
 10
-29.9780855852
 20
36.1427983539
 30
0.0
 11
-33.1780855852
 21
36.1427983539
 31
0.0
  0
LINE
  5
7B
330
1F
100
AcDbEntity
  8
0
  6
CONTINUOUS
 62
     7
100
AcDbLine
 10
-29.9780855852
 20
41.3427983539
 30
0.0
 11
-29.9780855852
 21
36.1427983539
 31
0.0
  0
LINE
  5
7C
330
1F
100
AcDbEntity
  8
0
  6
CONTINUOUS
 62
     7
100
AcDbLine
 10
-33.1780855852
 20
41.3427983539
 30
0.0
 11
-29.9780855852
 21
41.3427983539
 31
0.0
  0
LINE
  5
7D
330
1F
100
AcDbEntity
  8
0
  6
CONTINUOUS
 62
     7
100
AcDbLine
 10
-33.1780855852
 20
36.1427983539
 30
0.0
 11
-33.1780855852
 21
41.3427983539
 31
0.0
  0
LINE
  5
7E
330
1F
100
AcDbEntity
  8
0
  6
CONTINUOUS
 62
     7
100
AcDbLine
 10
-29.9780855852
 20
23.9999412111
 30
0.0
 11
-33.1780855852
 21
23.9999412111
 31
0.0
  0
LINE
  5
7F
330
1F
100
AcDbEntity
  8
0
  6
CONTINUOUS
 62
     7
100
AcDbLine
 10
-29.9780855852
 20
29.1999412111
 30
0.0
 11
-29.9780855852
 21
23.9999412111
 31
0.0
  0
LINE
  5
80
330
1F
100
AcDbEntity
  8
0
  6
CONTINUOUS
 62
     7
100
AcDbLine
 10
-33.1780855852
 20
29.1999412111
 30
0.0
 11
-29.9780855852
 21
29.1999412111
 31
0.0
  0
LINE
  5
81
330
1F
100
AcDbEntity
  8
0
  6
CONTINUOUS
 62
     7
100
AcDbLine
 10
-33.1780855852
 20
23.9999412111
 30
0.0
 11
-33.1780855852
 21
29.1999412111
 31
0.0
  0
LINE
  5
82
330
1F
100
AcDbEntity
  8
0
  6
CONTINUOUS
 62
     7
100
AcDbLine
 10
-29.9780855852
 20
11.8570840682
 30
0.0
 11
-33.1780855852
 21
11.8570840682
 31
0.0
  0
LINE
  5
83
330
1F
100
AcDbEntity
  8
0
  6
CONTINUOUS
 62
     7
100
AcDbLine
 10
-29.9780855852
 20
17.0570840682
 30
0.0
 11
-29.9780855852
 21
11.8570840682
 31
0.0
  0
LINE
  5
84
330
1F
100
AcDbEntity
  8
0
  6
CONTINUOUS
 62
     7
100
AcDbLine
 10
-33.1780855852
 20
17.0570840682
 30
0.0
 11
-29.9780855852
 21
17.0570840682
 31
0.0
  0
LINE
  5
85
330
1F
100
AcDbEntity
  8
0
  6
CONTINUOUS
 62
     7
100
AcDbLine
 10
-33.1780855852
 20
11.8570840682
 30
0.0
 11
-33.1780855852
 21
17.0570840682
 31
0.0
  0
LINE
  5
86
330
1F
100
AcDbEntity
  8
0
  6
CONTINUOUS
 62
     7
100
AcDbLine
 10
-29.9780855852
 20
-0.2857730747
 30
0.0
 11
-33.1780855852
 21
-0.2857730747
 31
0.0
  0
LINE
  5
87
330
1F
100
AcDbEntity
  8
0
  6
CONTINUOUS
 62
     7
100
AcDbLine
 10
-29.9780855852
 20
4.9142269253
 30
0.0
 11
-29.9780855852
 21
-0.2857730747
 31
0.0
  0
LINE
  5
88
330
1F
100
AcDbEntity
  8
0
  6
CONTINUOUS
 62
     7
100
AcDbLine
 10
-33.1780855852
 20
4.9142269253
 30
0.0
 11
-29.9780855852
 21
4.9142269253
 31
0.0
  0
LINE
  5
89
330
1F
100
AcDbEntity
  8
0
  6
CONTINUOUS
 62
     7
100
AcDbLine
 10
-33.1780855852
 20
-0.2857730747
 30
0.0
 11
-33.1780855852
 21
4.9142269253
 31
0.0
  0
LINE
  5
8A
330
1F
100
AcDbEntity
  8
0
  6
CONTINUOUS
 62
     7
100
AcDbLine
 10
-29.9780855852
 20
-12.4286302175
 30
0.0
 11
-33.1780855852
 21
-12.4286302175
 31
0.0
  0
LINE
  5
8B
330
1F
100
AcDbEntity
  8
0
  6
CONTINUOUS
 62
     7
100
AcDbLine
 10
-29.9780855852
 20
-7.2286302175
 30
0.0
 11
-29.9780855852
 21
-12.4286302175
 31
0.0
  0
LINE
  5
8C
330
1F
100
AcDbEntity
  8
0
  6
CONTINUOUS
 62
     7
100
AcDbLine
 10
-33.1780855852
 20
-7.2286302175
 30
0.0
 11
-29.9780855852
 21
-7.2286302175
 31
0.0
  0
LINE
  5
8D
330
1F
100
AcDbEntity
  8
0
  6
CONTINUOUS
 62
     7
100
AcDbLine
 10
-33.1780855852
 20
-12.4286302175
 30
0.0
 11
-33.1780855852
 21
-7.2286302175
 31
0.0
  0
LINE
  5
8E
330
1F
100
AcDbEntity
  8
0
  6
CONTINUOUS
 62
     7
100
AcDbLine
 10
-29.9780855852
 20
-24.5714873604
 30
0.0
 11
-33.1780855852
 21
-24.5714873604
 31
0.0
  0
LINE
  5
8F
330
1F
100
AcDbEntity
  8
0
  6
CONTINUOUS
 62
     7
100
AcDbLine
 10
-29.9780855852
 20
-19.3714873604
 30
0.0
 11
-29.9780855852
 21
-24.5714873604
 31
0.0
  0
LINE
  5
90
330
1F
100
AcDbEntity
  8
0
  6
CONTINUOUS
 62
     7
100
AcDbLine
 10
-33.1780855852
 20
-19.3714873604
 30
0.0
 11
-29.9780855852
 21
-19.3714873604
 31
0.0
  0
LINE
  5
91
330
1F
100
AcDbEntity
  8
0
  6
CONTINUOUS
 62
     7
100
AcDbLine
 10
-33.1780855852
 20
-24.5714873604
 30
0.0
 11
-33.1780855852
 21
-19.3714873604
 31
0.0
  0
LINE
  5
92
330
1F
100
AcDbEntity
  8
0
  6
CONTINUOUS
 62
     7
100
AcDbLine
 10
-29.9780855852
 20
-36.7143445032
 30
0.0
 11
-33.1780855852
 21
-36.7143445032
 31
0.0
  0
LINE
  5
93
330
1F
100
AcDbEntity
  8
0
  6
CONTINUOUS
 62
     7
100
AcDbLine
 10
-29.9780855852
 20
-31.5143445032
 30
0.0
 11
-29.9780855852
 21
-36.7143445032
 31
0.0
  0
LINE
  5
94
330
1F
100
AcDbEntity
  8
0
  6
CONTINUOUS
 62
     7
100
AcDbLine
 10
-33.1780855852
 20
-31.5143445032
 30
0.0
 11
-29.9780855852
 21
-31.5143445032
 31
0.0
  0
LINE
  5
95
330
1F
100
AcDbEntity
  8
0
  6
CONTINUOUS
 62
     7
100
AcDbLine
 10
-33.1780855852
 20
-36.7143445032
 30
0.0
 11
-33.1780855852
 21
-31.5143445032
 31
0.0
  0
LINE
  5
96
330
1F
100
AcDbEntity
  8
0
  6
CONTINUOUS
 62
     7
100
AcDbLine
 10
-29.9780855852
 20
-48.8572016461
 30
0.0
 11
-33.1780855852
 21
-48.8572016461
 31
0.0
  0
LINE
  5
97
330
1F
100
AcDbEntity
  8
0
  6
CONTINUOUS
 62
     7
100
AcDbLine
 10
-29.9780855852
 20
-43.6572016461
 30
0.0
 11
-29.9780855852
 21
-48.8572016461
 31
0.0
  0
LINE
  5
98
330
1F
100
AcDbEntity
  8
0
  6
CONTINUOUS
 62
     7
100
AcDbLine
 10
-33.1780855852
 20
-43.6572016461
 30
0.0
 11
-29.9780855852
 21
-43.6572016461
 31
0.0
  0
LINE
  5
99
330
1F
100
AcDbEntity
  8
0
  6
CONTINUOUS
 62
     7
100
AcDbLine
 10
-33.1780855852
 20
-48.8572016461
 30
0.0
 11
-33.1780855852
 21
-43.6572016461
 31
0.0
  0
LINE
  5
9A
330
1F
100
AcDbEntity
  8
0
  6
CONTINUOUS
 62
     7
100
AcDbLine
 10
45.0219144148
 20
36.1427983539
 30
0.0
 11
45.0219144148
 21
41.3427983539
 31
0.0
  0
LINE
  5
9B
330
1F
100
AcDbEntity
  8
0
  6
CONTINUOUS
 62
     7
100
AcDbLine
 10
45.0219144148
 20
41.3427983539
 30
0.0
 11
41.8219144148
 21
41.3427983539
 31
0.0
  0
LINE
  5
9C
330
1F
100
AcDbEntity
  8
0
  6
CONTINUOUS
 62
     7
100
AcDbLine
 10
41.8219144148
 20
41.3427983539
 30
0.0
 11
41.8219144148
 21
36.1427983539
 31
0.0
  0
LINE
  5
9D
330
1F
100
AcDbEntity
  8
0
  6
CONTINUOUS
 62
     7
100
AcDbLine
 10
41.8219144148
 20
36.1427983539
 30
0.0
 11
45.0219144148
 21
36.1427983539
 31
0.0
  0
LINE
  5
9E
330
1F
100
AcDbEntity
  8
0
  6
CONTINUOUS
 62
     7
100
AcDbLine
 10
45.0219144148
 20
23.9999412111
 30
0.0
 11
45.0219144148
 21
29.1999412111
 31
0.0
  0
LINE
  5
9F
330
1F
100
AcDbEntity
  8
0
  6
CONTINUOUS
 62
     7
100
AcDbLine
 10
45.0219144148
 20
29.1999412111
 30
0.0
 11
41.8219144148
 21
29.1999412111
 31
0.0
  0
LINE
  5
A0
330
1F
100
AcDbEntity
  8
0
  6
CONTINUOUS
 62
     7
100
AcDbLine
 10
41.8219144148
 20
29.1999412111
 30
0.0
 11
41.8219144148
 21
23.9999412111
 31
0.0
  0
LINE
  5
A1
330
1F
100
AcDbEntity
  8
0
  6
CONTINUOUS
 62
     7
100
AcDbLine
 10
41.8219144148
 20
23.9999412111
 30
0.0
 11
45.0219144148
 21
23.9999412111
 31
0.0
  0
LINE
  5
A2
330
1F
100
AcDbEntity
  8
0
  6
CONTINUOUS
 62
     7
100
AcDbLine
 10
45.0219144148
 20
11.8570840682
 30
0.0
 11
45.0219144148
 21
17.0570840682
 31
0.0
  0
LINE
  5
A3
330
1F
100
AcDbEntity
  8
0
  6
CONTINUOUS
 62
     7
100
AcDbLine
 10
45.0219144148
 20
17.0570840682
 30
0.0
 11
41.8219144148
 21
17.0570840682
 31
0.0
  0
LINE
  5
A4
330
1F
100
AcDbEntity
  8
0
  6
CONTINUOUS
 62
     7
100
AcDbLine
 10
41.8219144148
 20
17.0570840682
 30
0.0
 11
41.8219144148
 21
11.8570840682
 31
0.0
  0
LINE
  5
A5
330
1F
100
AcDbEntity
  8
0
  6
CONTINUOUS
 62
     7
100
AcDbLine
 10
41.8219144148
 20
11.8570840682
 30
0.0
 11
45.0219144148
 21
11.8570840682
 31
0.0
  0
LINE
  5
A6
330
1F
100
AcDbEntity
  8
0
  6
CONTINUOUS
 62
     7
100
AcDbLine
 10
45.0219144148
 20
-0.2857730747
 30
0.0
 11
45.0219144148
 21
4.9142269253
 31
0.0
  0
LINE
  5
A7
330
1F
100
AcDbEntity
  8
0
  6
CONTINUOUS
 62
     7
100
AcDbLine
 10
45.0219144148
 20
4.9142269253
 30
0.0
 11
41.8219144148
 21
4.9142269253
 31
0.0
  0
LINE
  5
A8
330
1F
100
AcDbEntity
  8
0
  6
CONTINUOUS
 62
     7
100
AcDbLine
 10
41.8219144148
 20
4.9142269253
 30
0.0
 11
41.8219144148
 21
-0.2857730747
 31
0.0
  0
LINE
  5
A9
330
1F
100
AcDbEntity
  8
0
  6
CONTINUOUS
 62
     7
100
AcDbLine
 10
41.8219144148
 20
-0.2857730747
 30
0.0
 11
45.0219144148
 21
-0.2857730747
 31
0.0
  0
LINE
  5
AA
330
1F
100
AcDbEntity
  8
0
  6
CONTINUOUS
 62
     7
100
AcDbLine
 10
45.0219144148
 20
-12.4286302175
 30
0.0
 11
45.0219144148
 21
-7.2286302175
 31
0.0
  0
LINE
  5
AB
330
1F
100
AcDbEntity
  8
0
  6
CONTINUOUS
 62
     7
100
AcDbLine
 10
45.0219144148
 20
-7.2286302175
 30
0.0
 11
41.8219144148
 21
-7.2286302175
 31
0.0
  0
LINE
  5
AC
330
1F
100
AcDbEntity
  8
0
  6
CONTINUOUS
 62
     7
100
AcDbLine
 10
41.8219144148
 20
-7.2286302175
 30
0.0
 11
41.8219144148
 21
-12.4286302175
 31
0.0
  0
LINE
  5
AD
330
1F
100
AcDbEntity
  8
0
  6
CONTINUOUS
 62
     7
100
AcDbLine
 10
41.8219144148
 20
-12.4286302175
 30
0.0
 11
45.0219144148
 21
-12.4286302175
 31
0.0
  0
LINE
  5
AE
330
1F
100
AcDbEntity
  8
0
  6
CONTINUOUS
 62
     7
100
AcDbLine
 10
45.0219144148
 20
-24.5714873604
 30
0.0
 11
45.0219144148
 21
-19.3714873604
 31
0.0
  0
LINE
  5
AF
330
1F
100
AcDbEntity
  8
0
  6
CONTINUOUS
 62
     7
100
AcDbLine
 10
45.0219144148
 20
-19.3714873604
 30
0.0
 11
41.8219144148
 21
-19.3714873604
 31
0.0
  0
LINE
  5
B0
330
1F
100
AcDbEntity
  8
0
  6
CONTINUOUS
 62
     7
100
AcDbLine
 10
41.8219144148
 20
-19.3714873604
 30
0.0
 11
41.8219144148
 21
-24.5714873604
 31
0.0
  0
LINE
  5
B1
330
1F
100
AcDbEntity
  8
0
  6
CONTINUOUS
 62
     7
100
AcDbLine
 10
41.8219144148
 20
-24.5714873604
 30
0.0
 11
45.0219144148
 21
-24.5714873604
 31
0.0
  0
LINE
  5
B2
330
1F
100
AcDbEntity
  8
0
  6
CONTINUOUS
 62
     7
100
AcDbLine
 10
45.0219144148
 20
-36.7143445032
 30
0.0
 11
45.0219144148
 21
-31.5143445032
 31
0.0
  0
LINE
  5
B3
330
1F
100
AcDbEntity
  8
0
  6
CONTINUOUS
 62
     7
100
AcDbLine
 10
45.0219144148
 20
-31.5143445032
 30
0.0
 11
41.8219144148
 21
-31.5143445032
 31
0.0
  0
LINE
  5
B4
330
1F
100
AcDbEntity
  8
0
  6
CONTINUOUS
 62
     7
100
AcDbLine
 10
41.8219144148
 20
-31.5143445032
 30
0.0
 11
41.8219144148
 21
-36.7143445032
 31
0.0
  0
LINE
  5
B5
330
1F
100
AcDbEntity
  8
0
  6
CONTINUOUS
 62
     7
100
AcDbLine
 10
41.8219144148
 20
-36.7143445032
 30
0.0
 11
45.0219144148
 21
-36.7143445032
 31
0.0
  0
LINE
  5
B6
330
1F
100
AcDbEntity
  8
0
  6
CONTINUOUS
 62
     7
100
AcDbLine
 10
45.0219144148
 20
-48.8572016461
 30
0.0
 11
45.0219144148
 21
-43.6572016461
 31
0.0
  0
LINE
  5
B7
330
1F
100
AcDbEntity
  8
0
  6
CONTINUOUS
 62
     7
100
AcDbLine
 10
45.0219144148
 20
-43.6572016461
 30
0.0
 11
41.8219144148
 21
-43.6572016461
 31
0.0
  0
LINE
  5
B8
330
1F
100
AcDbEntity
  8
0
  6
CONTINUOUS
 62
     7
100
AcDbLine
 10
41.8219144148
 20
-43.6572016461
 30
0.0
 11
41.8219144148
 21
-48.8572016461
 31
0.0
  0
LINE
  5
B9
330
1F
100
AcDbEntity
  8
0
  6
CONTINUOUS
 62
     7
100
AcDbLine
 10
41.8219144148
 20
-48.8572016461
 30
0.0
 11
45.0219144148
 21
-48.8572016461
 31
0.0
  0
LINE
  5
BA
330
1F
100
AcDbEntity
  8
0
  6
CONTINUOUS
 62
     7
100
AcDbLine
 10
108.2850723095
 20
56.2427983539
 30
0.0
 11
114.8219144148
 21
56.2427983539
 31
0.0
  0
LINE
  5
BB
330
1F
100
AcDbEntity
  8
0
  6
CONTINUOUS
 62
     7
100
AcDbLine
 10
114.8219144148
 20
53.1427983539
 30
0.0
 11
114.8219144148
 21
56.2427983539
 31
0.0
  0
LINE
  5
BC
330
1F
100
AcDbEntity
  8
0
  6
CONTINUOUS
 62
     7
100
AcDbLine
 10
120.0219144148
 20
53.1427983539
 30
0.0
 11
114.8219144148
 21
53.1427983539
 31
0.0
  0
LINE
  5
BD
330
1F
100
AcDbEntity
  8
0
  6
CONTINUOUS
 62
     7
100
AcDbLine
 10
120.0219144148
 20
56.2427983539
 30
0.0
 11
120.0219144148
 21
53.1427983539
 31
0.0
  0
LINE
  5
BE
330
1F
100
AcDbEntity
  8
0
  6
CONTINUOUS
 62
     7
100
AcDbLine
 10
120.0219144148
 20
56.2427983539
 30
0.0
 11
124.9219144148
 21
56.2427983539
 31
0.0
  0
LINE
  5
BF
330
1F
100
AcDbEntity
  8
0
  6
CONTINUOUS
 62
     7
100
AcDbLine
 10
124.9219144148
 20
51.2427983539
 30
0.0
 11
124.9219144148
 21
56.2427983539
 31
0.0
  0
LINE
  5
C0
330
1F
100
AcDbEntity
  8
0
  6
CONTINUOUS
 62
     7
100
AcDbLine
 10
127.9219144148
 20
51.2427983539
 30
0.0
 11
124.9219144148
 21
51.2427983539
 31
0.0
  0
SPLINE
  5
C1
330
1F
100
AcDbEntity
  8
0
  6
CONTINUOUS
 62
     7
100
AcDbSpline
210
0.0
220
0.0
230
1.0
 70
    24
 71
     1
 72
     4
 73
     2
 74
     0
 42
0.00000001
 43
0.00000001
 40
0.1875000000000002
 40
0.1875000000000002
 40
0.5
 40
0.5
 10
127.9219144148116
 20
51.24279835390945
 30
0.0
 10
127.9219144148116
 20
46.24279835390945
 30
0.0
  0
LINE
  5
C2
330
1F
100
AcDbEntity
  8
0
  6
CONTINUOUS
 62
     7
100
AcDbLine
 10
127.9219144148
 20
46.2427983539
 30
0.0
 11
124.9219144148
 21
46.2427983539
 31
0.0
  0
LINE
  5
C3
330
1F
100
AcDbEntity
  8
0
  6
CONTINUOUS
 62
     7
100
AcDbLine
 10
124.9219144148
 20
37.2427983539
 30
0.0
 11
124.9219144148
 21
46.2427983539
 31
0.0
  0
LINE
  5
C4
330
1F
100
AcDbEntity
  8
0
  6
CONTINUOUS
 62
     7
100
AcDbLine
 10
127.9219144148
 20
37.2427983539
 30
0.0
 11
124.9219144148
 21
37.2427983539
 31
0.0
  0
SPLINE
  5
C5
330
1F
100
AcDbEntity
  8
0
  6
CONTINUOUS
 62
     7
100
AcDbSpline
210
0.0
220
0.0
230
1.0
 70
    24
 71
     1
 72
     4
 73
     2
 74
     0
 42
0.00000001
 43
0.00000001
 40
0.1875000000000002
 40
0.1875000000000002
 40
0.5
 40
0.5
 10
127.9219144148116
 20
37.24279835390944
 30
0.0
 10
127.9219144148116
 20
32.24279835390945
 30
0.0
  0
LINE
  5
C6
330
1F
100
AcDbEntity
  8
0
  6
CONTINUOUS
 62
     7
100
AcDbLine
 10
127.9219144148
 20
32.2427983539
 30
0.0
 11
124.9219144148
 21
32.2427983539
 31
0.0
  0
LINE
  5
C7
330
1F
100
AcDbEntity
  8
0
  6
CONTINUOUS
 62
     7
100
AcDbLine
 10
124.9219144148
 20
23.2427983539
 30
0.0
 11
124.9219144148
 21
32.2427983539
 31
0.0
  0
LINE
  5
C8
330
1F
100
AcDbEntity
  8
0
  6
CONTINUOUS
 62
     7
100
AcDbLine
 10
127.9219144148
 20
23.2427983539
 30
0.0
 11
124.9219144148
 21
23.2427983539
 31
0.0
  0
SPLINE
  5
C9
330
1F
100
AcDbEntity
  8
0
  6
CONTINUOUS
 62
     7
100
AcDbSpline
210
0.0
220
0.0
230
1.0
 70
    24
 71
     1
 72
     4
 73
     2
 74
     0
 42
0.00000001
 43
0.00000001
 40
0.1875000000000002
 40
0.1875000000000002
 40
0.5
 40
0.5
 10
127.9219144148116
 20
23.24279835390944
 30
0.0
 10
127.9219144148116
 20
18.24279835390944
 30
0.0
  0
LINE
  5
CA
330
1F
100
AcDbEntity
  8
0
  6
CONTINUOUS
 62
     7
100
AcDbLine
 10
127.9219144148
 20
18.2427983539
 30
0.0
 11
124.9219144148
 21
18.2427983539
 31
0.0
  0
LINE
  5
CB
330
1F
100
AcDbEntity
  8
0
  6
CONTINUOUS
 62
     7
100
AcDbLine
 10
124.9219144148
 20
9.2427983539
 30
0.0
 11
124.9219144148
 21
18.2427983539
 31
0.0
  0
LINE
  5
CC
330
1F
100
AcDbEntity
  8
0
  6
CONTINUOUS
 62
     7
100
AcDbLine
 10
127.9219144148
 20
9.2427983539
 30
0.0
 11
124.9219144148
 21
9.2427983539
 31
0.0
  0
SPLINE
  5
CD
330
1F
100
AcDbEntity
  8
0
  6
CONTINUOUS
 62
     7
100
AcDbSpline
210
0.0
220
0.0
230
1.0
 70
    24
 71
     1
 72
     4
 73
     2
 74
     0
 42
0.00000001
 43
0.00000001
 40
0.1875000000000002
 40
0.1875000000000002
 40
0.5
 40
0.5
 10
127.9219144148116
 20
9.242798353909434
 30
0.0
 10
127.9219144148116
 20
4.242798353909436
 30
0.0
  0
LINE
  5
CE
330
1F
100
AcDbEntity
  8
0
  6
CONTINUOUS
 62
     7
100
AcDbLine
 10
127.9219144148
 20
4.2427983539
 30
0.0
 11
124.9219144148
 21
4.2427983539
 31
0.0
  0
LINE
  5
CF
330
1F
100
AcDbEntity
  8
0
  6
CONTINUOUS
 62
     7
100
AcDbLine
 10
124.9219144148
 20
-4.7572016461
 30
0.0
 11
124.9219144148
 21
4.2427983539
 31
0.0
  0
LINE
  5
D0
330
1F
100
AcDbEntity
  8
0
  6
CONTINUOUS
 62
     7
100
AcDbLine
 10
127.9219144148
 20
-4.7572016461
 30
0.0
 11
124.9219144148
 21
-4.7572016461
 31
0.0
  0
SPLINE
  5
D1
330
1F
100
AcDbEntity
  8
0
  6
CONTINUOUS
 62
     7
100
AcDbSpline
210
0.0
220
0.0
230
1.0
 70
    24
 71
     1
 72
     4
 73
     2
 74
     0
 42
0.00000001
 43
0.00000001
 40
0.1875000000000002
 40
0.1875000000000002
 40
0.5
 40
0.5
 10
127.9219144148116
 20
-4.757201646090572
 30
0.0
 10
127.9219144148116
 20
-9.75720164609057
 30
0.0
  0
LINE
  5
D2
330
1F
100
AcDbEntity
  8
0
  6
CONTINUOUS
 62
     7
100
AcDbLine
 10
127.9219144148
 20
-9.7572016461
 30
0.0
 11
124.9219144148
 21
-9.7572016461
 31
0.0
  0
LINE
  5
D3
330
1F
100
AcDbEntity
  8
0
  6
CONTINUOUS
 62
     7
100
AcDbLine
 10
124.9219144148
 20
-18.7572016461
 30
0.0
 11
124.9219144148
 21
-9.7572016461
 31
0.0
  0
LINE
  5
D4
330
1F
100
AcDbEntity
  8
0
  6
CONTINUOUS
 62
     7
100
AcDbLine
 10
127.9219144148
 20
-18.7572016461
 30
0.0
 11
124.9219144148
 21
-18.7572016461
 31
0.0
  0
SPLINE
  5
D5
330
1F
100
AcDbEntity
  8
0
  6
CONTINUOUS
 62
     7
100
AcDbSpline
210
0.0
220
0.0
230
1.0
 70
    24
 71
     1
 72
     4
 73
     2
 74
     0
 42
0.00000001
 43
0.00000001
 40
0.1875000000000002
 40
0.1875000000000002
 40
0.5
 40
0.5
 10
127.9219144148116
 20
-18.75720164609059
 30
0.0
 10
127.9219144148116
 20
-23.75720164609058
 30
0.0
  0
LINE
  5
D6
330
1F
100
AcDbEntity
  8
0
  6
CONTINUOUS
 62
     7
100
AcDbLine
 10
127.9219144148
 20
-23.7572016461
 30
0.0
 11
124.9219144148
 21
-23.7572016461
 31
0.0
  0
LINE
  5
D7
330
1F
100
AcDbEntity
  8
0
  6
CONTINUOUS
 62
     7
100
AcDbLine
 10
124.9219144148
 20
-32.7572016461
 30
0.0
 11
124.9219144148
 21
-23.7572016461
 31
0.0
  0
LINE
  5
D8
330
1F
100
AcDbEntity
  8
0
  6
CONTINUOUS
 62
     7
100
AcDbLine
 10
127.9219144148
 20
-32.7572016461
 30
0.0
 11
124.9219144148
 21
-32.7572016461
 31
0.0
  0
SPLINE
  5
D9
330
1F
100
AcDbEntity
  8
0
  6
CONTINUOUS
 62
     7
100
AcDbSpline
210
0.0
220
0.0
230
1.0
 70
    24
 71
     1
 72
     4
 73
     2
 74
     0
 42
0.00000001
 43
0.00000001
 40
0.1875000000000002
 40
0.1875000000000002
 40
0.5
 40
0.5
 10
127.9219144148116
 20
-32.75720164609059
 30
0.0
 10
127.9219144148116
 20
-37.75720164609058
 30
0.0
  0
LINE
  5
DA
330
1F
100
AcDbEntity
  8
0
  6
CONTINUOUS
 62
     7
100
AcDbLine
 10
127.9219144148
 20
-37.7572016461
 30
0.0
 11
124.9219144148
 21
-37.7572016461
 31
0.0
  0
LINE
  5
DB
330
1F
100
AcDbEntity
  8
0
  6
CONTINUOUS
 62
     7
100
AcDbLine
 10
124.9219144148
 20
-46.7572016461
 30
0.0
 11
124.9219144148
 21
-37.7572016461
 31
0.0
  0
LINE
  5
DC
330
1F
100
AcDbEntity
  8
0
  6
CONTINUOUS
 62
     7
100
AcDbLine
 10
127.9219144148
 20
-46.7572016461
 30
0.0
 11
124.9219144148
 21
-46.7572016461
 31
0.0
  0
SPLINE
  5
DD
330
1F
100
AcDbEntity
  8
0
  6
CONTINUOUS
 62
     7
100
AcDbSpline
210
0.0
220
0.0
230
1.0
 70
    24
 71
     1
 72
     4
 73
     2
 74
     0
 42
0.00000001
 43
0.00000001
 40
0.1875000000000002
 40
0.1875000000000002
 40
0.5
 40
0.5
 10
127.9219144148116
 20
-46.75720164609058
 30
0.0
 10
127.9219144148116
 20
-51.75720164609058
 30
0.0
  0
LINE
  5
DE
330
1F
100
AcDbEntity
  8
0
  6
CONTINUOUS
 62
     7
100
AcDbLine
 10
127.9219144148
 20
-51.7572016461
 30
0.0
 11
124.9219144148
 21
-51.7572016461
 31
0.0
  0
LINE
  5
DF
330
1F
100
AcDbEntity
  8
0
  6
CONTINUOUS
 62
     7
100
AcDbLine
 10
124.9219144148
 20
-56.7572016461
 30
0.0
 11
124.9219144148
 21
-51.7572016461
 31
0.0
  0
LINE
  5
E0
330
1F
100
AcDbEntity
  8
0
  6
CONTINUOUS
 62
     7
100
AcDbLine
 10
120.0219144148
 20
-56.7572016461
 30
0.0
 11
124.9219144148
 21
-56.7572016461
 31
0.0
  0
LINE
  5
E1
330
1F
100
AcDbEntity
  8
0
  6
CONTINUOUS
 62
     7
100
AcDbLine
 10
120.0219144148
 20
-53.6572016461
 30
0.0
 11
120.0219144148
 21
-56.7572016461
 31
0.0
  0
LINE
  5
E2
330
1F
100
AcDbEntity
  8
0
  6
CONTINUOUS
 62
     7
100
AcDbLine
 10
114.8219144148
 20
-53.6572016461
 30
0.0
 11
120.0219144148
 21
-53.6572016461
 31
0.0
  0
LINE
  5
E3
330
1F
100
AcDbEntity
  8
0
  6
CONTINUOUS
 62
     7
100
AcDbLine
 10
114.8219144148
 20
-56.7572016461
 30
0.0
 11
114.8219144148
 21
-53.6572016461
 31
0.0
  0
LINE
  5
E4
330
1F
100
AcDbEntity
  8
0
  6
CONTINUOUS
 62
     7
100
AcDbLine
 10
104.0933429862
 20
-56.7572016461
 30
0.0
 11
114.8219144148
 21
-56.7572016461
 31
0.0
  0
LINE
  5
E5
330
1F
100
AcDbEntity
  8
0
  6
CONTINUOUS
 62
     7
100
AcDbLine
 10
104.0933429862
 20
-53.6572016461
 30
0.0
 11
104.0933429862
 21
-56.7572016461
 31
0.0
  0
LINE
  5
E6
330
1F
100
AcDbEntity
  8
0
  6
CONTINUOUS
 62
     7
100
AcDbLine
 10
98.8933429862
 20
-53.6572016461
 30
0.0
 11
104.0933429862
 21
-53.6572016461
 31
0.0
  0
LINE
  5
E7
330
1F
100
AcDbEntity
  8
0
  6
CONTINUOUS
 62
     7
100
AcDbLine
 10
98.8933429862
 20
-56.7572016461
 30
0.0
 11
98.8933429862
 21
-53.6572016461
 31
0.0
  0
LINE
  5
E8
330
1F
100
AcDbEntity
  8
0
  6
CONTINUOUS
 62
     7
100
AcDbLine
 10
88.1647715577
 20
-56.7572016461
 30
0.0
 11
98.8933429862
 21
-56.7572016461
 31
0.0
  0
LINE
  5
E9
330
1F
100
AcDbEntity
  8
0
  6
CONTINUOUS
 62
     7
100
AcDbLine
 10
88.1647715577
 20
-53.6572016461
 30
0.0
 11
88.1647715577
 21
-56.7572016461
 31
0.0
  0
LINE
  5
EA
330
1F
100
AcDbEntity
  8
0
  6
CONTINUOUS
 62
     7
100
AcDbLine
 10
82.9647715577
 20
-53.6572016461
 30
0.0
 11
88.1647715577
 21
-53.6572016461
 31
0.0
  0
LINE
  5
EB
330
1F
100
AcDbEntity
  8
0
  6
CONTINUOUS
 62
     7
100
AcDbLine
 10
82.9647715577
 20
-56.7572016461
 30
0.0
 11
82.9647715577
 21
-53.6572016461
 31
0.0
  0
LINE
  5
EC
330
1F
100
AcDbEntity
  8
0
  6
CONTINUOUS
 62
     7
100
AcDbLine
 10
72.2362001291
 20
-56.7572016461
 30
0.0
 11
82.9647715577
 21
-56.7572016461
 31
0.0
  0
LINE
  5
ED
330
1F
100
AcDbEntity
  8
0
  6
CONTINUOUS
 62
     7
100
AcDbLine
 10
72.2362001291
 20
-53.6572016461
 30
0.0
 11
72.2362001291
 21
-56.7572016461
 31
0.0
  0
LINE
  5
EE
330
1F
100
AcDbEntity
  8
0
  6
CONTINUOUS
 62
     7
100
AcDbLine
 10
67.0362001291
 20
-53.6572016461
 30
0.0
 11
72.2362001291
 21
-53.6572016461
 31
0.0
  0
LINE
  5
EF
330
1F
100
AcDbEntity
  8
0
  6
CONTINUOUS
 62
     7
100
AcDbLine
 10
67.0362001291
 20
-56.7572016461
 30
0.0
 11
67.0362001291
 21
-53.6572016461
 31
0.0
  0
LINE
  5
F0
330
1F
100
AcDbEntity
  8
0
  6
CONTINUOUS
 62
     7
100
AcDbLine
 10
56.3076287005
 20
-56.7572016461
 30
0.0
 11
67.0362001291
 21
-56.7572016461
 31
0.0
  0
LINE
  5
F1
330
1F
100
AcDbEntity
  8
0
  6
CONTINUOUS
 62
     7
100
AcDbLine
 10
56.3076287005
 20
-53.6572016461
 30
0.0
 11
56.3076287005
 21
-56.7572016461
 31
0.0
  0
LINE
  5
F2
330
1F
100
AcDbEntity
  8
0
  6
CONTINUOUS
 62
     7
100
AcDbLine
 10
51.1076287005
 20
-53.6572016461
 30
0.0
 11
56.3076287005
 21
-53.6572016461
 31
0.0
  0
LINE
  5
F3
330
1F
100
AcDbEntity
  8
0
  6
CONTINUOUS
 62
     7
100
AcDbLine
 10
51.1076287005
 20
-56.7572016461
 30
0.0
 11
51.1076287005
 21
-53.6572016461
 31
0.0
  0
LINE
  5
F4
330
1F
100
AcDbEntity
  8
0
  6
CONTINUOUS
 62
     7
100
AcDbLine
 10
40.379057272
 20
-56.7572016461
 30
0.0
 11
51.1076287005
 21
-56.7572016461
 31
0.0
  0
LINE
  5
F5
330
1F
100
AcDbEntity
  8
0
  6
CONTINUOUS
 62
     7
100
AcDbLine
 10
40.379057272
 20
-53.6572016461
 30
0.0
 11
40.379057272
 21
-56.7572016461
 31
0.0
  0
LINE
  5
F6
330
1F
100
AcDbEntity
  8
0
  6
CONTINUOUS
 62
     7
100
AcDbLine
 10
35.179057272
 20
-53.6572016461
 30
0.0
 11
40.379057272
 21
-53.6572016461
 31
0.0
  0
LINE
  5
F7
330
1F
100
AcDbEntity
  8
0
  6
CONTINUOUS
 62
     7
100
AcDbLine
 10
35.179057272
 20
-56.7572016461
 30
0.0
 11
35.179057272
 21
-53.6572016461
 31
0.0
  0
LINE
  5
F8
330
1F
100
AcDbEntity
  8
0
  6
CONTINUOUS
 62
     7
100
AcDbLine
 10
24.4504858434
 20
-56.7572016461
 30
0.0
 11
35.179057272
 21
-56.7572016461
 31
0.0
  0
LINE
  5
F9
330
1F
100
AcDbEntity
  8
0
  6
CONTINUOUS
 62
     7
100
AcDbLine
 10
24.4504858434
 20
-53.6572016461
 30
0.0
 11
24.4504858434
 21
-56.7572016461
 31
0.0
  0
LINE
  5
FA
330
1F
100
AcDbEntity
  8
0
  6
CONTINUOUS
 62
     7
100
AcDbLine
 10
19.2504858434
 20
-53.6572016461
 30
0.0
 11
24.4504858434
 21
-53.6572016461
 31
0.0
  0
LINE
  5
FB
330
1F
100
AcDbEntity
  8
0
  6
CONTINUOUS
 62
     7
100
AcDbLine
 10
19.2504858434
 20
-56.7572016461
 30
0.0
 11
19.2504858434
 21
-53.6572016461
 31
0.0
  0
LINE
  5
FC
330
1F
100
AcDbEntity
  8
0
  6
CONTINUOUS
 62
     7
100
AcDbLine
 10
8.5219144148
 20
-56.7572016461
 30
0.0
 11
19.2504858434
 21
-56.7572016461
 31
0.0
  0
LINE
  5
FD
330
1F
100
AcDbEntity
  8
0
  6
CONTINUOUS
 62
     7
100
AcDbLine
 10
8.5219144148
 20
-53.6572016461
 30
0.0
 11
8.5219144148
 21
-56.7572016461
 31
0.0
  0
LINE
  5
FE
330
1F
100
AcDbEntity
  8
0
  6
CONTINUOUS
 62
     7
100
AcDbLine
 10
3.3219144148
 20
-53.6572016461
 30
0.0
 11
8.5219144148
 21
-53.6572016461
 31
0.0
  0
LINE
  5
FF
330
1F
100
AcDbEntity
  8
0
  6
CONTINUOUS
 62
     7
100
AcDbLine
 10
3.3219144148
 20
-56.7572016461
 30
0.0
 11
3.3219144148
 21
-53.6572016461
 31
0.0
  0
LINE
  5
100
330
1F
100
AcDbEntity
  8
0
  6
CONTINUOUS
 62
     7
100
AcDbLine
 10
-7.4066570138
 20
-56.7572016461
 30
0.0
 11
3.3219144148
 21
-56.7572016461
 31
0.0
  0
LINE
  5
101
330
1F
100
AcDbEntity
  8
0
  6
CONTINUOUS
 62
     7
100
AcDbLine
 10
-7.4066570138
 20
-53.6572016461
 30
0.0
 11
-7.4066570138
 21
-56.7572016461
 31
0.0
  0
LINE
  5
102
330
1F
100
AcDbEntity
  8
0
  6
CONTINUOUS
 62
     7
100
AcDbLine
 10
-12.6066570138
 20
-53.6572016461
 30
0.0
 11
-7.4066570138
 21
-53.6572016461
 31
0.0
  0
LINE
  5
103
330
1F
100
AcDbEntity
  8
0
  6
CONTINUOUS
 62
     7
100
AcDbLine
 10
-12.6066570138
 20
-56.7572016461
 30
0.0
 11
-12.6066570138
 21
-53.6572016461
 31
0.0
  0
LINE
  5
104
330
1F
100
AcDbEntity
  8
0
  6
CONTINUOUS
 62
     7
100
AcDbLine
 10
-23.3352284423
 20
-56.7572016461
 30
0.0
 11
-12.6066570138
 21
-56.7572016461
 31
0.0
  0
LINE
  5
105
330
1F
100
AcDbEntity
  8
0
  6
CONTINUOUS
 62
     7
100
AcDbLine
 10
-23.3352284423
 20
-53.6572016461
 30
0.0
 11
-23.3352284423
 21
-56.7572016461
 31
0.0
  0
LINE
  5
106
330
1F
100
AcDbEntity
  8
0
  6
CONTINUOUS
 62
     7
100
AcDbLine
 10
-28.5352284423
 20
-53.6572016461
 30
0.0
 11
-23.3352284423
 21
-53.6572016461
 31
0.0
  0
LINE
  5
107
330
1F
100
AcDbEntity
  8
0
  6
CONTINUOUS
 62
     7
100
AcDbLine
 10
-28.5352284423
 20
-56.7572016461
 30
0.0
 11
-28.5352284423
 21
-53.6572016461
 31
0.0
  0
LINE
  5
108
330
1F
100
AcDbEntity
  8
0
  6
CONTINUOUS
 62
     7
100
AcDbLine
 10
-39.2637998709
 20
-56.7572016461
 30
0.0
 11
-28.5352284423
 21
-56.7572016461
 31
0.0
  0
LINE
  5
109
330
1F
100
AcDbEntity
  8
0
  6
CONTINUOUS
 62
     7
100
AcDbLine
 10
-39.2637998709
 20
-53.6572016461
 30
0.0
 11
-39.2637998709
 21
-56.7572016461
 31
0.0
  0
LINE
  5
10A
330
1F
100
AcDbEntity
  8
0
  6
CONTINUOUS
 62
     7
100
AcDbLine
 10
-44.4637998709
 20
-53.6572016461
 30
0.0
 11
-39.2637998709
 21
-53.6572016461
 31
0.0
  0
LINE
  5
10B
330
1F
100
AcDbEntity
  8
0
  6
CONTINUOUS
 62
     7
100
AcDbLine
 10
-44.4637998709
 20
-56.7572016461
 30
0.0
 11
-44.4637998709
 21
-53.6572016461
 31
0.0
  0
LINE
  5
10C
330
1F
100
AcDbEntity
  8
0
  6
CONTINUOUS
 62
     7
100
AcDbLine
 10
-55.1923712995
 20
-56.7572016461
 30
0.0
 11
-44.4637998709
 21
-56.7572016461
 31
0.0
  0
LINE
  5
10D
330
1F
100
AcDbEntity
  8
0
  6
CONTINUOUS
 62
     7
100
AcDbLine
 10
-55.1923712995
 20
-53.6572016461
 30
0.0
 11
-55.1923712995
 21
-56.7572016461
 31
0.0
  0
LINE
  5
10E
330
1F
100
AcDbEntity
  8
0
  6
CONTINUOUS
 62
     7
100
AcDbLine
 10
-60.3923712995
 20
-53.6572016461
 30
0.0
 11
-55.1923712995
 21
-53.6572016461
 31
0.0
  0
LINE
  5
10F
330
1F
100
AcDbEntity
  8
0
  6
CONTINUOUS
 62
     7
100
AcDbLine
 10
-60.3923712995
 20
-56.7572016461
 30
0.0
 11
-60.3923712995
 21
-53.6572016461
 31
0.0
  0
LINE
  5
110
330
1F
100
AcDbEntity
  8
0
  6
CONTINUOUS
 62
     7
100
AcDbLine
 10
-71.120942728
 20
-56.7572016461
 30
0.0
 11
-60.3923712995
 21
-56.7572016461
 31
0.0
  0
LINE
  5
111
330
1F
100
AcDbEntity
  8
0
  6
CONTINUOUS
 62
     7
100
AcDbLine
 10
-71.120942728
 20
-53.6572016461
 30
0.0
 11
-71.120942728
 21
-56.7572016461
 31
0.0
  0
LINE
  5
112
330
1F
100
AcDbEntity
  8
0
  6
CONTINUOUS
 62
     7
100
AcDbLine
 10
-76.320942728
 20
-53.6572016461
 30
0.0
 11
-71.120942728
 21
-53.6572016461
 31
0.0
  0
LINE
  5
113
330
1F
100
AcDbEntity
  8
0
  6
CONTINUOUS
 62
     7
100
AcDbLine
 10
-76.320942728
 20
-56.7572016461
 30
0.0
 11
-76.320942728
 21
-53.6572016461
 31
0.0
  0
LINE
  5
114
330
1F
100
AcDbEntity
  8
0
  6
CONTINUOUS
 62
     7
100
AcDbLine
 10
-87.0495141566
 20
-56.7572016461
 30
0.0
 11
-76.320942728
 21
-56.7572016461
 31
0.0
  0
LINE
  5
115
330
1F
100
AcDbEntity
  8
0
  6
CONTINUOUS
 62
     7
100
AcDbLine
 10
-87.0495141566
 20
-53.6572016461
 30
0.0
 11
-87.0495141566
 21
-56.7572016461
 31
0.0
  0
LINE
  5
116
330
1F
100
AcDbEntity
  8
0
  6
CONTINUOUS
 62
     7
100
AcDbLine
 10
-92.2495141566
 20
-53.6572016461
 30
0.0
 11
-87.0495141566
 21
-53.6572016461
 31
0.0
  0
LINE
  5
117
330
1F
100
AcDbEntity
  8
0
  6
CONTINUOUS
 62
     7
100
AcDbLine
 10
-92.2495141566
 20
-56.7572016461
 30
0.0
 11
-92.2495141566
 21
-53.6572016461
 31
0.0
  0
LINE
  5
118
330
1F
100
AcDbEntity
  8
0
  6
CONTINUOUS
 62
     7
100
AcDbLine
 10
-102.9780855852
 20
-56.7572016461
 30
0.0
 11
-92.2495141566
 21
-56.7572016461
 31
0.0
  0
LINE
  5
119
330
1F
100
AcDbEntity
  8
0
  6
CONTINUOUS
 62
     7
100
AcDbLine
 10
-102.9780855852
 20
-53.6572016461
 30
0.0
 11
-102.9780855852
 21
-56.7572016461
 31
0.0
  0
LINE
  5
11A
330
1F
100
AcDbEntity
  8
0
  6
CONTINUOUS
 62
     7
100
AcDbLine
 10
-108.1780855852
 20
-53.6572016461
 30
0.0
 11
-102.9780855852
 21
-53.6572016461
 31
0.0
  0
LINE
  5
11B
330
1F
100
AcDbEntity
  8
0
  6
CONTINUOUS
 62
     7
100
AcDbLine
 10
-108.1780855852
 20
-56.7572016461
 30
0.0
 11
-108.1780855852
 21
-53.6572016461
 31
0.0
  0
LINE
  5
11C
330
1F
100
AcDbEntity
  8
0
  6
CONTINUOUS
 62
     7
100
AcDbLine
 10
-113.0780855852
 20
-56.7572016461
 30
0.0
 11
-108.1780855852
 21
-56.7572016461
 31
0.0
  0
LINE
  5
11D
330
1F
100
AcDbEntity
  8
0
  6
CONTINUOUS
 62
     7
100
AcDbLine
 10
-113.0780855852
 20
-56.7572016461
 30
0.0
 11
-113.0780855852
 21
-51.7572016461
 31
0.0
  0
LINE
  5
11E
330
1F
100
AcDbEntity
  8
0
  6
CONTINUOUS
 62
     7
100
AcDbLine
 10
-116.0780855852
 20
-51.7572016461
 30
0.0
 11
-113.0780855852
 21
-51.7572016461
 31
0.0
  0
SPLINE
  5
11F
330
1F
100
AcDbEntity
  8
0
  6
CONTINUOUS
 62
     7
100
AcDbSpline
210
0.0
220
0.0
230
1.0
 70
    24
 71
     1
 72
     4
 73
     2
 74
     0
 42
0.00000001
 43
0.00000001
 40
0.1875000000000002
 40
0.1875000000000002
 40
0.5
 40
0.5
 10
-116.0780855851884
 20
-51.75720164609062
 30
0.0
 10
-116.0780855851884
 20
-46.75720164609062
 30
0.0
  0
LINE
  5
120
330
1F
100
AcDbEntity
  8
0
  6
CONTINUOUS
 62
     7
100
AcDbLine
 10
-116.0780855852
 20
-46.7572016461
 30
0.0
 11
-113.0780855852
 21
-46.7572016461
 31
0.0
  0
LINE
  5
121
330
1F
100
AcDbEntity
  8
0
  6
CONTINUOUS
 62
     7
100
AcDbLine
 10
-113.0780855852
 20
-46.7572016461
 30
0.0
 11
-113.0780855852
 21
-37.7572016461
 31
0.0
  0
LINE
  5
122
330
1F
100
AcDbEntity
  8
0
  6
CONTINUOUS
 62
     7
100
AcDbLine
 10
-116.0780855852
 20
-37.7572016461
 30
0.0
 11
-113.0780855852
 21
-37.7572016461
 31
0.0
  0
SPLINE
  5
123
330
1F
100
AcDbEntity
  8
0
  6
CONTINUOUS
 62
     7
100
AcDbSpline
210
0.0
220
0.0
230
1.0
 70
    24
 71
     1
 72
     4
 73
     2
 74
     0
 42
0.00000001
 43
0.00000001
 40
0.1875000000000002
 40
0.1875000000000002
 40
0.5
 40
0.5
 10
-116.0780855851884
 20
-37.75720164609061
 30
0.0
 10
-116.0780855851884
 20
-32.75720164609062
 30
0.0
  0
LINE
  5
124
330
1F
100
AcDbEntity
  8
0
  6
CONTINUOUS
 62
     7
100
AcDbLine
 10
-116.0780855852
 20
-32.7572016461
 30
0.0
 11
-113.0780855852
 21
-32.7572016461
 31
0.0
  0
LINE
  5
125
330
1F
100
AcDbEntity
  8
0
  6
CONTINUOUS
 62
     7
100
AcDbLine
 10
-113.0780855852
 20
-32.7572016461
 30
0.0
 11
-113.0780855852
 21
-23.7572016461
 31
0.0
  0
LINE
  5
126
330
1F
100
AcDbEntity
  8
0
  6
CONTINUOUS
 62
     7
100
AcDbLine
 10
-116.0780855852
 20
-23.7572016461
 30
0.0
 11
-113.0780855852
 21
-23.7572016461
 31
0.0
  0
SPLINE
  5
127
330
1F
100
AcDbEntity
  8
0
  6
CONTINUOUS
 62
     7
100
AcDbSpline
210
0.0
220
0.0
230
1.0
 70
    24
 71
     1
 72
     4
 73
     2
 74
     0
 42
0.00000001
 43
0.00000001
 40
0.1875000000000002
 40
0.1875000000000002
 40
0.5
 40
0.5
 10
-116.0780855851884
 20
-23.75720164609061
 30
0.0
 10
-116.0780855851884
 20
-18.75720164609061
 30
0.0
  0
LINE
  5
128
330
1F
100
AcDbEntity
  8
0
  6
CONTINUOUS
 62
     7
100
AcDbLine
 10
-116.0780855852
 20
-18.7572016461
 30
0.0
 11
-113.0780855852
 21
-18.7572016461
 31
0.0
  0
LINE
  5
129
330
1F
100
AcDbEntity
  8
0
  6
CONTINUOUS
 62
     7
100
AcDbLine
 10
-113.0780855852
 20
-18.7572016461
 30
0.0
 11
-113.0780855852
 21
-9.7572016461
 31
0.0
  0
LINE
  5
12A
330
1F
100
AcDbEntity
  8
0
  6
CONTINUOUS
 62
     7
100
AcDbLine
 10
-116.0780855852
 20
-9.7572016461
 30
0.0
 11
-113.0780855852
 21
-9.7572016461
 31
0.0
  0
SPLINE
  5
12B
330
1F
100
AcDbEntity
  8
0
  6
CONTINUOUS
 62
     7
100
AcDbSpline
210
0.0
220
0.0
230
1.0
 70
    24
 71
     1
 72
     4
 73
     2
 74
     0
 42
0.00000001
 43
0.00000001
 40
0.1875000000000002
 40
0.1875000000000002
 40
0.5
 40
0.5
 10
-116.0780855851884
 20
-9.757201646090605
 30
0.0
 10
-116.0780855851884
 20
-4.757201646090608
 30
0.0
  0
LINE
  5
12C
330
1F
100
AcDbEntity
  8
0
  6
CONTINUOUS
 62
     7
100
AcDbLine
 10
-116.0780855852
 20
-4.7572016461
 30
0.0
 11
-113.0780855852
 21
-4.7572016461
 31
0.0
  0
LINE
  5
12D
330
1F
100
AcDbEntity
  8
0
  6
CONTINUOUS
 62
     7
100
AcDbLine
 10
-113.0780855852
 20
-4.7572016461
 30
0.0
 11
-113.0780855852
 21
4.2427983539
 31
0.0
  0
LINE
  5
12E
330
1F
100
AcDbEntity
  8
0
  6
CONTINUOUS
 62
     7
100
AcDbLine
 10
-116.0780855852
 20
4.2427983539
 30
0.0
 11
-113.0780855852
 21
4.2427983539
 31
0.0
  0
SPLINE
  5
12F
330
1F
100
AcDbEntity
  8
0
  6
CONTINUOUS
 62
     7
100
AcDbSpline
210
0.0
220
0.0
230
1.0
 70
    24
 71
     1
 72
     4
 73
     2
 74
     0
 42
0.00000001
 43
0.00000001
 40
0.1875000000000002
 40
0.1875000000000002
 40
0.5
 40
0.5
 10
-116.0780855851884
 20
4.2427983539094
 30
0.0
 10
-116.0780855851884
 20
9.242798353909398
 30
0.0
  0
LINE
  5
130
330
1F
100
AcDbEntity
  8
0
  6
CONTINUOUS
 62
     7
100
AcDbLine
 10
-116.0780855852
 20
9.2427983539
 30
0.0
 11
-113.0780855852
 21
9.2427983539
 31
0.0
  0
LINE
  5
131
330
1F
100
AcDbEntity
  8
0
  6
CONTINUOUS
 62
     7
100
AcDbLine
 10
-113.0780855852
 20
9.2427983539
 30
0.0
 11
-113.0780855852
 21
18.2427983539
 31
0.0
  0
LINE
  5
132
330
1F
100
AcDbEntity
  8
0
  6
CONTINUOUS
 62
     7
100
AcDbLine
 10
-116.0780855852
 20
18.2427983539
 30
0.0
 11
-113.0780855852
 21
18.2427983539
 31
0.0
  0
SPLINE
  5
133
330
1F
100
AcDbEntity
  8
0
  6
CONTINUOUS
 62
     7
100
AcDbSpline
210
0.0
220
0.0
230
1.0
 70
    24
 71
     1
 72
     4
 73
     2
 74
     0
 42
0.00000001
 43
0.00000001
 40
0.1875000000000002
 40
0.1875000000000002
 40
0.5
 40
0.5
 10
-116.0780855851884
 20
18.24279835390941
 30
0.0
 10
-116.0780855851884
 20
23.24279835390941
 30
0.0
  0
LINE
  5
134
330
1F
100
AcDbEntity
  8
0
  6
CONTINUOUS
 62
     7
100
AcDbLine
 10
-116.0780855852
 20
23.2427983539
 30
0.0
 11
-113.0780855852
 21
23.2427983539
 31
0.0
  0
LINE
  5
135
330
1F
100
AcDbEntity
  8
0
  6
CONTINUOUS
 62
     7
100
AcDbLine
 10
-113.0780855852
 20
23.2427983539
 30
0.0
 11
-113.0780855852
 21
32.2427983539
 31
0.0
  0
LINE
  5
136
330
1F
100
AcDbEntity
  8
0
  6
CONTINUOUS
 62
     7
100
AcDbLine
 10
-116.0780855852
 20
32.2427983539
 30
0.0
 11
-113.0780855852
 21
32.2427983539
 31
0.0
  0
SPLINE
  5
137
330
1F
100
AcDbEntity
  8
0
  6
CONTINUOUS
 62
     7
100
AcDbSpline
210
0.0
220
0.0
230
1.0
 70
    24
 71
     1
 72
     4
 73
     2
 74
     0
 42
0.00000001
 43
0.00000001
 40
0.1875000000000002
 40
0.1875000000000002
 40
0.5
 40
0.5
 10
-116.0780855851884
 20
32.24279835390941
 30
0.0
 10
-116.0780855851884
 20
37.24279835390941
 30
0.0
  0
LINE
  5
138
330
1F
100
AcDbEntity
  8
0
  6
CONTINUOUS
 62
     7
100
AcDbLine
 10
-116.0780855852
 20
37.2427983539
 30
0.0
 11
-113.0780855852
 21
37.2427983539
 31
0.0
  0
LINE
  5
139
330
1F
100
AcDbEntity
  8
0
  6
CONTINUOUS
 62
     7
100
AcDbLine
 10
-113.0780855852
 20
37.2427983539
 30
0.0
 11
-113.0780855852
 21
46.2427983539
 31
0.0
  0
LINE
  5
13A
330
1F
100
AcDbEntity
  8
0
  6
CONTINUOUS
 62
     7
100
AcDbLine
 10
-116.0780855852
 20
46.2427983539
 30
0.0
 11
-113.0780855852
 21
46.2427983539
 31
0.0
  0
SPLINE
  5
13B
330
1F
100
AcDbEntity
  8
0
  6
CONTINUOUS
 62
     7
100
AcDbSpline
210
0.0
220
0.0
230
1.0
 70
    24
 71
     1
 72
     4
 73
     2
 74
     0
 42
0.00000001
 43
0.00000001
 40
0.1875000000000002
 40
0.1875000000000002
 40
0.5
 40
0.5
 10
-116.0780855851884
 20
46.24279835390941
 30
0.0
 10
-116.0780855851884
 20
51.24279835390941
 30
0.0
  0
LINE
  5
13C
330
1F
100
AcDbEntity
  8
0
  6
CONTINUOUS
 62
     7
100
AcDbLine
 10
-116.0780855852
 20
51.2427983539
 30
0.0
 11
-113.0780855852
 21
51.2427983539
 31
0.0
  0
LINE
  5
13D
330
1F
100
AcDbEntity
  8
0
  6
CONTINUOUS
 62
     7
100
AcDbLine
 10
-113.0780855852
 20
51.2427983539
 30
0.0
 11
-113.0780855852
 21
56.2427983539
 31
0.0
  0
LINE
  5
13E
330
1F
100
AcDbEntity
  8
0
  6
CONTINUOUS
 62
     7
100
AcDbLine
 10
-113.0780855852
 20
56.2427983539
 30
0.0
 11
-108.1780855852
 21
56.2427983539
 31
0.0
  0
LINE
  5
13F
330
1F
100
AcDbEntity
  8
0
  6
CONTINUOUS
 62
     7
100
AcDbLine
 10
-108.1780855852
 20
53.1427983539
 30
0.0
 11
-108.1780855852
 21
56.2427983539
 31
0.0
  0
LINE
  5
140
330
1F
100
AcDbEntity
  8
0
  6
CONTINUOUS
 62
     7
100
AcDbLine
 10
-102.9780855852
 20
53.1427983539
 30
0.0
 11
-108.1780855852
 21
53.1427983539
 31
0.0
  0
LINE
  5
141
330
1F
100
AcDbEntity
  8
0
  6
CONTINUOUS
 62
     7
100
AcDbLine
 10
-102.9780855852
 20
56.2427983539
 30
0.0
 11
-102.9780855852
 21
53.1427983539
 31
0.0
  0
LINE
  5
142
330
1F
100
AcDbEntity
  8
0
  6
CONTINUOUS
 62
     7
100
AcDbLine
 10
-102.9780855852
 20
56.2427983539
 30
0.0
 11
-96.4412434799
 21
56.2427983539
 31
0.0
  0
LINE
  5
143
330
1F
100
AcDbEntity
  8
0
  6
CONTINUOUS
 62
     7
100
AcDbLine
 10
-96.4412434799
 20
53.1427983539
 30
0.0
 11
-96.4412434799
 21
56.2427983539
 31
0.0
  0
LINE
  5
144
330
1F
100
AcDbEntity
  8
0
  6
CONTINUOUS
 62
     7
100
AcDbLine
 10
-91.2412434799
 20
53.1427983539
 30
0.0
 11
-96.4412434799
 21
53.1427983539
 31
0.0
  0
LINE
  5
145
330
1F
100
AcDbEntity
  8
0
  6
CONTINUOUS
 62
     7
100
AcDbLine
 10
-91.2412434799
 20
56.2427983539
 30
0.0
 11
-91.2412434799
 21
53.1427983539
 31
0.0
  0
LINE
  5
146
330
1F
100
AcDbEntity
  8
0
  6
CONTINUOUS
 62
     7
100
AcDbLine
 10
-91.2412434799
 20
56.2427983539
 30
0.0
 11
-84.7044013747
 21
56.2427983539
 31
0.0
  0
LINE
  5
147
330
1F
100
AcDbEntity
  8
0
  6
CONTINUOUS
 62
     7
100
AcDbLine
 10
-84.7044013747
 20
53.1427983539
 30
0.0
 11
-84.7044013747
 21
56.2427983539
 31
0.0
  0
LINE
  5
148
330
1F
100
AcDbEntity
  8
0
  6
CONTINUOUS
 62
     7
100
AcDbLine
 10
-79.5044013747
 20
53.1427983539
 30
0.0
 11
-84.7044013747
 21
53.1427983539
 31
0.0
  0
LINE
  5
149
330
1F
100
AcDbEntity
  8
0
  6
CONTINUOUS
 62
     7
100
AcDbLine
 10
-79.5044013747
 20
56.2427983539
 30
0.0
 11
-79.5044013747
 21
53.1427983539
 31
0.0
  0
LINE
  5
14A
330
1F
100
AcDbEntity
  8
0
  6
CONTINUOUS
 62
     7
100
AcDbLine
 10
-79.5044013747
 20
56.2427983539
 30
0.0
 11
-72.9675592694
 21
56.2427983539
 31
0.0
  0
LINE
  5
14B
330
1F
100
AcDbEntity
  8
0
  6
CONTINUOUS
 62
     7
100
AcDbLine
 10
-72.9675592694
 20
53.1427983539
 30
0.0
 11
-72.9675592694
 21
56.2427983539
 31
0.0
  0
LINE
  5
14C
330
1F
100
AcDbEntity
  8
0
  6
CONTINUOUS
 62
     7
100
AcDbLine
 10
-67.7675592694
 20
53.1427983539
 30
0.0
 11
-72.9675592694
 21
53.1427983539
 31
0.0
  0
LINE
  5
14D
330
1F
100
AcDbEntity
  8
0
  6
CONTINUOUS
 62
     7
100
AcDbLine
 10
-67.7675592694
 20
56.2427983539
 30
0.0
 11
-67.7675592694
 21
53.1427983539
 31
0.0
  0
LINE
  5
14E
330
1F
100
AcDbEntity
  8
0
  6
CONTINUOUS
 62
     7
100
AcDbLine
 10
-67.7675592694
 20
56.2427983539
 30
0.0
 11
-61.2307171641
 21
56.2427983539
 31
0.0
  0
LINE
  5
14F
330
1F
100
AcDbEntity
  8
0
  6
CONTINUOUS
 62
     7
100
AcDbLine
 10
-61.2307171641
 20
53.1427983539
 30
0.0
 11
-61.2307171641
 21
56.2427983539
 31
0.0
  0
LINE
  5
150
330
1F
100
AcDbEntity
  8
0
  6
CONTINUOUS
 62
     7
100
AcDbLine
 10
-56.0307171641
 20
53.1427983539
 30
0.0
 11
-61.2307171641
 21
53.1427983539
 31
0.0
  0
LINE
  5
151
330
1F
100
AcDbEntity
  8
0
  6
CONTINUOUS
 62
     7
100
AcDbLine
 10
-56.0307171641
 20
56.2427983539
 30
0.0
 11
-56.0307171641
 21
53.1427983539
 31
0.0
  0
LINE
  5
152
330
1F
100
AcDbEntity
  8
0
  6
CONTINUOUS
 62
     7
100
AcDbLine
 10
-56.0307171641
 20
56.2427983539
 30
0.0
 11
-49.4938750589
 21
56.2427983539
 31
0.0
  0
LINE
  5
153
330
1F
100
AcDbEntity
  8
0
  6
CONTINUOUS
 62
     7
100
AcDbLine
 10
-49.4938750589
 20
53.1427983539
 30
0.0
 11
-49.4938750589
 21
56.2427983539
 31
0.0
  0
LINE
  5
154
330
1F
100
AcDbEntity
  8
0
  6
CONTINUOUS
 62
     7
100
AcDbLine
 10
-44.2938750589
 20
53.1427983539
 30
0.0
 11
-49.4938750589
 21
53.1427983539
 31
0.0
  0
LINE
  5
155
330
1F
100
AcDbEntity
  8
0
  6
CONTINUOUS
 62
     7
100
AcDbLine
 10
-44.2938750589
 20
56.2427983539
 30
0.0
 11
-44.2938750589
 21
53.1427983539
 31
0.0
  0
LINE
  5
156
330
1F
100
AcDbEntity
  8
0
  6
CONTINUOUS
 62
     7
100
AcDbLine
 10
-44.2938750589
 20
56.2427983539
 30
0.0
 11
-37.7570329536
 21
56.2427983539
 31
0.0
  0
LINE
  5
157
330
1F
100
AcDbEntity
  8
0
  6
CONTINUOUS
 62
     7
100
AcDbLine
 10
-37.7570329536
 20
53.1427983539
 30
0.0
 11
-37.7570329536
 21
56.2427983539
 31
0.0
  0
LINE
  5
158
330
1F
100
AcDbEntity
  8
0
  6
CONTINUOUS
 62
     7
100
AcDbLine
 10
-32.5570329536
 20
53.1427983539
 30
0.0
 11
-37.7570329536
 21
53.1427983539
 31
0.0
  0
LINE
  5
159
330
1F
100
AcDbEntity
  8
0
  6
CONTINUOUS
 62
     7
100
AcDbLine
 10
-32.5570329536
 20
56.2427983539
 30
0.0
 11
-32.5570329536
 21
53.1427983539
 31
0.0
  0
LINE
  5
15A
330
1F
100
AcDbEntity
  8
0
  6
CONTINUOUS
 62
     7
100
AcDbLine
 10
-32.5570329536
 20
56.2427983539
 30
0.0
 11
-26.0201908483
 21
56.2427983539
 31
0.0
  0
LINE
  5
15B
330
1F
100
AcDbEntity
  8
0
  6
CONTINUOUS
 62
     7
100
AcDbLine
 10
-26.0201908483
 20
53.1427983539
 30
0.0
 11
-26.0201908483
 21
56.2427983539
 31
0.0
  0
LINE
  5
15C
330
1F
100
AcDbEntity
  8
0
  6
CONTINUOUS
 62
     7
100
AcDbLine
 10
-20.8201908483
 20
53.1427983539
 30
0.0
 11
-26.0201908483
 21
53.1427983539
 31
0.0
  0
LINE
  5
15D
330
1F
100
AcDbEntity
  8
0
  6
CONTINUOUS
 62
     7
100
AcDbLine
 10
-20.8201908483
 20
56.2427983539
 30
0.0
 11
-20.8201908483
 21
53.1427983539
 31
0.0
  0
LINE
  5
15E
330
1F
100
AcDbEntity
  8
0
  6
CONTINUOUS
 62
     7
100
AcDbLine
 10
-20.8201908483
 20
56.2427983539
 30
0.0
 11
-14.2833487431
 21
56.2427983539
 31
0.0
  0
LINE
  5
15F
330
1F
100
AcDbEntity
  8
0
  6
CONTINUOUS
 62
     7
100
AcDbLine
 10
-14.2833487431
 20
53.1427983539
 30
0.0
 11
-14.2833487431
 21
56.2427983539
 31
0.0
  0
LINE
  5
160
330
1F
100
AcDbEntity
  8
0
  6
CONTINUOUS
 62
     7
100
AcDbLine
 10
-9.0833487431
 20
53.1427983539
 30
0.0
 11
-14.2833487431
 21
53.1427983539
 31
0.0
  0
LINE
  5
161
330
1F
100
AcDbEntity
  8
0
  6
CONTINUOUS
 62
     7
100
AcDbLine
 10
-9.0833487431
 20
56.2427983539
 30
0.0
 11
-9.0833487431
 21
53.1427983539
 31
0.0
  0
LINE
  5
162
330
1F
100
AcDbEntity
  8
0
  6
CONTINUOUS
 62
     7
100
AcDbLine
 10
-9.0833487431
 20
56.2427983539
 30
0.0
 11
-2.5465066378
 21
56.2427983539
 31
0.0
  0
LINE
  5
163
330
1F
100
AcDbEntity
  8
0
  6
CONTINUOUS
 62
     7
100
AcDbLine
 10
-2.5465066378
 20
53.1427983539
 30
0.0
 11
-2.5465066378
 21
56.2427983539
 31
0.0
  0
LINE
  5
164
330
1F
100
AcDbEntity
  8
0
  6
CONTINUOUS
 62
     7
100
AcDbLine
 10
2.6534933622
 20
53.1427983539
 30
0.0
 11
-2.5465066378
 21
53.1427983539
 31
0.0
  0
LINE
  5
165
330
1F
100
AcDbEntity
  8
0
  6
CONTINUOUS
 62
     7
100
AcDbLine
 10
2.6534933622
 20
56.2427983539
 30
0.0
 11
2.6534933622
 21
53.1427983539
 31
0.0
  0
LINE
  5
166
330
1F
100
AcDbEntity
  8
0
  6
CONTINUOUS
 62
     7
100
AcDbLine
 10
2.6534933622
 20
56.2427983539
 30
0.0
 11
9.1903354674
 21
56.2427983539
 31
0.0
  0
LINE
  5
167
330
1F
100
AcDbEntity
  8
0
  6
CONTINUOUS
 62
     7
100
AcDbLine
 10
9.1903354674
 20
53.1427983539
 30
0.0
 11
9.1903354674
 21
56.2427983539
 31
0.0
  0
LINE
  5
168
330
1F
100
AcDbEntity
  8
0
  6
CONTINUOUS
 62
     7
100
AcDbLine
 10
14.3903354674
 20
53.1427983539
 30
0.0
 11
9.1903354674
 21
53.1427983539
 31
0.0
  0
LINE
  5
169
330
1F
100
AcDbEntity
  8
0
  6
CONTINUOUS
 62
     7
100
AcDbLine
 10
14.3903354674
 20
56.2427983539
 30
0.0
 11
14.3903354674
 21
53.1427983539
 31
0.0
  0
LINE
  5
16A
330
1F
100
AcDbEntity
  8
0
  6
CONTINUOUS
 62
     7
100
AcDbLine
 10
14.3903354674
 20
56.2427983539
 30
0.0
 11
20.9271775727
 21
56.2427983539
 31
0.0
  0
LINE
  5
16B
330
1F
100
AcDbEntity
  8
0
  6
CONTINUOUS
 62
     7
100
AcDbLine
 10
20.9271775727
 20
53.1427983539
 30
0.0
 11
20.9271775727
 21
56.2427983539
 31
0.0
  0
LINE
  5
16C
330
1F
100
AcDbEntity
  8
0
  6
CONTINUOUS
 62
     7
100
AcDbLine
 10
26.1271775727
 20
53.1427983539
 30
0.0
 11
20.9271775727
 21
53.1427983539
 31
0.0
  0
LINE
  5
16D
330
1F
100
AcDbEntity
  8
0
  6
CONTINUOUS
 62
     7
100
AcDbLine
 10
26.1271775727
 20
56.2427983539
 30
0.0
 11
26.1271775727
 21
53.1427983539
 31
0.0
  0
LINE
  5
16E
330
1F
100
AcDbEntity
  8
0
  6
CONTINUOUS
 62
     7
100
AcDbLine
 10
26.1271775727
 20
56.2427983539
 30
0.0
 11
32.664019678
 21
56.2427983539
 31
0.0
  0
LINE
  5
16F
330
1F
100
AcDbEntity
  8
0
  6
CONTINUOUS
 62
     7
100
AcDbLine
 10
32.664019678
 20
53.1427983539
 30
0.0
 11
32.664019678
 21
56.2427983539
 31
0.0
  0
LINE
  5
170
330
1F
100
AcDbEntity
  8
0
  6
CONTINUOUS
 62
     7
100
AcDbLine
 10
37.864019678
 20
53.1427983539
 30
0.0
 11
32.664019678
 21
53.1427983539
 31
0.0
  0
LINE
  5
171
330
1F
100
AcDbEntity
  8
0
  6
CONTINUOUS
 62
     7
100
AcDbLine
 10
37.864019678
 20
56.2427983539
 30
0.0
 11
37.864019678
 21
53.1427983539
 31
0.0
  0
LINE
  5
172
330
1F
100
AcDbEntity
  8
0
  6
CONTINUOUS
 62
     7
100
AcDbLine
 10
37.864019678
 20
56.2427983539
 30
0.0
 11
44.4008617832
 21
56.2427983539
 31
0.0
  0
LINE
  5
173
330
1F
100
AcDbEntity
  8
0
  6
CONTINUOUS
 62
     7
100
AcDbLine
 10
44.4008617832
 20
53.1427983539
 30
0.0
 11
44.4008617832
 21
56.2427983539
 31
0.0
  0
LINE
  5
174
330
1F
100
AcDbEntity
  8
0
  6
CONTINUOUS
 62
     7
100
AcDbLine
 10
49.6008617832
 20
53.1427983539
 30
0.0
 11
44.4008617832
 21
53.1427983539
 31
0.0
  0
LINE
  5
175
330
1F
100
AcDbEntity
  8
0
  6
CONTINUOUS
 62
     7
100
AcDbLine
 10
49.6008617832
 20
56.2427983539
 30
0.0
 11
49.6008617832
 21
53.1427983539
 31
0.0
  0
LINE
  5
176
330
1F
100
AcDbEntity
  8
0
  6
CONTINUOUS
 62
     7
100
AcDbLine
 10
49.6008617832
 20
56.2427983539
 30
0.0
 11
56.1377038885
 21
56.2427983539
 31
0.0
  0
LINE
  5
177
330
1F
100
AcDbEntity
  8
0
  6
CONTINUOUS
 62
     7
100
AcDbLine
 10
56.1377038885
 20
53.1427983539
 30
0.0
 11
56.1377038885
 21
56.2427983539
 31
0.0
  0
LINE
  5
178
330
1F
100
AcDbEntity
  8
0
  6
CONTINUOUS
 62
     7
100
AcDbLine
 10
61.3377038885
 20
53.1427983539
 30
0.0
 11
56.1377038885
 21
53.1427983539
 31
0.0
  0
LINE
  5
179
330
1F
100
AcDbEntity
  8
0
  6
CONTINUOUS
 62
     7
100
AcDbLine
 10
61.3377038885
 20
56.2427983539
 30
0.0
 11
61.3377038885
 21
53.1427983539
 31
0.0
  0
LINE
  5
17A
330
1F
100
AcDbEntity
  8
0
  6
CONTINUOUS
 62
     7
100
AcDbLine
 10
61.3377038885
 20
56.2427983539
 30
0.0
 11
67.8745459938
 21
56.2427983539
 31
0.0
  0
LINE
  5
17B
330
1F
100
AcDbEntity
  8
0
  6
CONTINUOUS
 62
     7
100
AcDbLine
 10
67.8745459938
 20
53.1427983539
 30
0.0
 11
67.8745459938
 21
56.2427983539
 31
0.0
  0
LINE
  5
17C
330
1F
100
AcDbEntity
  8
0
  6
CONTINUOUS
 62
     7
100
AcDbLine
 10
73.0745459938
 20
53.1427983539
 30
0.0
 11
67.8745459938
 21
53.1427983539
 31
0.0
  0
LINE
  5
17D
330
1F
100
AcDbEntity
  8
0
  6
CONTINUOUS
 62
     7
100
AcDbLine
 10
73.0745459938
 20
56.2427983539
 30
0.0
 11
73.0745459938
 21
53.1427983539
 31
0.0
  0
LINE
  5
17E
330
1F
100
AcDbEntity
  8
0
  6
CONTINUOUS
 62
     7
100
AcDbLine
 10
73.0745459938
 20
56.2427983539
 30
0.0
 11
79.611388099
 21
56.2427983539
 31
0.0
  0
LINE
  5
17F
330
1F
100
AcDbEntity
  8
0
  6
CONTINUOUS
 62
     7
100
AcDbLine
 10
79.611388099
 20
53.1427983539
 30
0.0
 11
79.611388099
 21
56.2427983539
 31
0.0
  0
LINE
  5
180
330
1F
100
AcDbEntity
  8
0
  6
CONTINUOUS
 62
     7
100
AcDbLine
 10
84.811388099
 20
53.1427983539
 30
0.0
 11
79.611388099
 21
53.1427983539
 31
0.0
  0
LINE
  5
181
330
1F
100
AcDbEntity
  8
0
  6
CONTINUOUS
 62
     7
100
AcDbLine
 10
84.811388099
 20
56.2427983539
 30
0.0
 11
84.811388099
 21
53.1427983539
 31
0.0
  0
LINE
  5
182
330
1F
100
AcDbEntity
  8
0
  6
CONTINUOUS
 62
     7
100
AcDbLine
 10
84.811388099
 20
56.2427983539
 30
0.0
 11
91.3482302043
 21
56.2427983539
 31
0.0
  0
LINE
  5
183
330
1F
100
AcDbEntity
  8
0
  6
CONTINUOUS
 62
     7
100
AcDbLine
 10
91.3482302043
 20
53.1427983539
 30
0.0
 11
91.3482302043
 21
56.2427983539
 31
0.0
  0
LINE
  5
184
330
1F
100
AcDbEntity
  8
0
  6
CONTINUOUS
 62
     7
100
AcDbLine
 10
96.5482302043
 20
53.1427983539
 30
0.0
 11
91.3482302043
 21
53.1427983539
 31
0.0
  0
LINE
  5
185
330
1F
100
AcDbEntity
  8
0
  6
CONTINUOUS
 62
     7
100
AcDbLine
 10
96.5482302043
 20
56.2427983539
 30
0.0
 11
96.5482302043
 21
53.1427983539
 31
0.0
  0
LINE
  5
186
330
1F
100
AcDbEntity
  8
0
  6
CONTINUOUS
 62
     7
100
AcDbLine
 10
96.5482302043
 20
56.2427983539
 30
0.0
 11
103.0850723095
 21
56.2427983539
 31
0.0
  0
LINE
  5
187
330
1F
100
AcDbEntity
  8
0
  6
CONTINUOUS
 62
     7
100
AcDbLine
 10
103.0850723095
 20
53.1427983539
 30
0.0
 11
103.0850723095
 21
56.2427983539
 31
0.0
  0
LINE
  5
188
330
1F
100
AcDbEntity
  8
0
  6
CONTINUOUS
 62
     7
100
AcDbLine
 10
108.2850723095
 20
53.1427983539
 30
0.0
 11
103.0850723095
 21
53.1427983539
 31
0.0
  0
LINE
  5
189
330
1F
100
AcDbEntity
  8
0
  6
CONTINUOUS
 62
     7
100
AcDbLine
 10
108.2850723095
 20
56.2427983539
 30
0.0
 11
108.2850723095
 21
53.1427983539
 31
0.0
  0
MTEXT
  5
18B
330
1F
100
AcDbEntity
  8
0
  6
CONTINUOUS
 62
     7
100
AcDbMText
 10
-116.0780855852
 20
-57.7767680378
 30
0.0
 40
4.83362
 41
0.0
 71
     1
 72
     1
  1
SOLIDWORKS \U+0434\U+043B\U+044F \U+0443\U+0447\U+0435\U+0431\U+043D\U+044B\U+0445 \U+0437\U+0430\U+0432\U+0435\U+0434\U+0435\U+043D\U+0438\U+0439.
  7
SLDTEXTSTYLE0
  0
MTEXT
  5
18C
330
1F
100
AcDbEntity
  8
0
  6
CONTINUOUS
 62
     7
100
AcDbMText
 10
-116.0780855852
 20
-65.0271980378
 30
0.0
 40
4.83362
 41
0.0
 71
     1
 72
     1
  1
\U+0422\U+043E\U+043B\U+044C\U+043A\U+043E \U+0434\U+043B\U+044F \U+043E\U+0431\U+0443\U+0447\U+0430\U+044E\U+0449\U+0438\U+0445 \U+0446\U+0435\U+043B\U+0435\U+0439.
  7
SLDTEXTSTYLE0
  0
ENDSEC
  0
SECTION
  2
OBJECTS
  0
DICTIONARY
  5
C
330
0
100
AcDbDictionary
  3
ACAD_GROUP
350
D
  3
ACAD_MLINESTYLE
350
17
  3
ACAD_SCALELIST
350
47
  3
DWGPROPS
350
18D
  0
DICTIONARY
  5
D
102
{ACAD_REACTORS
330
C
102
}
330
C
100
AcDbDictionary
  0
DICTIONARY
  5
17
102
{ACAD_REACTORS
330
C
102
}
330
C
100
AcDbDictionary
  3
STANDARD
350
18
  0
DICTIONARY
  5
47
102
{ACAD_REACTORS
330
C
102
}
330
C
100
AcDbDictionary
  0
XRECORD
  5
18D
102
{ACAD_REACTORS
330
C
102
}
330
C
100
AcDbXrecord
  1
DWGPROPS COOKIE
  2

  3

  4

  6

  7

  8
Student
  9

300
=
301
=
302
=
303
=
304
=
305
=
306
=
307
=
308
=
309
=
 40
0.0
 41
2460801.692190278
 42
2460801.692238079
  1

 90
        0
  0
MLINESTYLE
  5
18
102
{ACAD_REACTORS
330
17
102
}
330
17
100
AcDbMlineStyle
  2
Standard
 70
     0
  3

 62
   256
 51
90.0
 52
90.0
 71
     2
 49
0.5
 62
   256
  6
BYLAYER
 49
-0.5
 62
   256
  6
BYLAYER
  0
ENDSEC
  0
EOF
